<svg width="315" height="235" viewBox="0 0 315 235" fill="none" xmlns="http://www.w3.org/2000/svg">
<path d="M47.7206 -80.4167H265.59C292.259 -80.4167 314.005 -58.6709 314.005 -32.0014V185.868C314.005 212.537 292.259 234.283 265.59 234.283H47.7206C21.0511 233.873 -0.694824 212.127 -0.694824 185.458V-32.0014C-0.694824 -58.6709 21.0511 -80.4167 47.7206 -80.4167Z" fill="#FFB291"/>
<path d="M313.595 60.3162V185.458C313.595 212.127 291.849 233.873 265.18 233.873H47.7206C21.0511 233.873 -0.694824 212.127 -0.694824 185.458V84.9342C30.8983 82.0621 68.2356 91.499 109.266 127.195C142.09 155.916 165.477 163.302 183.94 159.609V32.8261H177.375V17.2347H183.94L192.556 -9.43475C192.967 -11.4863 195.018 -12.7171 196.659 -12.7171C198.711 -12.7171 200.352 -11.4863 200.762 -9.43475L209.379 17.2347H215.533V-4.51115H208.968V-20.1026H215.533L224.97 -46.772C225.38 -48.8235 227.432 -50.0544 229.073 -50.0544C231.125 -50.0544 232.766 -48.8235 233.176 -46.772L241.792 -20.1026H249.588V-4.51115H241.792V105.449C250.819 93.5505 260.666 82.0621 272.155 73.4458V21.748H266V6.15665H272.565L281.181 -20.5128C281.592 -22.5643 283.643 -23.7952 285.284 -23.7952C287.336 -23.7952 288.977 -22.5643 289.387 -20.5128L298.004 6.15665H305.799V21.748H298.004V61.5471C303.337 60.7265 308.261 60.3162 313.595 60.3162ZM210.199 144.838C212.251 142.787 214.302 140.735 216.354 138.684V32.8261H210.199V144.838Z" fill="#FF9378"/>
<path d="M313.595 154.275V185.457C313.595 212.127 291.849 233.873 265.179 233.873H172.452C175.734 225.667 185.171 213.768 214.713 216.23C214.713 216.23 199.942 203.1 209.379 197.356C218.405 191.202 223.739 204.741 223.739 204.741C223.739 204.741 220.867 187.919 226.201 185.047C231.535 182.585 229.483 202.28 229.483 202.28C229.483 202.28 247.537 167.404 287.746 173.148C286.925 173.148 291.439 155.916 313.595 154.275Z" fill="#8C8C2F"/>
<path d="M313.595 179.303V185.868C313.595 192.843 311.954 199.818 309.082 205.973C304.979 203.921 302.107 199.408 302.107 194.074C302.517 186.689 307.03 180.944 313.595 179.303ZM307.03 210.076C298.414 224.436 283.233 233.873 265.18 233.873H217.995C220.457 230.18 224.56 227.308 229.073 226.898C230.304 226.898 231.535 226.898 232.766 227.308C234.407 212.948 246.716 201.049 261.487 200.229C272.975 199.408 283.233 205.562 287.746 215.41C291.029 211.717 295.132 209.255 300.055 209.255C302.927 208.845 304.979 209.255 307.03 210.076Z" fill="#6B6B1E"/>
<path d="M69.0558 176.02C71.9279 176.02 74.3897 178.072 75.2103 180.534C73.9794 179.713 72.7485 179.303 71.5176 179.303C67.8249 179.303 64.5425 182.175 64.1322 185.868C62.491 185.868 61.2601 187.099 61.2601 188.74L59.6189 233.873H57.1571L59.2086 185.457C59.2086 183.816 60.4395 182.585 62.0807 182.585C62.0807 178.893 65.3631 176.02 69.0558 176.02ZM78.0824 184.637C78.4927 185.047 78.4927 185.457 78.4927 186.278V186.688H78.0824C78.0824 185.868 78.0824 185.047 78.0824 184.637ZM126.088 178.072C128.96 178.072 131.421 180.123 132.242 182.585C131.011 181.765 129.78 181.354 128.549 181.354C124.857 181.354 121.574 184.226 121.164 187.919C119.523 187.919 118.292 189.15 118.292 190.791L116.651 233.873H114.189L115.83 187.509C115.83 185.868 117.061 184.637 118.702 184.637C119.112 180.944 122.395 178.072 126.088 178.072ZM135.114 186.688C135.524 187.099 135.524 187.509 135.524 188.329V188.74H135.114C135.114 187.919 135.114 187.509 135.114 186.688ZM40.7451 174.79C43.6172 174.79 46.079 176.841 46.8996 179.303C45.6687 178.482 44.4378 178.072 43.2069 178.072C39.5142 178.072 36.2318 180.944 35.8215 184.637C34.1803 184.637 32.9494 185.868 32.9494 187.509L31.3082 231.001C30.4876 230.59 29.667 230.18 28.8464 230.18L30.4876 184.226C30.4876 182.585 31.7185 181.354 33.3597 181.354C33.3597 177.662 36.6421 174.79 40.7451 174.79ZM49.3614 183.406C49.7717 183.816 49.7717 184.226 49.7717 185.047V185.457H49.3614C49.7717 184.637 49.7717 184.226 49.3614 183.406ZM97.7768 177.251C100.649 177.251 103.111 179.303 103.931 181.765C102.7 180.944 101.47 180.534 100.239 180.534C96.5459 180.534 93.2635 183.406 92.8532 187.099C91.212 187.099 89.9811 188.329 89.9811 189.971L88.3399 234.283H85.4678L87.109 186.688C87.109 185.047 88.3399 183.816 89.9811 183.816C90.3914 180.123 93.6738 176.841 97.7768 177.251ZM106.393 185.457C106.803 185.868 106.803 186.278 106.803 187.099V187.509H106.393C106.803 187.099 106.803 186.278 106.393 185.457Z" fill="#E37165"/>
<path d="M145.372 166.584L142.91 233.873H47.7205C37.463 233.873 27.6158 230.591 19.8201 224.846L22.2819 161.66L145.372 166.584Z" fill="#FF9378"/>
<path d="M145.372 166.584L144.962 178.072L22.2822 162.481V162.07L145.372 166.584Z" fill="#E37165"/>
<path d="M22.2815 139.914L137.986 144.427L137.166 166.173L21.4609 161.66L22.2815 139.914Z" fill="white"/>
<path d="M149.065 70.9837L146.193 144.427L23.1028 139.914L25.9749 66.0601L149.065 70.9837Z" fill="#FFB291"/>
<path d="M149.065 70.9837L148.654 80.0102L25.9746 66.8807V66.0601L149.065 70.9837Z" fill="#FF9378"/>
<path d="M140.038 -24.2058L137.166 49.6481L39.5149 45.5452L42.387 -28.3088C42.7973 -28.3088 43.2076 -28.3088 43.6179 -28.3088L138.807 -24.2058C139.218 -24.2058 139.628 -24.2058 140.038 -24.2058Z" fill="#FFCDCC"/>
<path d="M69.0558 176.02C72.7485 176.02 76.0309 179.303 75.6206 183.406C77.2618 183.406 78.4927 184.637 78.4927 186.278L76.4412 234.283H56.7468L58.7983 185.868C58.7983 184.226 60.0292 182.996 61.6704 182.996C62.0807 178.893 65.3631 176.02 69.0558 176.02ZM126.088 178.072C129.78 178.072 133.063 181.354 132.652 185.457C134.294 185.457 135.524 186.688 135.524 188.329L133.883 233.873H114.189L115.83 187.509C115.83 185.868 117.061 184.637 118.702 184.637C119.112 180.944 122.395 178.072 126.088 178.072ZM40.7451 174.79C44.4378 174.79 47.7202 178.072 47.3099 182.175C48.9511 182.175 50.182 183.406 50.182 185.047L48.1305 233.873H47.7202C41.1554 233.873 34.5906 232.642 28.8464 229.77L30.4876 183.816C30.4876 182.175 31.7185 180.944 33.3597 180.944C33.3597 177.662 36.6421 174.79 40.7451 174.79ZM97.7768 177.251C101.47 177.251 104.752 180.534 104.342 184.637C105.983 184.637 107.214 185.868 107.214 187.509L105.573 234.283H85.4678L87.109 186.688C87.109 185.047 88.3399 183.816 89.9811 183.816C90.3914 180.123 93.6738 176.841 97.7768 177.251Z" fill="#4A283E"/>
<path d="M72.7485 82.8826C76.4412 82.8826 79.7236 86.165 79.3133 90.268C80.9545 90.268 82.1854 91.4989 82.1854 93.1401L80.1339 144.838C80.1339 146.479 78.903 147.71 77.2618 147.71L63.3116 147.3C61.6704 147.3 60.4395 146.069 60.4395 144.428L62.491 92.7298C62.491 91.0886 63.7219 89.8577 65.3631 89.8577C65.7734 85.7547 68.6455 82.4723 72.7485 82.8826ZM129.78 84.9341C133.473 84.9341 136.755 88.2165 136.345 92.3195C137.986 92.3195 139.217 93.5504 139.217 95.1916L137.166 146.889C137.166 148.531 135.935 149.762 134.293 149.762L120.343 149.351C118.702 149.351 117.471 148.12 117.471 146.479L119.523 94.7813C119.523 93.1401 120.754 91.9092 122.395 91.9092C122.395 87.8062 125.677 84.9341 129.78 84.9341ZM44.0275 81.6517C47.7202 81.6517 51.0026 84.9341 50.5923 89.0371C52.2335 89.0371 53.4644 90.268 53.4644 91.9092L51.4129 143.607C51.4129 145.248 50.182 146.479 48.5408 146.479L34.5906 146.069C32.9494 146.069 31.7185 144.838 31.7185 143.197L33.77 91.4989C33.77 89.8577 35.0009 88.6268 36.6421 88.6268C37.0524 84.5238 40.3348 81.6517 44.0275 81.6517ZM101.059 83.7032C104.752 83.7032 108.034 86.9856 107.624 91.0886C109.265 91.0886 110.496 92.3195 110.496 93.9607L108.445 145.659C108.445 147.3 107.214 148.531 105.572 148.531L91.6223 148.12C89.9811 148.12 88.7502 146.889 88.7502 145.248L90.8017 93.5504C90.8017 91.9092 92.0326 90.6783 93.6738 90.6783C94.0841 86.5753 97.3665 83.7032 101.059 83.7032Z" fill="#4A283E"/>
<path d="M90.8022 -13.9481C94.4949 -13.9481 97.7773 -10.6657 97.367 -6.56266C99.0082 -6.56266 100.239 -5.33175 100.239 -3.69055L98.1876 48.0072C98.1876 49.6484 96.9567 50.8793 95.3155 50.8793L81.3653 50.0587C79.7241 50.0587 78.4932 48.8278 78.4932 47.1866L80.5447 -4.51116C80.5447 -6.15236 81.7756 -7.38326 83.4168 -7.38326C83.4168 -11.076 86.6992 -13.9481 90.8022 -13.9481ZM62.0812 -15.179C65.7739 -15.179 69.0563 -11.8966 68.646 -7.79355C70.2872 -7.79355 71.5181 -6.56266 71.5181 -4.92146L69.4666 46.7763C69.4666 48.4175 68.2357 49.6484 66.5945 49.6484L52.6443 48.8278C51.0031 48.8278 49.7722 47.5969 49.7722 45.9557L51.8237 -5.74205C51.8237 -7.38325 53.0546 -8.61415 54.6958 -8.61415C55.1061 -12.3069 58.3885 -15.179 62.0812 -15.179ZM119.113 -12.7172C122.806 -12.7172 126.088 -9.43476 125.678 -5.33176C127.319 -5.33176 128.55 -4.10086 128.55 -2.45966L126.498 48.8278C126.498 50.469 125.267 51.6999 123.626 51.6999L109.676 51.2896C108.035 51.2896 106.804 50.0587 106.804 48.4175L108.855 -3.28026C108.855 -4.92146 110.086 -6.15235 111.728 -6.15235C112.138 -9.84505 115.42 -13.1275 119.113 -12.7172Z" fill="#6E284B"/>
<path d="M72.7488 82.8826C75.6209 82.8826 78.0827 84.9341 78.9033 87.3959C77.6724 86.5753 76.4415 86.165 75.2106 86.165C71.5179 86.165 68.2355 89.0371 67.8252 92.7298C66.184 92.7298 64.9531 93.9607 64.9531 95.6019L63.3119 141.556H60.8501L62.9016 92.3195C62.9016 90.6783 64.1325 89.4474 65.7737 89.4474C65.7737 85.7547 68.6458 82.4723 72.7488 82.8826ZM81.7754 91.4989C82.1857 91.9092 82.1857 92.3195 82.1857 93.1401V93.5504H81.7754C81.7754 92.7298 81.7754 91.9092 81.7754 91.4989ZM129.781 84.9341C132.653 84.9341 135.114 86.9856 135.935 89.4474C134.704 88.6268 133.473 88.2165 132.242 88.2165C128.55 88.2165 125.267 91.0886 124.857 94.7813C123.216 94.7813 121.985 96.0122 121.985 97.6534L120.344 143.607H117.882L119.933 94.371C119.933 92.7298 121.164 91.4989 122.805 91.4989C122.395 87.8062 125.678 84.9341 129.781 84.9341ZM138.807 93.5504C139.217 93.9607 139.217 94.371 139.217 95.1916V95.6019H138.807C138.807 94.7813 138.807 93.9607 138.807 93.5504ZM44.0278 81.6517C46.8999 81.6517 49.3617 83.7032 50.1823 86.165C48.9514 85.3444 47.7205 84.9341 46.4896 84.9341C42.7969 84.9341 39.5145 87.8062 39.1042 91.4989C37.463 91.4989 36.2321 92.7298 36.2321 94.371L34.591 140.325H32.1292L34.1806 91.0886C34.1806 89.4474 35.4115 88.2165 37.0527 88.2165C37.0527 84.5238 40.3351 81.6517 44.0278 81.6517ZM53.0544 90.268C53.4647 90.6783 53.4647 91.0886 53.4647 91.9092V92.3195H53.0544C53.4647 91.4989 53.4647 90.6783 53.0544 90.268ZM101.06 83.7032C103.932 83.7032 106.393 85.7547 107.214 88.2165C105.983 87.3959 104.752 86.9856 103.521 86.9856C99.8286 86.9856 96.5462 89.8577 96.1359 93.5504C94.4947 93.5504 93.2638 94.7813 93.2638 96.4225L91.6226 142.376H89.1608L91.2123 93.1401C91.2123 91.4989 92.4432 90.268 94.0844 90.268C94.0844 86.5753 97.3668 83.7032 101.06 83.7032ZM110.086 92.3195C110.496 92.7298 110.496 93.1401 110.496 93.9607V94.371H110.086C110.496 93.5504 110.496 93.1401 110.086 92.3195Z" fill="#C45368"/>
<path d="M90.8016 -13.9481C93.6737 -13.9481 96.1355 -11.8966 96.9561 -9.43476C95.7252 -10.2554 94.4943 -10.6657 93.2634 -10.6657C89.5707 -10.6657 86.2883 -7.79355 85.878 -4.10085C84.2368 -4.10085 83.0059 -2.86996 83.0059 -1.22876L80.9544 47.1866H78.4926L80.5441 -4.51116C80.5441 -6.15236 81.775 -7.38326 83.4162 -7.38326C83.4162 -11.076 86.6986 -13.9481 90.8016 -13.9481ZM99.8282 -5.33176C100.238 -4.92146 100.238 -4.51115 100.238 -3.69055V-3.28026H99.8282C99.8282 -4.10086 99.8282 -4.92146 99.8282 -5.33176ZM62.0806 -15.179C64.9527 -15.179 67.4145 -13.1275 68.2351 -10.6657C67.0042 -11.4863 65.7733 -11.8966 64.5424 -11.8966C60.8497 -11.8966 57.5673 -9.02446 57.157 -5.33176C55.5158 -5.33176 54.2849 -4.10086 54.2849 -2.45966L52.6437 45.9557H50.1819L52.2334 -5.74205C52.2334 -7.38325 53.4643 -8.61415 55.1055 -8.61415C55.1055 -12.3069 58.3879 -15.179 62.0806 -15.179ZM71.1072 -6.56266C71.5175 -6.15236 71.5175 -5.74206 71.5175 -4.92146V-4.51116H71.1072C71.5175 -5.33176 71.5175 -5.74205 71.1072 -6.56266ZM119.112 -12.7172C121.984 -12.7172 124.446 -10.6657 125.267 -8.20385C124.036 -9.02445 122.805 -9.43476 121.574 -9.43476C117.881 -9.43476 114.599 -6.56266 114.189 -2.86996C112.547 -2.86996 111.317 -1.63905 111.317 0.00214481L109.265 48.4175H106.803L108.855 -3.28026C108.855 -4.92146 110.086 -6.15235 111.727 -6.15235C112.137 -9.84505 115.42 -13.1275 119.112 -12.7172ZM128.139 -4.10085C128.549 -3.69055 128.549 -3.28026 128.549 -2.45966V-2.04935H128.139C128.549 -2.86995 128.549 -3.69055 128.139 -4.10085Z" fill="#E37165"/>
<path d="M5.87036 210.076C12.4352 221.154 22.6927 228.949 35.412 232.232C40.7459 224.026 50.1827 207.614 43.618 202.28C34.5914 194.895 17.3588 215.82 17.3588 215.82C17.3588 215.82 30.0781 189.15 19 185.868C11.2043 183.406 6.28066 195.715 5.87036 210.076Z" fill="#6B6B1E"/>
<path d="M36.6428 232.642C48.9518 218.692 69.4668 192.022 58.799 185.457C44.0282 176.02 20.2308 212.537 20.2308 212.537C20.2308 212.537 39.9252 178.893 21.872 169.866C12.4351 165.353 6.28059 183.816 2.58789 202.69C8.33209 217.461 21.0514 228.949 36.6428 232.642Z" fill="#8C8C2F"/>
<path d="M36.6428 232.642C38.6943 230.59 40.7458 228.129 42.7973 225.257C46.49 217.461 48.5415 208.024 42.387 202.69C36.2325 197.356 29.6677 201.049 24.7441 205.562C21.872 209.255 20.2308 212.127 20.2308 212.127C20.2308 212.127 21.0514 210.896 21.872 208.845C18.9999 212.537 17.3587 215.409 17.3587 215.409C17.3587 215.409 27.2059 183.816 16.9484 185.047C11.2042 185.868 5.87029 194.894 2.58789 202.28C8.33209 217.871 21.0514 228.949 36.6428 232.642Z" fill="#6B6B1E"/>
<path d="M16.1276 136.632L149.885 141.966C156.04 142.376 160.553 147.3 160.553 153.454C160.143 159.609 155.219 164.122 149.065 164.122L15.307 158.378C9.15246 157.968 4.63916 153.044 4.63916 146.889C4.63916 141.145 9.97306 136.222 16.1276 136.632Z" fill="white"/>
<path d="M17.7684 139.504L151.526 144.838C157.681 145.248 162.194 150.172 162.194 156.326C161.784 162.481 156.86 166.994 150.706 166.994L16.9478 161.66C10.7933 161.25 6.28003 156.326 6.28003 150.172C6.69033 144.017 11.6139 139.504 17.7684 139.504Z" fill="#C45368"/>
<path d="M17.7684 139.504L45.2585 140.735C51.413 141.145 55.9263 146.069 55.9263 152.223C55.516 158.378 50.5924 162.891 44.4379 162.891L16.9478 161.66C10.7933 161.25 6.28003 156.326 6.28003 150.172C6.69033 144.017 11.6139 139.504 17.7684 139.504Z" fill="#E37165"/>
<path d="M22.6924 42.6732L150.296 47.5968C156.04 48.0071 160.553 52.9307 160.553 58.6749C160.143 64.4191 155.219 68.9324 149.475 68.9324L21.8718 64.0088C16.1276 63.5985 11.6143 58.6749 11.6143 52.9307C12.0246 47.1865 16.9482 42.6732 22.6924 42.6732Z" fill="white"/>
<path d="M24.333 45.1348L151.936 50.0584C157.68 50.4687 162.194 55.3923 162.194 61.1365C161.783 66.8807 156.86 71.394 151.116 71.394L23.5124 66.0601C17.7682 65.6498 13.2549 60.7262 13.2549 54.982C13.6652 49.2378 18.5888 44.7245 24.333 45.1348Z" fill="#C45368"/>
<path d="M24.3333 45.1348L51.4131 46.3657C57.1573 46.776 62.0809 51.6996 61.6706 57.4438C61.2603 63.5983 56.3367 68.1116 50.5925 67.7013L23.923 66.4704C17.7685 66.0601 13.2552 61.1365 13.6655 55.3923C13.2552 49.6481 18.1788 44.7245 24.3333 45.1348Z" fill="#E37165"/>
<path d="M208.968 118.989C208.968 118.989 201.173 118.579 194.608 121.861C194.608 121.861 191.326 115.296 183.94 113.245C183.94 113.245 190.915 112.834 195.839 117.348C195.839 117.348 202.814 116.117 208.968 118.989Z" fill="white"/>
<path d="M238.099 96.0121C238.099 96.0121 232.766 96.0121 227.842 98.0636C227.842 98.0636 225.38 93.5503 220.457 91.9091C220.457 91.9091 225.38 91.4988 228.663 94.7812C228.663 94.7812 233.586 93.9606 238.099 96.0121Z" fill="white"/>
<path d="M4.22852 5.74612C4.22852 5.74612 9.56242 5.74612 14.486 7.79762C14.486 7.79762 16.9478 3.28432 21.8714 1.64312C21.8714 1.64312 16.9478 1.23282 13.6654 4.51522C13.6654 4.51522 8.33152 3.69462 4.22852 5.74612Z" fill="white"/>
</svg>
