<svg style="display: none;" aria-hidden="true" xmlns="http://www.w3.org/2000/svg" xmlns:xlink="http://www.w3.org/1999/xlink"><symbol viewBox="0 0 30 30" fill="none" id="svg-arrow" xmlns="http://www.w3.org/2000/svg">
<g clip-path="url(#aclip0_14_128)">
<path d="M24.375 11.25L15 20.625L5.625 11.25" stroke-width="3" stroke-linecap="round" stroke-linejoin="round"/>
</g>
<defs>
<clipPath id="aclip0_14_128">
<rect width="30" height="30" fill="white" transform="translate(30) rotate(90)"/>
</clipPath>
</defs>
</symbol>
<symbol viewBox="0 0 35 35" fill="none" id="svg-business" xmlns="http://www.w3.org/2000/svg">
<path d="M0 29.61C0 25.991 0 22.379 0 18.76C0.385 18.158 0.707 18.088 1.316 18.494C1.855 18.851 2.45 18.984 3.094 18.984C6.762 18.977 10.437 18.977 14.105 18.977C14.238 18.977 14.371 18.977 14.532 18.977C14.539 19.124 14.546 19.236 14.546 19.348C14.546 19.929 14.539 20.51 14.553 21.084C14.56 21.609 14.847 21.889 15.358 21.889C16.765 21.896 18.179 21.896 19.586 21.889C20.069 21.889 20.349 21.616 20.377 21.133C20.391 20.839 20.384 20.545 20.384 20.244C20.384 19.831 20.384 19.411 20.384 18.97C20.573 18.97 20.706 18.97 20.839 18.97C24.5 18.97 28.161 18.963 31.822 18.977C32.515 18.977 33.152 18.83 33.712 18.417C33.971 18.228 34.244 18.165 34.538 18.319C34.846 18.48 34.93 18.76 34.93 19.089C34.923 22.428 34.93 25.774 34.923 29.113C34.923 29.456 34.86 29.82 34.748 30.149C34.328 31.374 33.257 32.074 31.836 32.074C22.253 32.074 12.67 32.074 3.087 32.074C2.982 32.074 2.884 32.074 2.779 32.067C1.547 32.025 0.49 31.206 0.133 30.023C0.084 29.89 0.042 29.75 0 29.61Z" fill="#006270"/>
<path d="M0 15.078C0 13.328 0 11.578 0 9.82801C0.014 9.80701 0.035 9.79301 0.042 9.77201C0.483 8.11301 1.47 7.35001 3.192 7.35001C5.376 7.35001 7.56 7.35001 9.737 7.35001C9.87 7.35001 10.003 7.35001 10.185 7.35001C10.185 6.85301 10.178 6.39101 10.185 5.92901C10.22 4.29101 11.41 3.01001 12.992 2.99601C15.981 2.96801 18.97 2.97501 21.959 2.99601C23.233 3.00301 24.332 3.89901 24.626 5.13801C24.745 5.64201 24.717 6.17401 24.745 6.69201C24.759 6.90201 24.745 7.11201 24.745 7.34301C24.941 7.34301 25.074 7.34301 25.207 7.34301C27.433 7.34301 29.666 7.33601 31.892 7.34301C33.698 7.35001 34.923 8.58201 34.923 10.395C34.923 11.746 34.923 13.104 34.923 14.455C34.923 16.296 33.684 17.528 31.836 17.528C28.14 17.528 24.444 17.528 20.755 17.528C20.636 17.528 20.517 17.528 20.377 17.528C20.377 17.283 20.384 17.094 20.377 16.898C20.363 16.352 20.097 16.079 19.551 16.079C18.151 16.072 16.751 16.072 15.358 16.079C14.833 16.079 14.567 16.352 14.546 16.877C14.539 17.087 14.546 17.297 14.546 17.493C14.469 17.514 14.448 17.521 14.427 17.521C10.542 17.521 6.65 17.535 2.765 17.514C1.561 17.507 0.497 16.639 0.133 15.484C0.091 15.351 0.042 15.218 0 15.078ZM13.111 7.32201C16.037 7.32201 18.928 7.32201 21.812 7.32201C21.812 6.83201 21.812 6.37001 21.812 5.90801C18.9 5.90801 16.009 5.90801 13.111 5.90801C13.111 6.39101 13.111 6.84601 13.111 7.32201Z" fill="#006270"/>
</symbol><symbol viewBox="0 0 20 20" fill="none" id="svg-calendar" xmlns="http://www.w3.org/2000/svg">
<g clip-path="url(#cclip0_17_432)">
<path d="M18.1721 19.9999C12.7395 19.9999 7.30681 19.9999 1.87414 19.9999C1.78709 19.9795 1.70005 19.959 1.613 19.9385C0.752789 19.6876 0.266357 19.0271 0.266357 18.0952C0.266357 13.451 0.266357 8.80178 0.271478 4.15764C0.271478 3.91699 0.31244 3.66609 0.389245 3.43056C0.594058 2.76492 1.32627 2.25288 1.99703 2.28361C1.99703 2.35017 1.99703 2.42185 1.99703 2.49354C1.99703 3.19502 1.99191 3.89651 1.99703 4.59799C2.00215 5.76543 2.83164 6.6154 3.99908 6.641C4.40358 6.65124 4.80297 6.65124 5.20747 6.641C6.38515 6.61028 7.20952 5.75519 7.21464 4.57751C7.21464 3.87603 7.21464 3.17454 7.21464 2.47306C7.21464 2.40649 7.21464 2.33481 7.21464 2.26312C9.09892 2.26312 10.9627 2.26312 12.8316 2.26312C12.8316 3.03629 12.8316 3.7941 12.8316 4.55703C12.8316 5.77567 13.6765 6.62564 14.8951 6.641C15.2638 6.64612 15.6376 6.64612 16.0062 6.641C17.2044 6.62564 18.0441 5.77567 18.0493 4.57751C18.0493 3.87603 18.0493 3.17454 18.0493 2.47306C18.0493 2.40649 18.0493 2.33481 18.0493 2.21704C18.3258 2.30921 18.5818 2.35529 18.8019 2.46794C19.4932 2.82636 19.785 3.42544 19.785 4.19349C19.7799 8.81202 19.785 13.4306 19.7799 18.0542C19.7799 18.1669 19.7799 18.2744 19.7646 18.387C19.7185 18.853 19.5137 19.237 19.1655 19.5545C18.8839 19.8054 18.5357 19.9231 18.1721 19.9999ZM10.0103 9.23701C7.81884 9.23701 5.63246 9.23701 3.44096 9.23701C2.84188 9.23701 2.53978 9.53911 2.53978 10.1382C2.53978 12.4884 2.53978 14.8438 2.53978 17.194C2.53978 17.7931 2.84188 18.0901 3.44096 18.0901C7.81372 18.0901 12.1865 18.0901 16.5592 18.0901C17.1686 18.0901 17.4655 17.7931 17.4655 17.1786C17.4655 14.8335 17.4655 12.4884 17.4655 10.1433C17.4655 9.53399 17.1686 9.23701 16.5592 9.23701C14.378 9.23701 12.1916 9.23701 10.0103 9.23701Z" fill="#006270"/>
<path d="M14.1221 2.6881C14.1221 2.07366 14.1221 1.4541 14.1221 0.839665C14.1221 0.30203 14.3883 0.0408936 14.9208 0.0408936C15.269 0.0408936 15.6223 0.0408936 15.9705 0.0408936C16.4313 0.0460139 16.7078 0.317391 16.713 0.783341C16.7181 1.80229 16.713 2.82123 16.713 3.84018C16.713 4.10131 16.7181 4.35733 16.713 4.61847C16.7027 5.0793 16.4365 5.34043 15.9807 5.34555C15.6018 5.35067 15.2281 5.35067 14.8492 5.34555C14.3934 5.34043 14.1221 5.07418 14.1169 4.61847C14.1169 3.9733 14.1221 3.32814 14.1221 2.6881Z" fill="#006270"/>
<path d="M5.88345 2.69334C5.88345 3.31802 5.88345 3.9427 5.88345 4.56226C5.88345 5.08453 5.62231 5.34567 5.11028 5.34567C4.76722 5.34567 4.42415 5.34567 4.07597 5.34567C3.54858 5.34567 3.29256 5.08965 3.29256 4.55202C3.29256 3.81981 3.29256 3.08248 3.29256 2.35028C3.29256 1.83824 3.28744 1.32621 3.29256 0.809058C3.29256 0.297025 3.55882 0.0358887 4.07597 0.0358887C4.41903 0.0358887 4.7621 0.0358887 5.11028 0.0358887C5.62231 0.0358887 5.88345 0.307266 5.88857 0.819299C5.88345 1.44398 5.88345 2.06866 5.88345 2.69334Z" fill="#006270"/>
<path d="M10.0308 10.5991C10.2714 10.5991 10.5121 10.594 10.7527 10.5991C11.0804 10.6042 11.2596 10.7783 11.2648 11.106C11.2699 11.5925 11.2699 12.0789 11.2648 12.5653C11.2596 12.8879 11.0958 13.0722 10.7783 13.0774C10.2714 13.0927 9.76451 13.0927 9.2576 13.0774C8.94014 13.0671 8.77629 12.8828 8.77117 12.5602C8.76605 12.0738 8.76605 11.5873 8.77117 11.1009C8.77629 10.7732 8.95551 10.5991 9.28321 10.594C9.53922 10.594 9.785 10.5991 10.0308 10.5991Z" fill="#006270"/>
<path d="M11.2699 15.8014C11.2699 16.0421 11.275 16.2827 11.2699 16.5234C11.2597 16.8511 11.0856 17.0303 10.7579 17.0354C10.2714 17.0405 9.78501 17.0405 9.29858 17.0354C8.96576 17.0303 8.78655 16.8511 8.78143 16.5131C8.77631 16.0318 8.77631 15.5505 8.78143 15.0692C8.78655 14.7364 8.96576 14.5521 9.3037 14.5469C9.78501 14.5418 10.2663 14.5418 10.7476 14.5469C11.0958 14.5521 11.2699 14.7364 11.275 15.0794C11.2699 15.3201 11.2699 15.5608 11.2699 15.8014Z" fill="#006270"/>
<path d="M6.07278 10.5991C6.31856 10.5991 6.56434 10.594 6.81523 10.5991C7.11733 10.6042 7.29654 10.7578 7.30678 11.0599C7.32214 11.5771 7.32214 12.0994 7.30678 12.6165C7.30166 12.9033 7.13781 13.0671 6.85107 13.0722C6.33392 13.0876 5.81165 13.0876 5.2945 13.0722C4.98728 13.062 4.83367 12.8828 4.82855 12.5653C4.82343 12.0789 4.82343 11.5925 4.82855 11.106C4.83367 10.7732 5.00264 10.6042 5.33546 10.594C5.58123 10.594 5.82701 10.5991 6.07278 10.5991Z" fill="#006270"/>
<path d="M13.9887 10.5991C14.2345 10.5991 14.4803 10.594 14.7312 10.5991C15.0384 10.6093 15.2125 10.7783 15.2176 11.0855C15.2227 11.5873 15.2227 12.084 15.2176 12.5858C15.2125 12.8879 15.0589 13.0671 14.7568 13.0773C14.2447 13.0927 13.7327 13.0927 13.2207 13.0773C12.9083 13.0671 12.7496 12.8981 12.7445 12.5807C12.7343 12.0891 12.7343 11.5924 12.7445 11.1009C12.7496 10.7629 12.9288 10.5991 13.277 10.5991C13.5074 10.594 13.7481 10.5991 13.9887 10.5991Z" fill="#006270"/>
<path d="M6.06255 17.0355C5.82189 17.0355 5.58124 17.0406 5.34058 17.0355C5.00776 17.0304 4.83367 16.8563 4.83367 16.5286C4.82855 16.037 4.82855 15.5403 4.83367 15.0488C4.83879 14.7416 5.00264 14.5572 5.30986 14.5521C5.81677 14.5419 6.32368 14.5419 6.83059 14.5521C7.13269 14.5572 7.30166 14.7262 7.3119 15.0283C7.32726 15.5352 7.32214 16.0421 7.3119 16.5491C7.30678 16.8716 7.12245 17.0304 6.80499 17.0355C6.5541 17.0406 6.30832 17.0355 6.06255 17.0355Z" fill="#006270"/>
<path d="M15.2127 15.7912C15.2127 16.037 15.2179 16.2828 15.2127 16.5337C15.2076 16.8511 15.0335 17.0303 14.7161 17.0355C14.2245 17.0406 13.7278 17.0406 13.2363 17.0355C12.9188 17.0303 12.7396 16.8665 12.7294 16.5439C12.7191 16.0421 12.7191 15.5455 12.7294 15.0437C12.7345 14.7262 12.9137 14.5572 13.2363 14.5521C13.7278 14.5419 14.2245 14.5419 14.7161 14.5521C15.0335 14.5572 15.2025 14.7364 15.2127 15.0539C15.2179 15.2997 15.2127 15.5455 15.2127 15.7912Z" fill="#006270"/>
</g>
<defs>
<clipPath id="cclip0_17_432">
<rect width="20" height="20" fill="white"/>
</clipPath>
</defs>
</symbol><symbol viewBox="0 0 20 20" fill="none" id="svg-close" xmlns="http://www.w3.org/2000/svg">
<path d="M10.6044 20C10.2134 20 9.82634 20 9.43534 20C9.384 19.9881 9.33661 19.9763 9.28526 19.9684C8.82318 19.9012 8.35714 19.8617 7.89901 19.7669C2.978 18.7401 -0.434327 14.0561 0.0830503 9.04026C0.29632 6.95495 1.05856 5.08291 2.45272 3.51103C4.83029 0.829361 7.82792 -0.288332 11.3745 0.134258C13.3176 0.367276 15.0396 1.16111 16.5206 2.44468C18.3255 4.00866 19.4393 5.96759 19.85 8.32146C19.9132 8.68876 19.9527 9.06395 20.0001 9.4352C20.0001 9.8262 20.0001 10.2132 20.0001 10.6042C19.9843 10.7385 19.9685 10.8728 19.9527 11.0071C19.7237 13.0924 18.9575 14.9486 17.5791 16.5363C16.0191 18.3333 14.0641 19.4431 11.7181 19.8499C11.3508 19.9131 10.9756 19.9486 10.6044 20ZM10.0199 8.90203C9.93692 8.78749 9.90138 8.7243 9.85003 8.67296C8.96536 7.78433 8.07673 6.89966 7.19206 6.01103C7.12491 5.94389 7.05382 5.8728 6.97484 5.81751C6.67468 5.59634 6.27578 5.60424 5.97957 5.83726C5.56093 6.16506 5.54909 6.71798 5.95588 7.13268C6.86425 8.045 7.77262 8.95337 8.68495 9.86174C8.73234 9.90913 8.77973 9.96443 8.83503 10.0197C8.77578 10.079 8.72839 10.1343 8.681 10.1816C7.79632 11.0703 6.9077 11.9549 6.02302 12.8436C5.95983 12.9068 5.89664 12.9739 5.84134 13.045C5.56883 13.4004 5.62018 13.8941 5.96378 14.1824C6.32318 14.4826 6.77736 14.4431 7.14861 14.0718C8.05303 13.1674 8.95746 12.263 9.86583 11.3586C9.91322 11.3112 9.96852 11.2638 10.0278 11.2085C10.087 11.2638 10.1383 11.3112 10.1897 11.3625C11.0744 12.2512 11.963 13.1358 12.8477 14.0245C12.9069 14.0837 12.9661 14.1429 13.0333 14.1943C13.527 14.5853 14.226 14.3404 14.3643 13.7282C14.4432 13.3886 14.305 13.124 14.068 12.887C13.1597 11.9826 12.2592 11.0782 11.3548 10.1698C11.3074 10.1224 11.26 10.0711 11.1928 9.99602C11.2639 9.93678 11.3271 9.89729 11.3745 9.84989C12.2631 8.96522 13.1478 8.07659 14.0364 7.19192C14.0996 7.12873 14.1628 7.06159 14.2181 6.9905C14.4511 6.68639 14.4432 6.27959 14.2063 5.97944C13.8745 5.56475 13.3255 5.5529 12.9109 5.96364C12.0025 6.86806 11.0981 7.77249 10.1976 8.68086C10.1383 8.72035 10.1028 8.78749 10.0199 8.90203Z" fill="#2A3950"/>
</symbol><symbol viewBox="0 0 29 29" id="svg-comment" xmlns="http://www.w3.org/2000/svg">
<path d="M28.477 13.8258C28.4824 15.9098 27.9955 17.9656 27.0559 19.8258C25.9419 22.0549 24.2292 23.9298 22.1098 25.2405C19.9904 26.5512 17.5479 27.2459 15.0559 27.2469C12.9719 27.2523 10.9161 26.7654 9.05591 25.8258L0.0559082 28.8258L3.05591 19.8258C2.11633 17.9656 1.62942 15.9098 1.63486 13.8258C1.63582 11.3339 2.33056 8.89138 3.64125 6.77195C4.95195 4.65253 6.82684 2.93988 9.05591 1.82582C10.9161 0.886239 12.9719 0.399336 15.0559 0.404769H15.8454C19.1365 0.586335 22.2449 1.97544 24.5756 4.30613C26.9063 6.63681 28.2954 9.74527 28.477 13.0363V13.8258Z"/>
</symbol><symbol viewBox="0 0 36 36" fill="none" id="svg-facebook" xmlns="http://www.w3.org/2000/svg">
<path d="M35.1367 3.20605C35.1367 12.7148 35.1367 22.2168 35.1367 31.7256C35.123 31.7461 35.1025 31.7598 35.0957 31.7803C34.8701 33.1885 33.6465 34.1387 32.1494 34.1387C22.4492 34.125 12.749 34.1318 3.04883 34.125C2.75488 34.125 2.44727 34.1045 2.16699 34.0293C0.847656 33.6807 0.0683594 32.6211 0.0683594 31.1992C0.0683594 27.0293 0.0683594 22.8525 0.0683594 18.6826C0.0683594 13.7129 0.0683594 8.74316 0.0683594 3.77344C0.0683594 3.09668 0.211914 2.46094 0.628906 1.91406C1.25781 1.10059 2.10547 0.792969 3.11035 0.792969C12.0107 0.799805 20.9111 0.799805 29.8184 0.799805C30.6182 0.799805 31.418 0.806641 32.2178 0.799805C32.9424 0.792969 33.585 1.00488 34.1455 1.46289C34.6992 1.9209 34.959 2.54297 35.1367 3.20605ZM14.7793 28.3008C16.3926 28.3008 17.9443 28.3008 19.5303 28.3008C19.5303 24.4727 19.5303 20.6719 19.5303 16.8301C20.3232 16.8301 21.082 16.8301 21.8477 16.8301C22.4971 16.8301 22.4971 16.8301 22.6475 16.1943C22.8662 15.2646 23.0781 14.3418 23.3105 13.3711C22.0391 13.3711 20.8018 13.3711 19.4756 13.3711C19.5439 12.5645 19.5781 11.792 19.6738 11.0332C19.7217 10.6504 19.9746 10.3428 20.3506 10.1855C21 9.91895 21.6768 9.83691 22.3535 10.0762C22.791 10.2266 23.2012 10.4453 23.6523 10.6504C23.9326 9.57715 24.2197 8.51074 24.5 7.43066C23.9941 7.28027 23.5293 7.15723 23.0781 7.00684C21.3896 6.45312 19.6875 6.49414 17.9922 6.93848C16.6182 7.29395 15.668 8.15527 15.1553 9.46777C14.8203 10.3291 14.7998 11.2451 14.793 12.1543C14.793 12.5508 14.793 12.9404 14.793 13.3643C14.0342 13.3643 13.3164 13.3643 12.5918 13.3643C12.5918 14.5264 12.5918 15.6543 12.5918 16.8232C13.3301 16.8232 14.041 16.8232 14.7861 16.8232C14.7793 20.6719 14.7793 24.4727 14.7793 28.3008Z" fill="#00E0C7"/>
</symbol><symbol viewBox="0 0 35 35" fill="none" id="svg-instagram" xmlns="http://www.w3.org/2000/svg">
<path d="M32.8809 35C22.627 35 12.373 35 2.11914 35C1.45605 34.8086 0.84082 34.5283 0.464844 33.9199C0.273438 33.5986 0.150391 33.2295 0 32.8809C0 22.627 0 12.373 0 2.11914C0.164062 1.57227 0.348633 1.01855 0.820312 0.683594C1.2168 0.40332 1.68164 0.225586 2.11914 0C12.373 0 22.627 0 32.8809 0C33.5439 0.18457 34.1592 0.47168 34.5352 1.08008C34.7334 1.40137 34.8496 1.77051 35 2.11914C35 12.373 35 22.627 35 32.8809C34.8086 33.5439 34.5283 34.1592 33.9199 34.5352C33.5986 34.7266 33.2295 34.8496 32.8809 35ZM17.5273 7.39648C17.5273 7.4375 17.5273 7.47852 17.5273 7.51953C16.0781 7.51953 14.6357 7.49219 13.1865 7.52637C12.0244 7.55371 10.9033 7.82715 9.91895 8.49023C8.27832 9.59766 7.57422 11.2314 7.5332 13.1318C7.47168 16.0439 7.49902 18.9629 7.52637 21.875C7.54004 23.0166 7.83398 24.1104 8.4834 25.0742C9.59082 26.7148 11.2246 27.4189 13.125 27.46C16.0371 27.5215 18.9561 27.5146 21.8682 27.46C23.4814 27.4326 24.9307 26.8994 26.0449 25.6553C27.0293 24.5547 27.4326 23.2285 27.46 21.793C27.5146 19.4004 27.5215 17.0078 27.5215 14.6152C27.5215 13.9111 27.4668 13.2002 27.3984 12.5029C27.125 9.78906 25.1836 7.82031 22.4629 7.59473C20.8359 7.46484 19.1816 7.45801 17.5273 7.39648Z" fill="#00E0C7"/>
<path d="M25.7715 17.493C25.7305 19.0174 25.7236 20.5487 25.6348 22.0663C25.5117 24.1649 24.1787 25.5663 22.0801 25.621C19.0449 25.703 16.0029 25.703 12.9609 25.621C10.8145 25.5663 9.44044 24.1923 9.37892 22.0321C9.29689 18.9833 9.32423 15.9276 9.37892 12.8788C9.40626 11.5594 10.0078 10.4657 11.2315 9.81628C11.9219 9.45397 12.6807 9.31725 13.4463 9.31725C16.3174 9.31725 19.1885 9.28307 22.0527 9.37194C24.1787 9.4403 25.4707 10.8143 25.6348 12.9403C25.6553 13.1659 25.6826 13.3915 25.6826 13.6239C25.6895 14.909 25.6826 16.201 25.6826 17.4862C25.7168 17.4862 25.7441 17.493 25.7715 17.493ZM22.6543 17.4862C22.6475 14.6356 20.3506 12.3456 17.5 12.3456C14.6426 12.3387 12.332 14.6561 12.3389 17.5135C12.3457 20.3641 14.6426 22.6542 17.4932 22.661C20.3506 22.661 22.668 20.3436 22.6543 17.4862ZM24.0625 12.12C24.0557 11.4637 23.5225 10.9374 22.8662 10.9305C22.1895 10.9305 21.6563 11.4706 21.6631 12.1473C21.6699 12.8241 22.21 13.3436 22.8936 13.3299C23.5498 13.3231 24.0693 12.7831 24.0625 12.12Z" fill="#00E0C7"/>
<path d="M17.5 14.1504C19.3457 14.1504 20.8428 15.6475 20.8496 17.4863C20.8564 19.3457 19.3457 20.8496 17.4863 20.8428C15.6475 20.8359 14.1504 19.332 14.1504 17.4863C14.1572 15.6543 15.6543 14.1504 17.5 14.1504Z" fill="#00E0C7"/>
</symbol>
<symbol viewBox="0 0 34 30"  id="svg-like" xmlns="http://www.w3.org/2000/svg">
<path d="M30.1498 2.9468C29.3604 2.13996 28.4232 1.49992 27.3917 1.06325C26.3601 0.626568 25.2545 0.40181 24.1379 0.40181C23.0214 0.40181 21.9157 0.626568 20.8842 1.06325C19.8527 1.49992 18.9155 2.13996 18.1261 2.9468L16.4879 4.62048L14.8498 2.9468C13.2553 1.31781 11.0928 0.402654 8.83793 0.402654C6.58306 0.402654 4.42055 1.31781 2.82611 2.9468C1.23168 4.57579 0.335938 6.78517 0.335938 9.0889C0.335937 11.3926 1.23168 13.602 2.82611 15.231L4.4643 16.9047L16.4879 29.1889L28.5116 16.9047L30.1498 15.231C30.9395 14.4246 31.5659 13.467 31.9933 12.4131C32.4208 11.3593 32.6408 10.2297 32.6408 9.0889C32.6408 7.94813 32.4208 6.81854 31.9933 5.76466C31.5659 4.71077 30.9395 3.75325 30.1498 2.9468Z" />
</symbol><symbol viewBox="0 0 35 35" fill="none" id="svg-linkedn" xmlns="http://www.w3.org/2000/svg">
<path d="M32.8809 35C22.627 35 12.373 35 2.11914 35C1.45605 34.8086 0.84082 34.5283 0.464844 33.9199C0.273438 33.5986 0.150391 33.2295 0 32.8809C0 22.627 0 12.373 0 2.11914C0.164062 1.57227 0.348633 1.01855 0.820312 0.683594C1.2168 0.40332 1.68164 0.225586 2.11914 0C12.373 0 22.627 0 32.8809 0C33.5439 0.18457 34.1592 0.47168 34.5352 1.08008C34.7334 1.40137 34.8496 1.77051 35 2.11914C35 12.373 35 22.627 35 32.8809C34.8086 33.5439 34.5283 34.1592 33.9199 34.5352C33.5986 34.7266 33.2295 34.8496 32.8809 35ZM19.0312 13.6719C17.5752 13.6719 16.1807 13.6719 14.7998 13.6719C14.7998 17.958 14.7998 22.2031 14.7998 26.4277C16.2217 26.4277 17.6162 26.4277 19.0312 26.4277C19.0312 25.3203 19.0312 24.2402 19.0312 23.1602C19.0381 21.7246 19.0312 20.2891 19.0654 18.8535C19.0859 18.0537 19.5166 17.4521 20.1729 17.0283C21.4102 16.2354 22.9414 16.7959 23.3311 18.2109C23.4609 18.6826 23.5088 19.1953 23.5088 19.6943C23.5293 21.8271 23.5156 23.9531 23.5156 26.0859C23.5156 26.2021 23.5156 26.3252 23.5156 26.4277C24.9648 26.4277 26.3594 26.4277 27.7607 26.4277C27.7676 26.332 27.7744 26.2637 27.7744 26.1953C27.7744 23.8027 27.8018 21.4102 27.7539 19.0176C27.7402 18.2109 27.624 17.377 27.3984 16.5977C26.8857 14.8271 25.6895 13.7129 23.8506 13.4121C21.957 13.0977 20.3232 13.5557 19.1748 15.2236C19.1475 15.2646 19.1064 15.2852 19.0176 15.3672C19.0312 14.7588 19.0312 14.2188 19.0312 13.6719ZM12.4004 26.4414C12.4072 26.3525 12.4209 26.2842 12.4209 26.2158C12.4209 22.1143 12.4209 18.0127 12.4277 13.9111C12.4277 13.6514 12.3252 13.6172 12.0996 13.6172C10.8896 13.624 9.68652 13.6172 8.47656 13.624C8.37402 13.624 8.27832 13.6377 8.16895 13.6445C8.16895 17.9238 8.16895 22.1758 8.16895 26.4414C9.58398 26.4414 10.9717 26.4414 12.4004 26.4414ZM10.3223 7.45117C9.20117 7.45117 8.30566 8.03223 8.00488 8.96191C7.58105 10.2949 8.3877 11.6143 9.77539 11.833C11.0605 12.0381 12.1748 11.4844 12.5508 10.4453C13.1182 8.93457 12.0176 7.45801 10.3223 7.45117Z" fill="#00E0C7"/>
</symbol><symbol viewBox="0 0 28 40"  id="svg-location" xmlns="http://www.w3.org/2000/svg">
<path d="M13.8215 0.55481C6.38627 0.55481 0.337158 6.60746 0.337158 14.047C0.337158 23.3977 13.8347 39.3706 13.8347 39.3706C13.8347 39.3706 27.3058 22.9379 27.3058 14.047C27.3058 6.60746 21.2569 0.55481 13.8215 0.55481ZM17.8899 17.9975C16.7681 19.1198 15.2949 19.681 13.8215 19.681C12.3482 19.681 10.8746 19.1198 9.7532 17.9975C7.50976 15.753 7.50976 12.1008 9.7532 9.85601C10.8395 8.76858 12.2846 8.16966 13.8215 8.16966C15.3584 8.16966 16.8032 8.76882 17.8899 9.85601C20.1334 12.1008 20.1334 15.753 17.8899 17.9975Z" />
</symbol>
<symbol viewBox="0 0 20 20" fill="none" id="svg-night" xmlns="http://www.w3.org/2000/svg">
<g clip-path="url(#kclip0_10_10500)">
<path d="M10.373 19.9998C10.1938 19.8915 10.1438 19.7248 10.1438 19.5206C10.148 18.5162 10.148 17.5076 10.148 16.5033C10.148 16.4449 10.148 16.3866 10.148 16.3032C10.373 16.3157 10.5814 16.3241 10.8023 16.3366C10.8064 16.3991 10.8148 16.4491 10.8148 16.4991C10.8148 17.516 10.8106 18.537 10.8189 19.5539C10.8189 19.7581 10.7606 19.9081 10.5731 19.9957C10.5022 19.9998 10.4397 19.9998 10.373 19.9998Z" fill="#00E0C7"/>
<path d="M10.1352 4.42163C10.1352 8.15157 10.1352 11.8773 10.1352 15.6031C7.83056 15.4281 5.40506 13.4027 5.18001 10.4687C4.92996 7.1597 7.45131 4.68002 10.1352 4.42163Z" fill="#00E0C7"/>
<path d="M14.4321 4.40932C12.24 5.98881 11.99 8.58102 12.6984 10.198C13.1819 11.3024 13.9654 12.1234 15.0656 12.6194C16.1575 13.1111 17.2827 13.1528 18.458 12.7902C18.0871 13.4945 17.6078 14.0613 17.0077 14.5239C15.9908 15.3074 14.8322 15.695 13.5445 15.6617C12.6026 15.6408 11.7274 15.3866 10.9231 14.899C10.8647 14.8615 10.8189 14.7573 10.8189 14.6823C10.8105 13.6863 10.8147 12.6944 10.8147 11.6983C10.8147 9.60624 10.8189 7.51413 10.8105 5.42203C10.8105 5.24699 10.8564 5.14697 11.0148 5.05529C12.0608 4.47183 13.1777 4.27596 14.3613 4.38015C14.378 4.38848 14.3988 4.39682 14.4321 4.40932Z" fill="#00E0C7"/>
<path d="M16.8703 7.44315C17.0745 7.40981 17.2787 7.37647 17.487 7.35147C17.6746 7.33063 17.7954 7.23477 17.8663 7.06391C17.9455 6.88053 18.033 6.70133 18.1372 6.48462C18.2414 6.7055 18.3331 6.8847 18.4122 7.07224C18.4831 7.23477 18.5998 7.33063 18.779 7.35147C18.9874 7.37647 19.1957 7.41398 19.4083 7.44732C19.4208 7.46816 19.4333 7.48483 19.45 7.50566C19.2874 7.65153 19.1249 7.79739 18.9624 7.94742C18.8332 8.06828 18.7873 8.20998 18.8248 8.38918C18.8665 8.59756 18.8915 8.8101 18.929 9.06015C18.7248 8.94763 18.5498 8.86011 18.3789 8.75592C18.2164 8.66007 18.0663 8.6559 17.9038 8.75176C17.7329 8.85178 17.5537 8.94346 17.3495 9.05599C17.387 8.81427 17.412 8.60173 17.4579 8.39752C17.4996 8.21415 17.4495 8.06411 17.3162 7.93909C17.1578 7.79322 16.9953 7.6557 16.8369 7.514C16.8411 7.48899 16.8536 7.46816 16.8703 7.44315Z" fill="#00E0C7"/>
<path d="M10.7981 3.69245C10.5814 3.70495 10.3771 3.71745 10.1604 3.72579C10.1563 3.6466 10.1521 3.58409 10.1521 3.52158C10.1521 2.5172 10.1521 1.50866 10.1521 0.504283C10.1521 0.466775 10.1521 0.4251 10.1521 0.387592C10.1729 0.17088 10.3105 0.0291843 10.4938 0.0375193C10.6814 0.0416869 10.8147 0.183383 10.8147 0.404262C10.8189 1.47532 10.8147 2.54638 10.8147 3.61326C10.8106 3.6341 10.8022 3.65494 10.7981 3.69245Z" fill="#00E0C7"/>
<path d="M5.86351 15.3283C5.78433 15.4533 5.74682 15.5533 5.67598 15.6242C5.04251 16.266 4.40071 16.9036 3.76308 17.5412C3.60054 17.7038 3.4005 17.7163 3.26297 17.5871C3.11294 17.4454 3.12544 17.2453 3.29631 17.0745C3.93395 16.4368 4.57158 15.7992 5.21338 15.1616C5.3259 15.049 5.46343 14.9657 5.61346 15.0574C5.70932 15.1116 5.77183 15.2283 5.86351 15.3283Z" fill="#00E0C7"/>
<path d="M2.16283 10.3521C1.76691 10.3521 1.371 10.3521 0.975082 10.3521C0.895899 10.3521 0.816715 10.3479 0.7417 10.3313C0.583334 10.2896 0.50415 10.1771 0.50415 10.0187C0.50415 9.85616 0.587501 9.7478 0.745867 9.71029C0.820883 9.69362 0.900066 9.68945 0.979249 9.68945C1.76691 9.68945 2.55041 9.68945 3.33807 9.68945C3.37558 9.68945 3.41726 9.68945 3.45477 9.68945C3.67981 9.70612 3.81734 9.82698 3.82151 10.0145C3.82568 10.2104 3.68398 10.3479 3.4506 10.3521C3.02134 10.3563 2.59209 10.3521 2.16283 10.3521Z" fill="#00E0C7"/>
<path d="M3.47136 2.32568C3.59638 2.4007 3.70057 2.43821 3.77559 2.51322C4.41322 3.14252 5.04668 3.77599 5.67598 4.40945C5.84685 4.58032 5.85935 4.78453 5.71349 4.92623C5.56763 5.06792 5.38425 5.05959 5.21339 4.88872C4.57575 4.25109 3.93812 3.61345 3.30049 2.97582C3.18796 2.8633 3.11295 2.7216 3.20463 2.57574C3.25881 2.47988 3.37134 2.41737 3.47136 2.32568Z" fill="#00E0C7"/>
</g>
<defs>
<clipPath id="kclip0_10_10500">
<rect width="20" height="20" fill="white"/>
</clipPath>
</defs>
</symbol>
<symbol viewBox="0 0 31 31" fill="none" id="svg-share" xmlns="http://www.w3.org/2000/svg">
<path d="M11.0955 17.4501L19.9175 22.5909"  stroke-width="2" stroke-linecap="round" stroke-linejoin="round"/>
<path d="M19.9046 8.40845L11.0955 13.5493"  stroke-width="2" stroke-linecap="round" stroke-linejoin="round"/>
<path d="M23.25 10.3333C25.3901 10.3333 27.125 8.59844 27.125 6.45834C27.125 4.31823 25.3901 2.58334 23.25 2.58334C21.1099 2.58334 19.375 4.31823 19.375 6.45834C19.375 8.59844 21.1099 10.3333 23.25 10.3333Z"  stroke-width="2" stroke-linecap="round" stroke-linejoin="round"/>
<path d="M7.75 19.375C9.8901 19.375 11.625 17.6401 11.625 15.5C11.625 13.3599 9.8901 11.625 7.75 11.625C5.6099 11.625 3.875 13.3599 3.875 15.5C3.875 17.6401 5.6099 19.375 7.75 19.375Z"  stroke-width="2" stroke-linecap="round" stroke-linejoin="round"/>
<path d="M23.25 28.4167C25.3901 28.4167 27.125 26.6818 27.125 24.5417C27.125 22.4016 25.3901 20.6667 23.25 20.6667C21.1099 20.6667 19.375 22.4016 19.375 24.5417C19.375 26.6818 21.1099 28.4167 23.25 28.4167Z"  stroke-width="2" stroke-linecap="round" stroke-linejoin="round"/>
</symbol>
<symbol viewBox="0 0 30 16" fill="none" id="svg-slider-arrow" xmlns="http://www.w3.org/2000/svg">
<path d="M29.7071 8.70711C30.0976 8.31658 30.0976 7.68342 29.7071 7.29289L23.3431 0.928932C22.9526 0.538408 22.3195 0.538408 21.9289 0.928932C21.5384 1.31946 21.5384 1.95262 21.9289 2.34315L27.5858 8L21.9289 13.6569C21.5384 14.0474 21.5384 14.6805 21.9289 15.0711C22.3195 15.4616 22.9526 15.4616 23.3431 15.0711L29.7071 8.70711ZM0 9H29V7H0V9Z" fill="#2A3950"/>
</symbol><symbol viewBox="0 0 22 21" fill="none" id="svg-star" xmlns="http://www.w3.org/2000/svg">
<g filter="url(#nfilter0_d_14_17)">
<path d="M11 0L14.2916 5.4695L20.5106 6.90983L16.3259 11.7305L16.8779 18.0902L11 15.6L5.12215 18.0902L5.67408 11.7305L1.48944 6.90983L7.7084 5.4695L11 0Z" fill="#F1E044"/>
</g>
<defs>
<filter id="nfilter0_d_14_17" x="0.489502" y="0" width="21.021" height="20.0901" filterUnits="userSpaceOnUse" color-interpolation-filters="sRGB">
<feFlood flood-opacity="0" result="BackgroundImageFix"/>
<feColorMatrix in="SourceAlpha" type="matrix" values="0 0 0 0 0 0 0 0 0 0 0 0 0 0 0 0 0 0 127 0" result="hardAlpha"/>
<feOffset dy="1"/>
<feGaussianBlur stdDeviation="0.5"/>
<feComposite in2="hardAlpha" operator="out"/>
<feColorMatrix type="matrix" values="0 0 0 0 0 0 0 0 0 0 0 0 0 0 0 0 0 0 0.3 0"/>
<feBlend mode="normal" in2="BackgroundImageFix" result="effect1_dropShadow_14_17"/>
<feBlend mode="normal" in="SourceGraphic" in2="effect1_dropShadow_14_17" result="shape"/>
</filter>
</defs>
</symbol><symbol viewBox="0 0 35 35" fill="none" id="svg-trip" xmlns="http://www.w3.org/2000/svg">
<path d="M11.5289 34.9998C11.5009 34.9788 11.4799 34.9508 11.4449 34.9438C10.3179 34.5518 9.89789 33.5788 10.3949 32.5008C11.2139 30.7298 12.0329 28.9588 12.8589 27.1878C12.9639 26.9638 13.0479 26.7188 13.1739 26.5088C13.5729 25.8788 13.6079 25.1998 13.5589 24.4858C13.4539 22.8758 13.3839 21.2658 13.2999 19.6488C13.2929 19.5578 13.3069 19.4668 13.2999 19.3758C13.2789 19.0048 13.3909 18.7388 13.7269 18.4938C14.4549 17.9688 14.8609 17.1988 14.8539 16.3028C14.8469 15.4418 15.1059 14.7628 15.7569 14.1888C16.2819 13.7268 16.7159 13.1528 17.2059 12.6488C18.0739 11.7598 18.3959 10.7168 17.9969 9.52682C17.5909 8.32982 16.6879 7.71382 15.4279 7.54582C15.4139 7.41282 15.3929 7.26582 15.3719 7.06982C16.0229 7.10482 16.6529 7.13982 17.2829 7.18182C18.1089 7.23782 18.9349 7.30782 19.7679 7.35682C21.0419 7.44082 21.8959 8.39982 21.7769 9.65982C21.7419 9.99582 21.8259 10.2408 22.0499 10.4788C22.5189 10.9898 22.9529 11.5288 23.4219 12.0398C23.5479 12.1798 23.7369 12.2988 23.9189 12.3478C25.1929 12.6838 26.4739 12.9918 27.7479 13.3278C28.4409 13.5098 28.8749 14.1048 28.8259 14.7558C28.7769 15.4558 28.2799 15.9878 27.5729 16.0648C27.3769 16.0858 27.1669 16.0508 26.9709 16.0018C25.5289 15.6448 24.0799 15.3088 22.6519 14.9028C22.2389 14.7838 21.8819 14.4758 21.4899 14.2518C21.4759 14.4478 21.4479 14.7278 21.4269 15.0148C21.3149 16.6808 21.2029 18.3468 21.0909 20.0128C21.0839 20.1668 21.1049 20.3278 21.1539 20.4748C21.4969 21.5108 21.8189 22.5538 22.2039 23.5688C22.5189 24.4018 22.6379 25.2558 22.7149 26.1308C22.9039 28.4198 23.1069 30.7018 23.3099 32.9908C23.4009 33.9918 23.0369 34.5518 21.9659 34.9928C21.7629 34.9928 21.5599 34.9928 21.3499 34.9928C20.6009 34.7548 20.0689 34.2998 19.9919 33.4738C19.7959 31.3458 19.6279 29.2178 19.4319 27.0968C19.3689 26.3968 19.3339 25.6828 19.1379 25.0178C18.6689 23.4568 18.1159 21.9168 17.5909 20.3698C17.4159 19.8588 17.2549 19.7678 16.6809 19.9078C16.7719 21.7628 16.8559 23.6248 16.9679 25.4868C16.9959 25.9628 16.9259 26.4038 16.7229 26.8378C15.6729 29.0778 14.6229 31.3178 13.6079 33.5718C13.3069 34.2368 12.9359 34.7688 12.2149 34.9998C11.9839 34.9998 11.7599 34.9998 11.5289 34.9998Z" fill="#006270"/>
<path d="M7.65799 17.4649C6.98599 17.3039 6.46099 16.8839 6.22299 16.1769C5.99199 15.4769 6.05499 14.7629 6.36299 14.0839C6.57299 13.6359 6.92999 13.3139 7.39199 13.1389C7.60899 13.0549 7.67899 12.9359 7.69299 12.7189C7.78399 11.2139 7.88199 9.70186 7.98699 8.19686C8.01499 7.81186 8.02199 7.41986 8.10599 7.04886C8.34399 6.01986 9.30299 5.36886 10.353 5.48786C11.13 5.57886 11.914 5.65586 12.691 5.72586C13.811 5.83086 14.609 6.69886 14.602 7.81886C14.602 8.57486 14.602 8.57486 13.874 8.81286C12.95 9.12086 12.026 9.44286 11.102 9.74386C10.661 9.88386 10.353 10.1639 10.178 10.5839C9.40799 12.4249 8.62399 14.2589 7.88199 16.1139C7.72799 16.5269 7.73499 16.9959 7.65799 17.4649Z" fill="#006270"/>
<path d="M15.0569 13.6639C15.0919 13.1249 15.1059 12.5859 15.1759 12.0539C15.1969 11.9209 15.3929 11.8089 15.5189 11.6969C15.6379 11.5849 15.7709 11.4799 15.8549 11.3189C15.4069 11.5569 14.9799 11.8369 14.5109 12.0189C13.5239 12.4039 12.9569 13.0899 12.6139 14.0909C12.2219 15.2599 11.6899 16.3799 11.1999 17.5139C10.9199 18.1579 10.2479 18.4799 9.6039 18.3119C8.9389 18.1439 8.4839 17.5489 8.5329 16.8839C8.5469 16.6879 8.6099 16.4849 8.6869 16.2959C9.3729 14.6439 10.0729 12.9919 10.7589 11.3329C10.9339 10.9129 11.2069 10.6119 11.6129 10.4089C12.5999 9.89788 13.5939 9.38688 14.5529 8.83388C15.4419 8.31588 16.1979 8.51888 16.6179 8.87588C17.2479 9.41488 17.4999 10.3809 17.2199 11.1789C17.1639 11.3259 17.0939 11.4729 17.0169 11.6059C16.9329 11.7389 16.8279 11.8649 16.7229 11.9769C16.1979 12.5509 15.6659 13.1179 15.1339 13.6919C15.1059 13.6779 15.0849 13.6709 15.0569 13.6639Z" fill="#006270"/>
<path d="M15.6731 3.1429C15.6731 1.4419 17.0241 0.0769043 18.7111 0.0769043C20.4051 0.0769043 21.7701 1.4279 21.7771 3.1219C21.7841 4.8159 20.4331 6.1809 18.7391 6.1949C17.0591 6.1949 15.6801 4.8229 15.6731 3.1429Z" fill="#006270"/>
<path d="M14.2798 12.8308C14.2448 13.4118 14.2098 13.9998 14.1748 14.5808C14.1398 15.1478 14.0908 15.7148 14.0558 16.2818C13.9788 17.4998 12.9638 18.4098 11.7388 18.3328C11.9418 17.8708 12.1518 17.4088 12.3408 16.9468C12.8658 15.7008 13.3768 14.4548 13.9088 13.2158C13.9718 13.0618 14.0908 12.9288 14.1818 12.7888C14.2098 12.8028 14.2448 12.8168 14.2798 12.8308Z" fill="#006270"/>
</symbol><symbol viewBox="0 0 35 35" fill="none" id="svg-twitter" xmlns="http://www.w3.org/2000/svg">
<path d="M0 32.8809C0 22.627 0 12.373 0 2.11914C0.164062 1.57227 0.348633 1.01855 0.820312 0.683594C1.2168 0.40332 1.68164 0.225586 2.11914 0C12.373 0 22.627 0 32.8809 0C33.5439 0.18457 34.1592 0.47168 34.5352 1.08008C34.7334 1.40137 34.8496 1.77051 35 2.11914C35 12.373 35 22.627 35 32.8809C34.8086 33.5439 34.5283 34.1592 33.9199 34.5352C33.5986 34.7334 33.2295 34.8496 32.8809 35C22.627 35 12.373 35 2.11914 35C1.45605 34.8086 0.84082 34.5283 0.464844 33.9199C0.273438 33.5986 0.150391 33.2295 0 32.8809ZM13.8359 22.1416C12.0723 23.4609 10.165 23.9805 7.96387 23.8027C8.14844 23.9189 8.24414 23.9873 8.34668 24.0488C10.9512 25.5391 13.7402 25.9287 16.6592 25.3135C22.2236 24.1377 25.416 19.0791 25.4844 14.3418C25.4912 13.8428 25.6006 13.5078 26.0176 13.207C26.5781 12.7969 27.0293 12.25 27.4463 11.6143C27.043 11.7441 26.7148 11.8672 26.3799 11.9629C26.0449 12.0518 25.6963 12.1133 25.3545 12.1885C26.0723 11.6006 26.6191 10.9307 26.8994 10.1035C26.1816 10.3633 25.4639 10.6162 24.7529 10.876C24.5137 10.9648 24.3496 10.9033 24.1514 10.7324C22.9551 9.67969 21.5674 9.39941 20.0771 9.94629C18.5732 10.5 17.6982 11.6279 17.4932 13.2207C17.4316 13.6719 17.4863 14.1367 17.4863 14.6152C14.1709 14.376 11.4434 12.9746 9.27637 10.4316C8.74316 11.3682 8.62012 12.3252 8.83203 13.3301C9.05078 14.3281 9.61816 15.1074 10.4248 15.7363C10.4043 15.7705 10.3838 15.7979 10.3633 15.832C9.81641 15.6748 9.2627 15.5176 8.70215 15.3604C8.72266 16.2764 8.99609 17.0967 9.57031 17.8213C10.1377 18.5459 10.8896 19.0039 11.7783 19.25C11.7715 19.2842 11.7646 19.3115 11.7646 19.3457C11.2314 19.3457 10.6914 19.3457 10.1035 19.3457C10.7734 21.0479 11.9834 21.957 13.8359 22.1416Z" fill="#00E0C7"/>
</symbol><symbol viewBox="0 0 25 25" fill="none" id="svg-two_direction" xmlns="http://www.w3.org/2000/svg">
<g clip-path="url(#qclip0_3_6357)">
<path d="M0 6.6251C0.12 6.2701 0.37 6.0101 0.63 5.7501C2.39 4.0001 4.145 2.2401 5.9 0.480102C6.24 0.140102 6.62 -0.039898 7.105 0.095102C7.88 0.310102 8.19 1.2401 7.69 1.8751C7.62 1.9651 7.54 2.0451 7.46 2.1251C6.345 3.2401 5.235 4.3551 4.12 5.4651C4.055 5.5301 3.98 5.5801 3.91 5.6351C3.92 5.6601 3.925 5.6851 3.935 5.7151C4.03 5.7151 4.13 5.7151 4.225 5.7151C9.625 5.7151 15.025 5.7151 20.425 5.7151C21.515 5.7151 22.6 5.7101 23.69 5.7151C24.285 5.7151 24.705 5.9901 24.875 6.4701C25.11 7.1351 24.705 7.8351 24 7.9601C23.865 7.9851 23.725 7.9851 23.59 7.9851C17.135 7.9851 10.68 7.9851 4.225 7.9851C4.13 7.9851 4.035 7.9851 3.89 7.9851C3.98 8.0801 4.035 8.1451 4.095 8.2051C5.245 9.3551 6.395 10.5001 7.54 11.6501C8.09 12.2051 8.065 12.9751 7.485 13.4151C7.085 13.7201 6.53 13.7251 6.125 13.4201C6.02 13.3401 5.93 13.2501 5.835 13.1601C4.095 11.4201 2.35 9.6751 0.605 7.9301C0.35 7.6751 0.11 7.4201 0 7.0651C0 6.9201 0 6.7751 0 6.6251Z" fill="#2A3950"/>
<path d="M17.935 25.0001C17.71 24.8501 17.44 24.7451 17.265 24.5501C16.91 24.1551 16.93 23.5751 17.27 23.1651C17.415 22.9901 17.58 22.8351 17.74 22.6751C18.77 21.6401 19.805 20.6101 20.84 19.5751C20.9 19.5151 20.96 19.4501 21.065 19.3351C20.91 19.3351 20.81 19.3351 20.71 19.3351C14.255 19.3351 7.805 19.3351 1.35 19.3351C0.945 19.3351 0.565 19.2801 0.295 18.9451C0.17 18.7901 0.095 18.6001 0 18.4251C0 18.2801 0 18.1351 0 17.9851C0.225 17.2851 0.725 17.0551 1.435 17.0551C7.865 17.0651 14.295 17.0601 20.725 17.0601C20.82 17.0601 20.915 17.0601 21.06 17.0601C20.97 16.9601 20.915 16.9001 20.855 16.8401C19.705 15.6901 18.555 14.5451 17.41 13.3951C16.875 12.8551 16.885 12.1051 17.425 11.6601C17.84 11.3201 18.415 11.3101 18.84 11.6401C18.93 11.7101 19.01 11.7901 19.09 11.8701C20.885 13.6651 22.685 15.4651 24.48 17.2601C25.11 17.8901 25.11 18.5101 24.48 19.1401C22.73 20.8901 20.975 22.6401 19.23 24.3951C18.975 24.6501 18.72 24.8901 18.37 25.0051C18.225 25.0001 18.08 25.0001 17.935 25.0001Z" fill="#2A3950"/>
</g>
<defs>
<clipPath id="qclip0_3_6357">
<rect width="25" height="25" fill="white"/>
</clipPath>
</defs>
</symbol><symbol viewBox="0 0 35 35" fill="none" id="svg-youtube" xmlns="http://www.w3.org/2000/svg">
<path d="M0 32.8809C0 22.627 0 12.373 0 2.11914C0.164062 1.57227 0.348633 1.01855 0.820312 0.683594C1.2168 0.40332 1.68164 0.225586 2.11914 0C12.373 0 22.627 0 32.8809 0C33.5439 0.18457 34.1592 0.47168 34.5352 1.08008C34.7334 1.40137 34.8496 1.77051 35 2.11914C35 12.373 35 22.627 35 32.8809C34.8086 33.5439 34.5283 34.1592 33.9199 34.5352C33.5986 34.7334 33.2295 34.8496 32.8809 35C22.627 35 12.373 35 2.11914 35C1.45605 34.8086 0.84082 34.5283 0.464844 33.9199C0.273438 33.5986 0.150391 33.2295 0 32.8809ZM17.0557 9.76172C17.0557 9.78906 17.0557 9.81641 17.0488 9.84375C16.9258 9.84375 16.7959 9.83691 16.6729 9.84375C14.2871 9.95312 11.8945 10.0352 9.50879 10.1992C8.12793 10.2949 7.19824 11.1426 6.96582 12.5098C6.76074 13.6924 6.6582 14.9023 6.59668 16.1055C6.49414 18.2725 6.53516 20.4326 6.97266 22.5654C7.21875 23.7822 8.00488 24.5479 9.23535 24.7324C10.3906 24.9033 11.5664 24.9922 12.7354 25.0469C16.8369 25.2246 20.9316 25.2246 25.0264 24.876C26.9951 24.7051 27.877 23.8779 28.1436 21.9434C28.4102 20.0088 28.499 18.0605 28.3896 16.1123C28.3213 14.8682 28.2051 13.6104 27.9932 12.3867C27.7949 11.2451 27.0156 10.541 25.874 10.2812C25.5322 10.1992 25.1768 10.1445 24.8281 10.1309C22.2441 9.99414 19.6533 9.87793 17.0557 9.76172Z" fill="#00E0C7"/>
<path d="M15.3467 14.2322C17.2471 15.3259 19.0996 16.3992 21.0137 17.4998C19.0996 18.6004 17.2402 19.6736 15.3467 20.7673C15.3467 18.5798 15.3467 16.4334 15.3467 14.2322Z" fill="#00E0C7"/>
</symbol></svg>