<svg width="900" height="329" viewBox="0 0 900 329" fill="none" xmlns="http://www.w3.org/2000/svg">
<g opacity="0.2">
<path d="M1.04297 164.709C1.04297 166.172 1.25156 167.426 1.66875 168.472" stroke="#127E76" stroke-width="2" stroke-miterlimit="10" stroke-linecap="round"/>
<path  d="M6.25781 174.951C12.0984 179.968 22.1108 182.058 30.4545 182.267C135.585 184.775 253.648 140.881 311.429 83.3997C352.521 42.6405 349.601 11.7053 338.337 3.55345C325.404 -5.85252 263.244 8.98801 232.789 68.3501C202.335 127.712 240.507 180.386 268.876 193.136C297.244 205.886 329.993 205.259 360.031 198.362C465.161 173.697 540.046 76.92 642.673 43.4766C660.612 37.624 680.22 33.8616 698.576 38.251C716.932 42.6405 734.037 57.272 736.54 76.0839C738.626 91.5515 730.908 106.392 722.773 119.56C688.564 174.533 639.544 220.1 612.636 278.835C607.63 289.704 603.458 302.663 608.881 313.323C616.599 328.373 637.25 329.418 653.937 326.91C741.129 314.16 805.793 276.745 891.316 228.252" stroke="#127E76" stroke-width="2" stroke-miterlimit="10" stroke-linecap="round" stroke-dasharray="3.76 3.76"/>
<path d="M894.862 226.37C895.905 225.743 897.156 225.116 898.199 224.489" stroke="#127E76" stroke-width="2" stroke-miterlimit="10" stroke-linecap="round"/>
</g>
</svg>
