<svg width="1920" height="1005" viewBox="0 0 1920 1005" fill="none" xmlns="http://www.w3.org/2000/svg">
<g clip-path="url(#clip0_3_5533)">
<g opacity="0.25">
<path opacity="0.25" d="M20.1236 444.23C48.4568 443.297 75.5446 430.224 102.632 422.443C135.013 413.105 167.705 404.079 200.086 394.742C213.163 391.007 226.551 387.272 239.94 386.96C258.309 386.649 276.057 392.252 293.181 397.854C360.434 419.953 427.686 441.74 494.627 463.839C523.583 473.177 552.85 482.825 583.363 482.203C615.121 481.58 645.634 469.753 675.213 458.237C721.293 440.184 767.373 422.132 813.454 404.079C828.087 398.477 842.721 392.563 858.289 391.629C875.102 390.695 891.604 395.364 907.483 400.033C987.189 423.065 1066.58 446.409 1146.29 469.442C1174.31 477.534 1202.96 485.627 1231.91 482.514C1253.4 480.024 1273.32 471.309 1293.25 462.594C1367.98 429.913 1442.7 397.232 1517.43 364.55C1529.26 359.57 1541.09 354.279 1553.85 353.345C1566.62 352.411 1579.38 356.146 1591.84 359.57C1760.9 405.635 1946.16 393.185 2104.64 468.197C2125.81 478.157 2146.98 490.295 2159.44 509.904C2171.89 529.513 2173.14 558.148 2156.01 574.022C2144.18 584.916 2127.06 587.406 2110.87 589.273C2036.76 597.988 1964.22 606.703 1892.3 623.822C1813.21 642.497 1719.81 637.206 1638.85 640.318C1467.3 646.855 1295.43 644.987 1124.19 635.027C1100.21 633.471 1076.24 631.915 1052.26 630.358C798.197 611.994 544.444 575.267 289.756 580.558C182.65 582.737 73.3651 592.074 -30.3158 564.373" fill="url(#paint0_linear_3_5533)"/>
</g>
<path d="M-72.3486 489.673C-41.8359 465.084 -6.96428 444.23 31.6436 438.316C70.5629 432.091 109.793 441.117 148.401 448.899C234.335 466.018 322.76 475.355 410.25 470.998C491.825 466.951 561.257 439.872 639.407 419.33C648.436 416.84 657.777 414.35 667.429 415.284C682.685 416.529 696.073 426.177 709.15 434.27C776.714 477.534 857.354 494.653 935.816 511.149C966.017 517.374 996.841 523.91 1027.67 520.175C1052.26 517.374 1075.61 508.036 1098.65 498.388C1155.63 474.421 1211.36 447.654 1265.85 418.396C1299.48 400.344 1352.72 365.172 1390.08 358.636C1407.21 355.524 1424.33 362.371 1440.52 368.596C1670.61 456.68 1929.35 457.303 2153.21 560.327C2177.18 571.532 2202.4 585.227 2214.55 608.57C2181.54 621.643 2145.43 625.067 2109.93 626.934C1861.16 640.318 1612.08 593.008 1363.62 608.882C1219.46 618.219 1077.17 648.722 932.702 654.947C652.483 667.397 372.888 588.339 93.2917 611.683" fill="url(#paint1_linear_3_5533)"/>
<path d="M1151.27 552.857C1131.35 553.168 1111.73 553.48 1091.8 554.413C1058.49 555.658 1024.55 557.837 991.548 553.791C967.574 550.99 943.911 544.765 920.248 538.54C878.838 527.646 830.889 504.302 818.747 506.481C806.604 508.659 728.143 544.142 708.216 544.142C688.289 544.142 595.506 508.659 558.766 499.322C462.246 475.044 364.792 452.946 273.877 412.172C234.646 394.43 195.416 374.822 153.072 367.04C127.852 362.372 101.387 362.06 78.6581 350.233C64.0244 342.763 52.193 330.935 39.4275 320.664C15.4532 301.366 -12.5687 286.426 -42.1473 277.4C-46.8176 275.844 -51.7993 274.599 -56.4696 275.844C-62.074 277.089 -66.4329 281.446 -70.1692 285.493C-172.916 393.185 -275.04 506.792 -352.567 634.716C-356.615 641.252 -360.662 649.656 -356.926 656.504C-353.813 661.795 -347.586 663.662 -341.67 664.907C-214.637 693.854 -81.6892 678.602 46.5886 701.635C112.907 713.774 177.046 735.873 243.053 750.501C347.045 773.534 454.151 777.58 560.945 778.203C852.373 780.07 1144.11 757.349 1431.8 710.35C1460.45 705.681 1490.34 696.032 1519.29 694.165C1544.2 692.609 1566 698.834 1589.97 686.072C1609.9 675.49 1624.22 650.279 1614.88 629.736C1610.52 620.398 1602.42 613.551 1593.71 607.948C1569.42 592.697 1540.47 586.783 1512.44 581.803C1392.88 561.572 1271.77 551.612 1151.27 552.857Z" fill="url(#paint2_linear_3_5533)"/>
<path d="M2147.92 608.571H-139.601V1048.37H2147.92V608.571Z" fill="url(#paint3_linear_3_5533)"/>
<path d="M1145.98 742.097C1145.98 728.714 985.632 731.826 971.932 732.76C961.035 733.382 949.203 734.005 940.485 727.78C1000.27 714.396 1062.85 724.667 1123.56 715.019C1102.39 707.549 1079.66 707.86 1057.24 707.549C988.123 707.237 919.002 702.88 850.504 695.098C865.76 686.072 884.13 684.516 901.878 683.894C943.599 682.96 928.031 668.953 878.837 670.198C843.966 671.132 808.471 673.933 775.156 663.973C790.413 662.106 805.669 661.483 820.925 660.861C898.453 657.748 975.668 654.325 1053.2 651.212C946.712 639.696 838.984 642.186 731.878 644.676C702.611 645.298 673.344 646.232 644.388 648.722L647.501 648.1C630.066 647.788 612.318 647.477 595.505 651.835C588.655 653.702 581.806 656.503 575.267 660.238C566.238 663.04 557.52 666.775 549.425 671.443L565.304 667.708C564.992 668.02 564.37 668.642 564.058 668.953C560.322 672.688 558.143 677.98 554.718 681.715C550.67 686.072 545.377 687.629 539.773 690.119C512.374 701.946 485.909 715.33 459.755 729.647C407.447 758.594 357.319 791.897 308.125 825.824C303.766 828.936 299.407 832.049 295.048 835.161C274.188 849.479 252.393 865.975 244.92 889.941C243.052 895.855 242.43 902.08 244.609 907.683C248.034 915.775 256.441 919.821 264.536 923.245C376.935 969.622 806.915 938.808 806.915 931.96C806.915 925.113 572.154 916.709 572.154 900.524C572.154 895.855 652.172 897.1 652.172 891.498C652.172 885.895 552.85 885.584 552.85 880.604C552.85 875.624 705.724 874.068 705.724 866.909C705.724 859.75 597.373 861.306 597.373 855.393C597.373 849.479 775.156 851.346 775.468 846.055C775.779 840.764 626.329 831.738 626.329 826.758C626.329 821.778 982.207 822.711 982.207 815.553C982.207 808.394 781.695 805.281 781.695 799.056C781.695 792.831 845.211 795.632 845.211 790.03C845.211 784.427 803.49 783.182 803.49 777.58C803.49 771.977 1011.79 775.712 1011.79 769.176C1011.79 762.64 925.54 754.859 882.574 747.7C970.375 745.832 1145.98 747.389 1145.98 742.097Z" fill="url(#paint4_linear_3_5533)"/>
<path d="M1258.69 577.446C1151.9 578.691 1044.48 581.803 939.863 603.28C928.032 605.77 920.871 605.77 909.039 608.571C909.039 612.617 937.372 616.975 941.731 617.286C1025.49 622.577 1081.84 623.511 1165.59 619.465C1183.03 618.531 1383.54 622.266 1383.54 627.868C1383.54 632.226 1367.66 630.981 1363.93 634.716C1360.19 638.451 1410.94 636.272 1410.94 640.63C1410.94 644.987 1399.73 642.497 1399.73 646.543C1399.73 650.59 1413.43 649.033 1413.43 654.013C1413.43 658.993 1259.31 674.867 1259.31 678.291C1259.31 682.026 1375.76 679.225 1375.76 683.271C1375.76 687.317 1277.68 690.741 1277.68 694.787C1277.68 698.834 1365.8 694.165 1365.8 698.211C1365.8 702.257 1305.08 703.814 1305.08 709.105C1305.08 714.396 1424.33 710.039 1424.33 714.707C1424.33 719.376 1223.82 754.547 1223.82 757.349C1223.82 760.15 1315.36 763.262 1315.36 767.309C1315.36 771.666 1256.2 771.977 1256.2 775.401C1256.2 778.514 1280.48 776.646 1292.63 777.269C1262.43 782.249 1202.02 787.54 1202.02 791.898C1202.02 796.255 1469.17 799.99 1471.34 808.083C1473.52 816.175 987.5 821.778 987.5 830.804C987.5 840.141 1228.18 835.161 1348.67 837.651C1184.9 850.101 857.666 867.843 857.666 875.313C857.666 882.783 1080.6 875.935 1192.06 879.048C1092.12 888.696 892.537 898.968 892.537 907.683C892.537 916.398 1110.17 910.795 1219.15 912.352C1164.66 922.312 1055.69 931.338 1055.69 942.543C1055.69 953.748 1471.66 953.125 1672.17 904.57C1699.57 898.034 1729.15 888.385 1745.34 865.353C1761.84 842.009 1760.9 809.639 1749.38 783.183C1737.86 757.037 1717.63 735.561 1697.39 715.641C1643.52 662.728 1580.63 612.306 1505.9 600.79C1451.11 592.386 1394.75 605.458 1340.26 596.121" fill="url(#paint5_linear_3_5533)"/>
<path d="M1273.55 711.633C1273.55 711.633 1269.81 712.255 1264.21 712.877C1258.6 713.498 1251.13 714.12 1243.97 714.12C1236.5 714.12 1229.02 714.12 1223.73 713.499C1218.13 713.188 1214.39 712.566 1214.39 712.566C1214.39 712.566 1215.32 712.566 1216.88 712.255C1218.44 712.255 1220.93 711.944 1223.73 711.633C1229.34 711.322 1236.81 711.011 1243.97 710.7C1251.44 710.7 1258.6 710.7 1264.21 710.7C1267.01 710.7 1269.19 711.011 1271.06 711.011C1272.61 711.633 1273.55 711.633 1273.55 711.633ZM1271.06 716.297C1274.17 716.608 1278.22 716.918 1282.58 716.608C1286.62 716.608 1290.98 716.297 1293.78 715.675C1296.9 715.364 1299.08 714.742 1299.08 714.742C1299.08 714.742 1296.9 714.12 1293.78 713.809C1290.67 713.498 1286.62 713.188 1282.26 713.499C1278.22 713.499 1273.86 713.809 1271.06 714.431C1267.94 714.742 1265.76 715.364 1265.76 715.364C1265.76 715.364 1267.94 715.986 1271.06 716.297ZM1073.04 789.359C1076.15 789.67 1080.2 789.981 1084.56 789.67C1088.61 789.67 1092.97 789.359 1095.77 788.737C1098.88 788.426 1101.06 787.804 1101.06 787.804C1101.06 787.804 1098.88 787.183 1095.77 786.872C1092.65 786.561 1088.61 786.25 1084.25 786.561C1080.2 786.561 1075.84 786.872 1073.04 787.494C1069.93 787.804 1067.75 788.426 1067.75 788.426C1067.75 788.426 1069.93 789.048 1073.04 789.359ZM1007.03 818.895C1010.15 819.206 1014.2 819.517 1018.55 819.206C1022.6 819.206 1026.96 818.895 1029.76 818.273C1032.88 817.962 1035.06 817.34 1035.06 817.34C1035.06 817.34 1032.88 816.718 1029.76 816.408C1026.65 816.097 1022.6 815.786 1018.24 816.097C1014.2 816.097 1009.84 816.408 1007.03 817.029C1003.92 817.34 1001.74 817.962 1001.74 817.962C1001.74 817.962 1003.92 818.584 1007.03 818.895ZM919.235 831.331C922.348 831.642 926.396 831.953 930.755 831.642C934.802 831.642 939.161 831.331 941.963 830.709C945.077 830.398 947.256 829.776 947.256 829.776C947.256 829.776 945.077 829.155 941.963 828.844C938.85 828.533 934.802 828.222 930.443 828.533C926.396 828.533 922.037 828.844 919.235 829.466C916.121 829.776 913.942 830.398 913.942 830.398C913.942 830.398 916.121 831.02 919.235 831.331ZM950.681 920.56C953.794 920.871 957.842 921.182 962.201 920.871C966.248 920.871 970.607 920.56 973.409 919.939C976.522 919.628 978.702 919.006 978.702 919.006C978.702 919.006 976.522 918.384 973.409 918.073C970.296 917.762 966.248 917.451 961.889 917.762C957.842 917.762 953.483 918.073 950.681 918.695C947.567 919.006 945.388 919.628 945.388 919.628C945.388 919.628 947.567 920.249 950.681 920.56ZM1309.97 722.204C1313.09 722.515 1317.13 722.826 1321.49 722.515C1325.54 722.515 1329.9 722.204 1332.7 721.582C1335.82 721.271 1337.99 720.649 1337.99 720.649C1337.99 720.649 1335.82 720.027 1332.7 719.717C1329.59 719.406 1325.54 719.095 1321.18 719.406C1317.13 719.406 1312.78 719.717 1309.97 720.338C1306.86 720.649 1304.68 721.271 1304.68 721.271C1304.68 721.271 1306.86 721.893 1309.97 722.204ZM1298.14 709.457C1301.26 709.768 1305.3 710.079 1309.66 709.768C1313.71 709.768 1318.07 709.457 1320.87 708.835C1323.98 708.524 1326.16 707.902 1326.16 707.902C1326.16 707.902 1323.98 707.28 1320.87 706.97C1317.76 706.659 1313.71 706.348 1309.35 706.659C1305.3 706.659 1300.94 706.969 1298.14 707.591C1295.03 707.902 1292.85 708.524 1292.85 708.524C1292.85 708.524 1295.03 709.146 1298.14 709.457ZM1274.17 698.886C1276.35 699.197 1279.46 699.508 1282.26 699.508C1285.07 699.508 1288.18 699.197 1290.36 698.575C1292.54 698.264 1294.1 697.642 1294.1 697.642C1294.1 697.642 1292.54 697.021 1290.36 696.71C1288.18 696.399 1285.07 696.088 1282.26 696.088C1279.46 696.088 1276.35 696.399 1274.17 697.021C1271.99 697.331 1270.43 697.953 1270.43 697.953C1270.43 697.953 1271.99 698.575 1274.17 698.886ZM1299.7 690.802C1301.88 691.113 1304.99 691.424 1307.79 691.424C1310.6 691.424 1313.71 691.113 1315.89 690.492C1318.07 690.181 1319.63 689.559 1319.63 689.559C1319.63 689.559 1318.07 688.937 1315.89 688.626C1313.71 688.315 1310.6 688.004 1307.79 688.004C1304.99 688.004 1301.88 688.315 1299.7 688.937C1297.52 689.248 1295.96 689.87 1295.96 689.87C1295.96 689.87 1297.52 690.492 1299.7 690.802ZM1383.14 654.738C1384.7 655.049 1386.88 655.359 1389.37 655.359C1391.55 655.359 1393.73 655.049 1395.28 654.738C1396.84 654.427 1398.08 653.805 1398.08 653.805C1398.08 653.805 1396.84 653.183 1395.28 652.872C1393.73 652.561 1391.55 652.25 1389.06 652.25C1386.88 652.25 1384.7 652.561 1383.14 653.183C1381.58 653.494 1380.34 654.116 1380.34 654.116C1380.34 654.116 1381.58 654.427 1383.14 654.738ZM1272.3 682.719C1273.55 683.03 1274.79 683.341 1276.35 683.341C1277.9 683.341 1279.15 683.03 1280.4 682.719C1281.64 682.408 1282.26 681.786 1282.26 681.786C1282.26 681.786 1281.64 681.165 1280.4 680.854C1279.15 680.543 1277.9 680.232 1276.35 680.232C1274.79 680.232 1273.55 680.543 1272.3 680.854C1271.06 681.165 1270.43 681.786 1270.43 681.786C1270.43 681.786 1271.37 682.097 1272.3 682.719ZM1315.89 674.946C1317.13 675.257 1318.38 675.568 1319.94 675.568C1321.49 675.568 1322.74 675.257 1323.98 674.946C1325.23 674.635 1325.85 674.014 1325.85 674.014C1325.85 674.014 1325.23 673.392 1323.98 673.081C1322.74 672.77 1321.49 672.459 1319.94 672.459C1318.38 672.459 1317.13 672.77 1315.89 673.081C1314.64 673.392 1314.02 674.014 1314.02 674.014C1314.02 674.014 1314.64 674.635 1315.89 674.946ZM1394.04 660.023C1395.28 660.334 1396.53 660.645 1398.08 660.645C1399.64 660.645 1400.89 660.334 1402.13 660.023C1403.38 659.712 1404 659.09 1404 659.09C1404 659.09 1403.38 658.469 1402.13 658.158C1400.89 657.847 1399.64 657.536 1398.08 657.536C1396.53 657.536 1395.28 657.847 1394.04 658.158C1392.79 658.469 1392.17 659.09 1392.17 659.09C1392.17 659.09 1392.79 659.712 1394.04 660.023ZM1321.49 630.487C1322.74 630.798 1323.98 631.109 1325.54 631.109C1327.1 631.109 1328.34 630.798 1329.59 630.487C1330.83 630.176 1331.46 629.555 1331.46 629.555C1331.46 629.555 1330.83 628.933 1329.59 628.622C1328.34 628.311 1327.1 628 1325.54 628C1323.98 628 1322.74 628.311 1321.49 628.622C1320.25 628.933 1319.63 629.555 1319.63 629.555C1319.63 629.555 1320.56 630.176 1321.49 630.487ZM1288.8 686.761C1290.05 687.072 1291.29 687.383 1292.85 687.383C1294.41 687.383 1295.65 687.072 1296.9 686.761C1298.14 686.45 1298.77 685.828 1298.77 685.828C1298.77 685.828 1298.14 685.206 1296.9 684.895C1295.65 684.584 1294.41 684.273 1292.85 684.273C1291.29 684.273 1290.05 684.584 1288.8 684.895C1287.56 685.206 1286.93 685.828 1286.93 685.828C1286.93 685.828 1287.87 686.45 1288.8 686.761ZM1350.45 668.728C1351.69 669.039 1352.94 669.35 1354.5 669.35C1356.05 669.35 1357.3 669.039 1358.54 668.728C1359.79 668.417 1360.41 667.796 1360.41 667.796C1360.41 667.796 1359.79 667.174 1358.54 666.863C1357.3 666.552 1356.05 666.241 1354.5 666.241C1352.94 666.241 1351.69 666.552 1350.45 666.863C1349.2 667.174 1348.58 667.796 1348.58 667.796C1348.58 667.796 1349.51 668.417 1350.45 668.728ZM1362.28 638.26C1363.53 638.571 1364.77 638.882 1366.33 638.882C1367.88 638.882 1369.13 638.571 1370.37 638.26C1371.62 637.949 1372.24 637.327 1372.24 637.327C1372.24 637.327 1371.62 636.705 1370.37 636.394C1369.13 636.083 1367.88 635.773 1366.33 635.773C1364.77 635.773 1363.53 636.083 1362.28 636.394C1361.03 636.705 1360.41 637.327 1360.41 637.327C1360.41 637.327 1361.03 637.949 1362.28 638.26ZM1350.45 633.596C1351.69 633.907 1352.94 634.218 1354.5 634.218C1356.05 634.218 1357.3 633.907 1358.54 633.596C1359.79 633.285 1360.41 632.664 1360.41 632.664C1360.41 632.664 1359.79 632.042 1358.54 631.731C1357.3 631.42 1356.05 631.109 1354.5 631.109C1352.94 631.109 1351.69 631.42 1350.45 631.731C1349.2 632.042 1348.58 632.664 1348.58 632.664C1348.58 632.664 1349.51 633.285 1350.45 633.596ZM1249.26 729.355C1252.69 729.665 1257.04 729.976 1261.4 729.976C1265.76 729.976 1270.12 729.355 1273.55 729.044C1276.97 728.422 1278.84 727.8 1278.84 727.8C1278.84 727.8 1276.66 727.489 1273.23 727.178C1269.81 726.867 1265.45 726.867 1261.09 726.867C1256.73 726.867 1252.37 727.178 1248.95 727.489C1245.53 727.8 1243.35 728.422 1243.35 728.422C1243.35 728.422 1246.15 728.733 1249.26 729.355ZM1037.55 772.881C1040.97 773.192 1045.33 773.503 1049.69 773.503C1054.05 773.503 1058.41 772.881 1061.83 772.57C1065.26 771.948 1067.12 771.327 1067.12 771.327C1067.12 771.327 1064.94 771.016 1061.52 770.705C1058.09 770.394 1053.74 770.394 1049.38 770.394C1045.02 770.394 1040.66 770.705 1037.23 771.016C1033.81 771.327 1031.63 771.948 1031.63 771.948C1031.63 771.948 1034.12 772.57 1037.55 772.881ZM1228.09 721.893C1231.51 722.204 1235.87 722.515 1240.23 722.515C1244.59 722.515 1248.95 721.893 1252.37 721.582C1255.8 720.96 1257.67 720.338 1257.67 720.338C1257.67 720.338 1255.49 720.027 1252.06 719.717C1248.64 719.406 1244.28 719.406 1239.92 719.406C1235.56 719.406 1231.2 719.717 1227.78 720.027C1224.35 720.338 1222.17 720.96 1222.17 720.96C1222.17 720.96 1224.98 721.271 1228.09 721.893ZM1211.59 728.422C1205.05 727.8 1196.02 727.489 1186.99 727.489C1177.96 727.489 1169.25 727.8 1162.4 728.422C1158.97 728.733 1156.17 729.044 1154.3 729.044C1152.43 729.355 1151.19 729.355 1151.19 729.355C1151.19 729.355 1152.43 729.355 1154.3 729.665C1156.17 729.665 1158.97 729.976 1162.4 730.287C1168.93 730.598 1177.96 730.909 1186.99 730.909C1196.02 730.909 1204.74 730.598 1211.59 730.287C1215.01 729.976 1217.82 729.976 1219.68 729.976C1221.55 729.976 1222.8 729.665 1222.8 729.665C1222.8 729.665 1218.44 729.044 1211.59 728.422ZM1270.12 742.102C1267.63 742.102 1264.21 741.48 1260.16 741.48C1256.11 741.169 1251.13 741.169 1245.84 740.858C1240.54 740.858 1234.94 740.858 1229.65 740.858C1224.04 740.858 1218.44 741.169 1213.46 741.169C1208.16 741.48 1203.49 741.791 1199.13 742.102C1195.09 742.413 1191.35 742.723 1189.17 743.034C1186.68 743.345 1185.44 743.345 1185.44 743.345C1185.44 743.345 1186.68 743.345 1189.17 743.656C1191.66 743.656 1195.09 743.967 1199.13 743.967C1203.18 743.967 1208.16 744.278 1213.46 743.967C1218.75 743.967 1224.35 743.967 1229.65 743.967C1235.25 743.967 1240.85 743.656 1245.84 743.656C1251.13 743.656 1255.8 743.345 1260.16 743.034C1264.21 743.034 1267.94 742.723 1270.12 742.413C1272.61 742.102 1273.86 742.102 1273.86 742.102C1273.86 742.102 1272.3 742.102 1270.12 742.102ZM1205.36 760.134C1199.13 759.512 1191.04 759.201 1182.63 759.201C1174.54 759.201 1166.13 759.823 1159.91 760.756C1153.68 761.378 1149.63 762.31 1149.63 762.31C1149.63 762.31 1150.56 762.31 1152.43 762.31C1154.3 762.31 1156.79 762.31 1159.91 762.31C1166.13 762.31 1174.23 762.31 1182.32 762.31C1190.42 762.31 1198.82 761.999 1204.74 761.999C1207.85 761.999 1210.34 761.689 1212.21 761.689C1214.08 761.689 1215.01 761.378 1215.01 761.378C1215.01 761.378 1211.59 760.756 1205.36 760.134ZM1166.75 777.856C1159.91 777.234 1150.88 776.612 1141.54 776.301C1132.51 776.301 1123.17 776.301 1116.32 776.923C1109.47 777.545 1104.8 777.856 1104.8 777.856C1104.8 777.856 1106.04 777.856 1107.91 778.166C1109.78 778.166 1112.89 778.477 1116.32 778.477C1123.17 778.788 1132.2 779.099 1141.54 779.099C1150.56 779.099 1159.91 779.41 1166.75 779.099C1170.18 779.099 1172.98 779.099 1175.16 778.788C1177.03 778.788 1178.27 778.788 1178.27 778.788C1178.27 778.788 1173.6 778.788 1166.75 777.856ZM1023.54 793.401C1016.69 792.779 1007.66 792.157 998.317 791.846C989.288 791.846 979.947 791.846 973.098 792.468C966.248 793.09 961.578 793.401 961.578 793.401C961.578 793.401 962.823 793.401 964.691 793.712C966.559 793.712 969.673 794.023 973.098 794.023C979.947 794.333 988.976 794.644 998.317 794.644C1007.35 794.644 1016.69 794.955 1023.54 794.644C1026.96 794.644 1029.76 794.644 1031.94 794.333C1033.81 794.333 1035.06 794.333 1035.06 794.333C1035.06 794.333 1030.39 794.023 1023.54 793.401ZM1295.65 792.468C1288.8 791.846 1279.77 791.224 1270.43 790.914C1261.4 790.914 1252.06 790.913 1245.21 791.535C1238.36 792.157 1233.69 792.468 1233.69 792.468C1233.69 792.468 1234.94 792.468 1236.81 792.779C1238.68 792.779 1241.79 793.09 1245.21 793.09C1252.06 793.401 1261.09 793.712 1270.43 793.712C1279.46 793.712 1288.8 794.023 1295.65 793.712C1299.08 793.712 1301.88 793.712 1304.06 793.401C1305.93 793.401 1307.17 793.401 1307.17 793.401C1307.17 793.401 1302.5 793.401 1295.65 792.468ZM1248.02 801.484C1241.17 800.862 1232.14 800.241 1222.8 799.93C1213.77 799.93 1204.43 799.93 1197.58 800.552C1190.73 801.173 1186.06 801.484 1186.06 801.484C1186.06 801.484 1187.3 801.484 1189.17 801.795C1191.04 801.795 1194.15 802.106 1197.58 802.106C1204.43 802.417 1213.46 802.728 1222.8 802.728C1231.83 802.728 1241.17 803.039 1248.02 802.728C1251.44 802.728 1254.24 802.728 1256.42 802.417C1258.29 802.417 1259.54 802.417 1259.54 802.417C1259.54 802.417 1254.87 802.106 1248.02 801.484ZM1109.47 810.189C1102.62 809.568 1093.59 808.946 1084.25 808.635C1075.22 808.635 1065.88 808.635 1059.03 809.257C1052.18 809.879 1047.51 810.189 1047.51 810.189C1047.51 810.189 1048.75 810.19 1050.62 810.5C1052.49 810.5 1055.6 810.811 1059.03 810.811C1065.88 811.122 1074.91 811.433 1084.25 811.433C1093.28 811.433 1102.62 811.744 1109.47 811.433C1112.89 811.433 1115.69 811.433 1117.87 811.122C1119.74 811.122 1120.99 811.122 1120.99 811.122C1120.99 811.122 1116.32 810.811 1109.47 810.189ZM1210.03 792.468C1203.18 791.846 1194.15 791.224 1184.81 790.914C1175.78 790.914 1166.44 790.913 1159.59 791.535C1152.74 792.157 1148.07 792.468 1148.07 792.468C1148.07 792.468 1149.32 792.468 1151.19 792.779C1153.06 792.779 1156.17 793.09 1159.59 793.09C1166.44 793.401 1175.47 793.712 1184.81 793.712C1193.84 793.712 1203.18 794.023 1210.03 793.712C1213.46 793.712 1216.26 793.712 1218.44 793.401C1220.31 793.401 1221.55 793.401 1221.55 793.401C1221.55 793.401 1216.88 793.401 1210.03 792.468ZM902.733 843.767C895.884 843.145 886.855 842.524 877.515 842.213C868.486 842.213 859.145 842.213 852.296 842.834C845.446 843.456 840.776 843.767 840.776 843.767C840.776 843.767 842.021 843.767 843.889 844.078C845.757 844.078 848.871 844.389 852.296 844.389C859.145 844.7 868.174 845.011 877.515 845.011C886.544 845.011 895.884 845.322 902.733 845.011C906.158 845.011 908.96 845.011 911.14 844.7C913.008 844.7 914.253 844.7 914.253 844.7C914.253 844.7 909.583 844.389 902.733 843.767ZM766.364 886.361C764.496 886.05 761.383 885.739 757.958 885.428C751.108 884.806 742.079 884.185 732.739 884.185C723.71 883.874 714.369 884.185 707.52 884.496C700.67 884.806 696 885.428 696 885.428C696 885.428 697.245 885.428 699.113 885.739C700.982 885.739 704.095 886.05 707.52 886.361C714.369 886.672 723.398 886.983 732.739 887.294C741.768 887.605 751.108 887.605 757.958 887.294C761.383 887.294 764.185 886.983 766.364 886.983C768.232 886.983 769.478 886.672 769.478 886.672C769.478 886.672 768.232 886.672 766.364 886.361ZM1023.54 854.96C1016.69 854.338 1007.66 853.716 998.317 853.405C989.288 853.405 979.947 853.405 973.098 854.027C966.248 854.649 961.578 854.96 961.578 854.96C961.578 854.96 962.823 854.96 964.691 855.271C966.559 855.271 969.673 855.581 973.098 855.581C979.947 855.892 988.976 856.203 998.317 856.203C1007.35 856.203 1016.69 856.514 1023.54 856.203C1026.96 856.203 1029.76 856.203 1031.94 855.892C1033.81 855.892 1035.06 855.892 1035.06 855.892C1035.06 855.892 1030.39 855.892 1023.54 854.96ZM861.325 830.087C854.475 829.466 845.446 828.844 836.106 828.533C827.077 828.533 817.736 828.533 810.887 829.155C804.037 829.776 799.367 830.087 799.367 830.087C799.367 830.087 800.612 830.087 802.48 830.398C804.348 830.398 807.462 830.709 810.887 830.709C817.736 831.02 826.765 831.331 836.106 831.331C845.135 831.331 854.475 831.642 861.325 831.331C864.749 831.331 867.552 831.331 869.731 831.02C871.599 831.02 872.844 831.02 872.844 831.02C872.844 831.02 868.174 830.709 861.325 830.087ZM905.847 887.294C903.979 886.983 900.865 886.672 897.441 886.672C890.591 886.05 881.562 885.739 872.222 885.428C863.193 885.428 853.852 885.428 847.003 885.739C843.578 885.739 840.776 886.05 838.596 886.05C836.728 886.05 835.483 886.361 835.483 886.361C835.483 886.361 836.728 886.672 838.596 886.672C840.464 886.983 843.578 887.294 847.003 887.294C853.852 887.915 862.881 888.226 872.222 888.537C881.251 888.537 890.591 888.537 897.441 888.226C900.865 888.226 903.668 887.915 905.847 887.915C907.715 887.915 908.96 887.605 908.96 887.605C908.96 887.605 908.026 887.605 905.847 887.294ZM831.124 905.637C824.274 905.015 815.245 904.393 805.905 904.082C796.876 904.082 787.536 904.082 780.686 904.704C773.836 905.326 769.166 905.637 769.166 905.637C769.166 905.637 770.412 905.637 772.28 905.948C774.148 905.948 777.261 906.259 780.686 906.259C787.536 906.57 796.565 906.881 805.905 906.881C814.934 906.881 824.274 907.191 831.124 906.881C834.549 906.881 837.351 906.881 839.53 906.57C841.398 906.57 842.644 906.57 842.644 906.57C842.644 906.57 837.974 906.259 831.124 905.637Z" fill="url(#paint6_linear_3_5533)"/>
</g>
<defs>
<linearGradient id="paint0_linear_3_5533" x1="1069.58" y1="644.568" x2="1069.58" y2="353.409" gradientUnits="userSpaceOnUse">
<stop offset="0.36" stop-color="#FFFFDB"/>
<stop offset="0.475" stop-color="#FBFEDB"/>
<stop offset="0.6002" stop-color="#EDFCDD"/>
<stop offset="0.7304" stop-color="#D8F7DF"/>
<stop offset="0.8639" stop-color="#B9F2E1"/>
<stop offset="0.9987" stop-color="#92EAE5"/>
<stop offset="1" stop-color="#92EAE5"/>
</linearGradient>
<linearGradient id="paint1_linear_3_5533" x1="1071.19" y1="656.345" x2="1071.19" y2="357.793" gradientUnits="userSpaceOnUse">
<stop stop-color="#FFFFF3"/>
<stop offset="0.2592" stop-color="#FBFFF2"/>
<stop offset="0.5415" stop-color="#EDFEF0"/>
<stop offset="0.8337" stop-color="#D8FEED"/>
<stop offset="1" stop-color="#C8FDEA"/>
</linearGradient>
<linearGradient id="paint2_linear_3_5533" x1="596.897" y1="831.181" x2="672.382" y2="402.944" gradientUnits="userSpaceOnUse">
<stop offset="0.371" stop-color="#F4FFF1"/>
<stop offset="0.5143" stop-color="#EBFFEE"/>
<stop offset="0.7435" stop-color="#D4FFE5"/>
<stop offset="0.8871" stop-color="#C2FFDE"/>
</linearGradient>
<linearGradient id="paint3_linear_3_5533" x1="1004.11" y1="608.684" x2="1004.11" y2="1048.53" gradientUnits="userSpaceOnUse">
<stop offset="0.0535447" stop-color="#FFFFC7"/>
<stop offset="0.211" stop-color="#FBFEC8"/>
<stop offset="0.3826" stop-color="#EDFCCA"/>
<stop offset="0.5609" stop-color="#D8F7CE"/>
<stop offset="0.7437" stop-color="#B9F2D4"/>
<stop offset="0.9284" stop-color="#92EADB"/>
<stop offset="0.9301" stop-color="#92EADB"/>
</linearGradient>
<linearGradient id="paint4_linear_3_5533" x1="695.081" y1="642.389" x2="695.081" y2="947.965" gradientUnits="userSpaceOnUse">
<stop offset="0.0481684" stop-color="#FFFFD8"/>
<stop offset="0.3675" stop-color="#FFFFD4" stop-opacity="0.7652"/>
<stop offset="0.7146" stop-color="#FFFFC7" stop-opacity="0.5099"/>
<stop offset="1" stop-color="#FFFFB6" stop-opacity="0.3"/>
</linearGradient>
<linearGradient id="paint5_linear_3_5533" x1="1308.67" y1="577.468" x2="1308.67" y2="949.179" gradientUnits="userSpaceOnUse">
<stop offset="0.0481684" stop-color="#FFFFD8"/>
<stop offset="0.3675" stop-color="#FFFFD4" stop-opacity="0.7652"/>
<stop offset="0.7146" stop-color="#FFFFC7" stop-opacity="0.5099"/>
<stop offset="1" stop-color="#FFFFB6" stop-opacity="0.3"/>
</linearGradient>
<linearGradient id="paint6_linear_3_5533" x1="1050.16" y1="536.827" x2="1050.16" y2="930.602" gradientUnits="userSpaceOnUse">
<stop stop-color="#FFFFC7" stop-opacity="0.3"/>
<stop offset="0.1796" stop-color="#FBFEC8" stop-opacity="0.3539"/>
<stop offset="0.3754" stop-color="#EDFCCA" stop-opacity="0.4126"/>
<stop offset="0.5787" stop-color="#D8F7CE" stop-opacity="0.4736"/>
<stop offset="0.7873" stop-color="#B9F2D4" stop-opacity="0.5362"/>
<stop offset="0.998" stop-color="#92EADB" stop-opacity="0.5994"/>
<stop offset="1" stop-color="#92EADB" stop-opacity="0.6"/>
</linearGradient>
<clipPath id="clip0_3_5533">
<rect width="1920" height="1005" fill="white"/>
</clipPath>
</defs>
</svg>
