<svg width="718" height="200" viewBox="0 0 718 200" fill="none" xmlns="http://www.w3.org/2000/svg">
<path opacity="0.2" d="M387.427 120.177C384.625 117.998 380.889 119.243 377.775 118.932C377.464 118.932 377.775 118.621 377.775 118.309L377.464 117.998C377.153 117.687 376.53 117.687 375.907 117.998C375.285 118.309 374.973 118.621 374.35 118.621C372.794 118.932 370.926 117.687 369.68 117.376C365.633 115.508 363.453 113.018 356.292 114.263C362.208 114.263 367.189 118.621 369.992 121.733C369.057 122.355 368.435 122.667 367.189 122.667C369.369 124.223 373.728 123.289 375.907 121.733C378.398 120.488 383.691 118.932 387.427 120.177Z" fill="#7BB79A"/>
<path opacity="0.2" d="M228.637 126.402C225.523 124.845 222.098 126.713 218.985 126.713C218.673 126.713 218.985 126.402 218.673 126.09L218.362 125.779C218.051 125.468 217.117 125.779 216.805 126.09C216.494 126.402 215.871 127.024 215.56 127.024C214.315 127.647 211.824 126.713 210.578 126.402C206.219 125.468 203.417 123.289 196.879 125.779C202.483 124.534 208.399 127.958 211.824 130.759C211.201 131.693 210.267 132.004 209.333 132.004C211.512 133.249 215.871 131.382 217.739 129.514C219.608 128.269 224.278 125.779 228.637 126.402Z" fill="#7BB79A"/>
<path d="M41.0988 1.72913C37.3626 -0.138364 32.3809 2.04042 28.3333 2.35167C28.0219 2.35167 28.3333 1.72913 28.0219 1.72913C27.7106 1.72913 27.7106 1.41791 27.7106 1.41791C27.0879 1.10666 26.1538 1.41788 25.8425 1.72913C25.2198 2.35163 24.9084 2.66291 24.2857 2.97415C22.4176 3.59665 19.6154 2.66292 17.7472 2.35167C11.8315 1.10667 8.71793 -1.69458 0 1.41791C7.47251 -0.138335 14.9451 4.21915 19.304 7.64289C18.37 8.57664 17.4359 9.19911 16.1905 9.51035C19.304 11.0666 24.9084 8.57661 27.3993 6.39786C29.2674 4.21912 35.8058 1.10663 41.0988 1.72913Z" fill="#A1D3B9"/>
<path opacity="0.2" d="M478.654 196.744C480.211 195.811 482.39 196.744 483.947 196.744V196.433C483.947 196.433 483.947 196.433 484.259 196.433C484.57 196.122 484.881 196.433 485.193 196.433C485.504 196.433 485.504 196.744 485.815 197.056C486.438 197.367 487.683 196.744 488.617 196.744C491.108 196.122 492.354 194.877 496.09 196.122C492.976 195.811 489.863 197.678 487.995 198.923C488.306 199.234 488.929 199.546 489.551 199.546C488.306 200.168 485.815 199.546 484.881 198.612C483.636 197.367 480.834 196.433 478.654 196.744Z" fill="#4D9374"/>
<path opacity="0.2" d="M566.145 174.023C568.013 172.467 571.126 173.089 573.306 172.778V172.467C573.306 172.467 573.306 172.467 573.617 172.155C573.929 171.844 574.551 171.844 574.863 172.155C575.174 172.467 575.485 172.467 576.108 172.778C577.042 172.778 578.599 172.155 579.533 171.844C582.647 170.599 584.203 168.732 589.496 169.354C585.137 169.354 581.401 172.467 579.533 174.957C580.156 175.268 580.778 175.579 581.712 175.579C580.156 176.824 576.731 176.202 575.174 175.268C572.995 174.023 569.258 173.089 566.145 174.023Z" fill="#7BB79A"/>
<path d="M693.8 90.9192C695.98 89.6742 698.782 90.6079 700.961 90.6079V90.2967C700.961 90.2967 700.961 90.2967 701.273 89.9855C701.584 89.6742 702.207 89.9855 702.518 89.9855C702.829 90.2967 703.141 90.6079 703.452 90.6079C704.386 90.9192 706.254 90.2967 707.188 89.9855C710.302 89.0517 712.17 87.4954 717.152 88.7404C712.793 88.4292 708.745 90.9192 706.566 92.7867C707.188 93.4092 707.811 93.4092 708.434 93.4092C706.877 94.3429 703.452 93.4092 701.895 92.1642C700.65 91.5417 696.914 90.2967 693.8 90.9192Z" fill="#A1D3B9"/>
<path opacity="0.2" d="M457.482 175.89C455.303 174.645 452.501 175.579 450.321 175.268V174.957C450.321 174.957 450.321 174.957 450.01 174.645C449.698 174.334 449.076 174.645 448.764 174.645C448.453 174.957 448.142 175.268 447.83 175.268C446.896 175.579 445.339 174.957 444.094 174.334C440.98 173.089 439.424 171.533 434.131 172.467C438.49 172.155 442.226 174.957 444.405 177.447C443.783 178.069 443.16 178.069 442.537 178.069C444.094 179.314 447.519 178.069 449.076 177.135C450.944 176.513 454.68 175.268 457.482 175.89Z" fill="#4D9374"/>
</svg>
