<svg width="252" height="88" viewBox="0 0 252 88" fill="none" xmlns="http://www.w3.org/2000/svg">
<path d="M1.95232 72.6531C2.57503 72.0306 3.19776 71.4081 3.82047 70.7856C6.93401 68.2956 11.293 67.6731 15.3406 67.0506C23.4358 65.8056 31.8423 63.6268 37.758 58.0243C43.6738 52.1105 45.8533 43.7068 48.9668 35.9255C53.6371 23.4755 61.7323 11.3367 73.5637 4.80042C85.3952 -1.73585 101.274 -2.0471 111.549 6.66792C123.692 16.9392 124.626 34.6805 129.919 49.3093C130.853 51.7993 133.032 54.9118 135.523 53.9781C136.769 53.6668 137.703 52.4218 138.014 51.488C140.505 46.8193 140.816 41.528 143.93 37.4818C150.468 28.7667 165.413 31.2567 172.886 39.3493C180.358 47.4418 183.16 58.6468 187.208 68.9181C188.765 72.3418 190.321 76.0768 193.746 78.2556C196.86 80.1231 200.908 80.4344 204.644 80.1231C213.05 79.8119 221.768 79.5006 230.175 78.5669C240.138 77.6331 243.874 86.9706 251.97 86.9706C189.076 86.9706 126.494 86.9706 63.6005 86.9706C45.8533 86.9706 27.7947 88.2156 10.3589 86.0369C6.93402 85.7256 2.88642 84.7919 1.0183 81.6794C-0.849825 78.8781 0.0841987 75.1431 1.95232 72.6531Z" fill="url(#paint0_linear_3_5988)"/>
<defs>
<linearGradient id="paint0_linear_3_5988" x1="125.99" y1="87.0821" x2="125.99" y2="-0.0466928" gradientUnits="userSpaceOnUse">
<stop stop-color="#FFFFDD" stop-opacity="0.5"/>
<stop offset="1" stop-color="white" stop-opacity="0.5"/>
</linearGradient>
</defs>
</svg>
