<svg width="505" height="90" viewBox="0 0 505 90" fill="none" xmlns="http://www.w3.org/2000/svg">
<path d="M56.5462 70.5031C87.3702 71.4368 118.817 62.4106 144.037 44.6693C171.124 25.683 200.08 -4.19707 231.216 7.00795C241.802 11.0542 250.52 19.458 261.106 23.8155C295.978 38.4443 331.783 4.8292 369.457 0.471691C378.798 -0.462061 390.006 1.40544 394.365 9.80921C400.904 22.2592 391.252 51.2055 413.981 52.4505C419.585 52.7618 424.878 50.2718 430.171 48.7155C435.464 47.1593 442.002 46.848 446.05 50.583C448.852 53.073 449.786 57.1193 451.654 60.8543C455.702 68.9468 463.486 74.5493 471.892 77.9731C480.299 81.0856 495.244 87.6219 504.273 88.5556C359.494 86.3769 145.593 90.7344 0.813721 88.5556C15.7587 76.1056 37.2422 69.8806 56.5462 70.5031Z" fill="url(#paint0_linear_3_5984)"/>
<defs>
<linearGradient id="paint0_linear_3_5984" x1="252.519" y1="88.8106" x2="252.519" y2="0.310777" gradientUnits="userSpaceOnUse">
<stop stop-color="#FFFFDD" stop-opacity="0.5"/>
<stop offset="1" stop-color="white"/>
</linearGradient>
</defs>
</svg>
