<svg width="650" height="177" viewBox="0 0 650 177" fill="none" xmlns="http://www.w3.org/2000/svg">
<path d="M0.903365 98.1235C1.83743 85.9847 4.01691 73.5346 8.68722 62.3296C24.5663 21.867 71.5807 -8.63559 115.482 2.25819C142.569 9.10571 166.232 27.7808 178.998 52.6809C186.47 66.9984 191.763 85.0509 207.02 90.6535C234.419 101.236 258.393 62.0184 287.66 63.5746C306.653 64.8196 319.73 82.5609 331.561 97.501C343.393 112.441 360.517 124.58 378.264 117.732C383.869 115.554 388.539 111.507 393.521 108.706C410.645 99.3685 439.601 101.547 455.48 112.441C471.671 123.646 481.634 154.149 498.447 160.062C516.817 166.599 542.659 157.261 558.538 157.572C593.41 157.884 618.941 161.619 649.142 176.559C649.142 176.559 136.031 176.559 94.9323 176.559C34.841 176.559 14.2916 155.705 4.32828 130.182C-0.342032 120.222 -0.0306967 108.706 0.903365 98.1235Z" fill="url(#paint0_linear_3_5986)"/>
<defs>
<linearGradient id="paint0_linear_3_5986" x1="324.512" y1="176.633" x2="324.512" y2="-0.173297" gradientUnits="userSpaceOnUse">
<stop stop-color="#FFFFDD" stop-opacity="0.5"/>
<stop offset="1" stop-color="white"/>
</linearGradient>
</defs>
</svg>
