<svg width="1920" height="456" viewBox="0 0 1920 456" fill="none" xmlns="http://www.w3.org/2000/svg">
<path d="M1915.46 439.029C1908.37 408.731 1897.18 378.433 1882.45 349.301C1877.54 339.396 1871.54 329.199 1859.26 322.79C1846.99 316.381 1831.44 315.798 1816.17 316.381C1811.53 308.224 1807.16 300.358 1802.53 292.201C1798.71 285.5 1794.62 278.8 1791.07 272.099C1789.16 268.603 1787.52 265.107 1785.61 261.611C1784.52 258.989 1783.16 253.163 1780.98 251.415C1785.61 255.202 1790.8 258.407 1796.53 260.155C1783.71 235.101 1772.79 213.834 1766.52 187.614C1769.52 191.693 1773.88 194.606 1778.79 196.063C1772.52 185.575 1768.16 174.213 1765.7 162.269C1766.52 165.473 1769.79 167.804 1773.07 168.095C1762.16 141.293 1750.7 106.917 1750.7 103.13C1751.79 104.295 1753.15 105.169 1754.79 105.46C1751.52 102.256 1748.79 98.177 1747.43 93.8071C1749.61 95.8464 1750.43 97.5944 1752.61 97.5944C1745.79 78.6582 1744.42 70.7924 1743.06 59.722C1744.42 61.1786 1744.97 61.7612 1745.79 61.7612C1741.97 51.8561 1739.79 47.7775 1737.06 34.3765C1738.15 36.4158 1738.42 35.2505 1739.51 36.4158C1735.97 29.1327 1731.6 7.28317 1731.6 0C1730.51 10.1964 1728.33 21.5582 1722.88 30.5893C1724.51 29.7153 1725.33 28.55 1726.69 26.5107C1720.69 55.0608 1719.87 78.9495 1703.51 99.6337C1705.42 99.051 1707.6 98.4684 1709.51 97.8858C1708.69 103.13 1706.78 108.082 1704.33 112.452C1706.24 111.578 1708.42 110.413 1710.33 109.539C1703.78 129.349 1699.96 138.38 1687.41 155.568C1691.51 153.82 1695.32 151.198 1698.05 147.994C1694.23 155.568 1690.14 163.143 1686.32 170.717C1691.51 170.717 1693.69 168.678 1697.78 165.765C1690.69 187.323 1678.68 215.873 1666.96 234.809C1670.23 234.518 1672.96 233.935 1677.32 230.439C1674.59 237.723 1672.68 241.51 1669.68 246.462C1665.59 235.975 1662.05 225.487 1659.32 214.125C1662.32 218.204 1666.68 221.408 1671.59 222.865C1665.32 212.086 1660.95 200.141 1658.5 188.197C1659.32 191.402 1662.59 194.024 1665.86 194.024C1654.95 166.348 1643.5 130.806 1643.5 127.018C1644.59 128.184 1645.95 129.058 1647.59 129.349C1644.31 125.853 1641.59 121.775 1640.22 117.405C1642.41 119.444 1643.22 121.192 1645.41 121.192C1638.59 101.382 1637.22 93.5159 1635.86 81.8628C1637.22 83.3194 1637.77 83.902 1638.59 83.902C1634.77 73.7056 1632.59 69.3357 1629.86 55.3521C1630.95 57.3913 1631.22 56.226 1632.31 57.3913C1628.77 49.8168 1624.4 27.3847 1624.4 19.8102C1623.31 30.5893 1621.13 41.9511 1615.67 51.2735C1617.31 50.1082 1618.13 49.2342 1619.49 46.9036C1613.49 76.3276 1612.67 100.799 1596.31 122.357C1598.21 121.775 1600.4 121.192 1602.31 120.318C1601.49 125.562 1599.58 130.806 1597.12 135.467C1599.03 134.593 1601.22 133.428 1603.12 132.554C1596.58 152.946 1592.76 162.269 1580.21 180.04C1584.3 178.292 1588.12 175.67 1590.85 172.174C1587.03 180.04 1582.94 187.614 1579.12 195.48C1584.3 195.48 1586.49 193.441 1590.58 190.236C1585.39 206.842 1577.21 227.817 1568.48 245.297C1563.3 227.526 1558.93 210.338 1558.93 208.007C1559.75 208.881 1560.84 209.755 1562.21 210.047C1559.75 207.133 1557.84 203.637 1556.75 200.141C1558.39 201.889 1558.93 203.346 1560.84 203.637C1556.21 187.906 1555.93 181.496 1555.39 172.465C1556.48 173.631 1556.75 174.213 1557.57 174.213C1555.12 166.056 1553.48 162.56 1552.12 151.49C1552.93 153.238 1553.21 152.364 1554.02 153.238C1551.57 147.12 1549.39 129.349 1549.66 123.522C1548.3 131.68 1545.84 140.711 1540.93 147.411C1542.3 146.829 1542.84 145.955 1544.2 144.207C1537.93 166.639 1536.02 185.866 1521.56 201.598C1523.2 201.307 1524.84 200.724 1526.47 200.433C1525.38 204.511 1523.75 208.298 1521.56 211.794C1523.2 211.212 1524.84 210.629 1526.47 209.755C1519.93 225.195 1516.65 232.187 1505.47 245.297C1508.74 244.132 1512.02 242.384 1514.47 239.762C1510.93 245.588 1507.38 251.415 1503.83 257.241C1507.92 257.533 1509.83 256.076 1513.38 254.037C1507.92 267.146 1500.01 283.461 1492.1 296.862C1486.65 284.626 1482.28 272.099 1482.01 270.642C1482.83 271.225 1483.65 271.808 1484.47 271.808C1482.28 270.06 1480.65 267.729 1479.83 265.399C1481.19 266.564 1481.74 267.438 1483.1 267.438C1478.74 256.95 1477.92 252.58 1477.1 246.462C1477.92 247.336 1478.19 247.628 1478.74 247.628C1476.28 242.092 1474.92 240.053 1473.28 232.479C1474.1 233.644 1474.1 233.061 1474.92 233.644C1472.74 229.565 1470.01 217.621 1470.01 213.542C1469.19 219.078 1467.83 225.487 1464.55 230.439C1465.64 229.857 1466.19 229.274 1467.01 228.109C1463.19 243.84 1462.64 256.95 1452.28 268.312C1453.64 268.021 1454.73 267.729 1456.1 267.438C1455.55 270.351 1454.46 272.973 1452.82 275.595C1454.19 275.012 1455.28 274.43 1456.64 274.138C1452.55 284.917 1450.1 289.87 1442.19 299.484C1444.91 298.61 1447.1 297.153 1448.73 295.405C1446.28 299.484 1443.82 303.562 1441.37 307.932C1444.64 307.932 1446 306.767 1448.46 305.31C1444.91 314.633 1439.73 325.994 1434 335.608C1429.91 327.451 1426.91 320.168 1426.64 319.003C1427.46 319.585 1428.27 319.877 1429.09 320.168C1426.91 318.711 1425.27 316.672 1424.45 314.924C1425.82 315.798 1426.36 316.672 1427.73 316.672C1423.36 307.932 1422.54 304.436 1421.73 299.192C1422.54 299.775 1422.82 300.066 1423.36 300.066C1420.91 295.405 1419.54 293.657 1417.91 287.539C1418.73 288.413 1418.73 287.831 1419.54 288.413C1417.36 284.917 1414.63 275.012 1414.63 271.808C1413.82 276.469 1412.45 281.713 1409.18 285.791C1410.27 285.209 1410.82 284.917 1411.63 283.752C1407.81 296.862 1407.27 307.641 1396.9 317.255C1398.27 316.963 1399.36 316.672 1400.72 316.381C1400.18 318.711 1399.09 321.042 1397.45 323.081C1398.81 322.79 1399.9 322.207 1401.27 321.916C1397.18 330.947 1394.72 335.026 1386.81 342.891C1389.54 342.017 1391.72 340.852 1393.36 339.396C1390.9 342.891 1388.45 346.387 1385.99 349.592C1389.27 349.592 1390.63 348.718 1393.08 347.261C1390.08 353.962 1385.72 359.788 1382.72 366.489C1380.54 371.15 1378.9 377.559 1373.44 379.016C1376.17 378.142 1379.17 377.559 1381.9 376.685C1379.45 379.89 1376.99 382.512 1373.99 385.134C1375.63 385.134 1377.26 384.551 1378.63 383.386C1376.45 387.173 1373.17 390.086 1369.35 391.834C1370.44 390.378 1370.99 388.338 1370.99 386.299C1369.08 388.63 1367.44 390.96 1365.53 393.291C1366.63 390.96 1366.9 388.63 1366.63 386.008C1365.53 389.212 1363.35 392.126 1360.35 393.874C1361.99 390.378 1361.72 386.299 1360.08 382.803C1359.53 386.882 1358.17 390.669 1355.71 393.874C1355.99 392.126 1356.26 390.086 1355.99 388.338C1354.62 390.669 1352.99 392.708 1351.62 395.039C1351.08 393 1351.08 390.96 1351.08 388.921C1350.26 390.086 1349.44 391.543 1348.89 393C1348.89 390.669 1349.17 388.63 1349.17 386.299C1346.44 388.63 1345.08 392.708 1345.35 396.496C1343.17 393 1340.71 389.795 1338.8 386.008C1337.71 383.969 1337.17 380.473 1335.53 378.433C1336.35 379.307 1337.71 380.181 1339.07 380.181C1336.62 376.103 1335.53 374.355 1334.16 369.693C1336.07 371.441 1337.44 371.733 1338.8 371.733C1333.35 362.41 1328.16 348.718 1324.89 338.522C1326.8 339.978 1327.62 340.852 1330.07 340.852C1328.16 337.356 1326.53 333.569 1324.62 330.073C1325.98 331.53 1327.62 332.986 1329.53 333.86C1323.8 325.412 1322.16 321.042 1319.16 311.72C1319.98 312.302 1321.07 312.593 1321.89 313.176C1320.8 310.846 1319.98 308.515 1319.43 306.184C1320.25 306.476 1321.34 306.767 1322.16 307.058C1314.8 297.153 1314.25 285.5 1311.8 271.808C1312.61 272.973 1312.89 273.264 1313.71 273.847C1311.25 269.477 1310.16 264.233 1309.61 259.281C1309.61 262.777 1307.7 273.264 1306.07 276.76C1306.61 276.178 1306.61 276.76 1307.16 275.886C1306.07 282.295 1304.98 284.335 1303.34 289.287C1303.61 289.287 1303.89 288.996 1304.7 288.413C1304.16 293.949 1303.61 297.444 1300.34 306.767C1301.43 306.767 1301.7 305.893 1302.79 305.019C1301.98 307.058 1300.89 309.098 1299.52 310.554C1300.34 310.263 1300.89 309.971 1301.43 309.389C1301.43 311.137 1296.25 327.742 1291.34 340.561C1292.97 340.561 1294.34 339.396 1294.61 337.939C1293.52 343.474 1291.34 349.009 1288.61 354.253C1290.79 353.379 1292.7 351.923 1294.07 350.175C1291.34 362.702 1286.16 372.898 1280.43 385.134C1283.15 384.26 1285.61 382.803 1287.52 381.055C1286.7 381.929 1285.88 384.842 1285.34 386.008C1284.52 387.756 1283.7 389.504 1282.88 390.96C1280.97 394.456 1279.34 398.826 1277.15 402.322C1276.34 403.487 1275.24 404.361 1274.15 405.235C1273.88 405.527 1273.61 405.527 1273.33 405.235C1273.33 405.235 1273.33 404.944 1273.33 404.653C1273.33 403.487 1273.61 402.031 1273.61 400.865C1272.24 401.739 1271.43 403.196 1270.33 404.653C1269.24 405.818 1267.88 406.983 1266.24 407.275C1266.52 404.944 1268.42 402.905 1268.15 400.865C1266.24 403.487 1264.33 406.401 1262.15 408.731C1261.88 409.023 1261.33 409.314 1261.06 409.023C1261.61 406.401 1261.61 404.07 1261.61 401.448C1260.51 404.07 1258.88 406.692 1256.7 408.731C1256.97 407.275 1256.97 405.818 1256.42 404.361C1255.33 406.401 1254.24 408.149 1253.15 410.188C1252.88 410.771 1252.33 411.353 1251.79 410.771C1251.51 410.479 1251.51 410.188 1251.51 409.897C1251.51 407.566 1252.06 405.235 1252.88 402.905C1251.51 405.818 1249.88 408.731 1248.24 411.353C1247.97 411.644 1247.69 411.936 1247.42 411.936C1246.88 411.936 1246.6 411.353 1246.6 410.771C1246.06 408.149 1246.06 405.235 1246.06 402.322C1244.97 405.235 1244.15 408.44 1243.6 411.645C1241.15 408.731 1240.6 404.653 1240.06 400.865C1239.51 404.944 1239.24 408.731 1238.69 412.81C1237.87 409.605 1237.33 406.692 1237.33 403.487C1236.24 407.275 1235.15 410.771 1234.05 414.558C1233.51 414.849 1233.24 413.684 1233.24 413.101C1233.24 411.353 1233.24 409.605 1233.24 407.566C1231.87 409.897 1230.78 412.227 1229.42 414.558C1229.14 411.645 1229.14 408.44 1229.69 405.527C1227.23 407.857 1225.87 411.645 1226.14 415.14C1224.78 412.519 1223.42 409.897 1222.05 407.275C1222.6 410.479 1222.32 413.684 1221.23 416.597C1220.96 417.18 1220.96 417.471 1220.42 417.762C1219.6 417.762 1219.32 416.888 1219.32 416.306C1219.32 414.558 1219.32 413.101 1219.87 411.353C1217.14 413.101 1214.96 416.014 1213.6 418.928C1213.32 416.597 1214.14 414.266 1215.23 412.227C1212.78 414.266 1210.6 416.888 1209.23 419.802C1208.96 417.18 1208.96 414.558 1209.5 411.936C1207.05 413.975 1205.14 416.306 1203.78 419.219C1202.68 416.888 1202.14 414.558 1201.59 411.936C1201.05 414.849 1199.96 417.762 1198.05 420.093C1197.23 417.471 1197.23 414.266 1198.32 411.645C1196.41 413.392 1194.77 415.723 1193.68 418.054C1193.68 416.306 1193.96 414.267 1194.5 412.519C1192.32 414.849 1190.68 417.762 1189.59 420.676C1188.77 418.636 1188.77 416.597 1189.05 414.558C1187.95 416.306 1187.14 418.345 1186.59 420.384C1186.05 418.345 1185.23 416.014 1184.68 413.975C1184.95 416.306 1183.86 418.345 1182.23 420.093C1182.5 418.636 1182.5 417.18 1182.23 415.723C1180.86 418.054 1179.5 420.384 1178.13 422.715C1177.59 422.715 1177.59 421.841 1177.59 421.258C1177.86 419.219 1177.86 417.471 1178.13 415.432C1176.5 417.471 1175.13 419.802 1174.04 422.424C1173.5 422.132 1173.22 421.258 1173.22 420.676C1173.22 418.928 1173.22 417.18 1173.22 415.432C1171.86 417.471 1170.5 419.802 1169.68 422.132C1168.59 419.51 1167.5 416.888 1166.41 414.558C1166.13 417.471 1165.59 420.676 1164.22 423.006C1163.68 423.006 1163.4 422.132 1163.13 421.55C1162.86 419.802 1162.86 418.054 1162.86 416.306C1160.68 418.636 1158.77 421.258 1156.59 423.589C1157.13 421.55 1157.95 419.51 1158.49 417.471C1156.04 419.51 1154.13 422.132 1152.49 424.754C1152.49 422.424 1153.04 420.093 1153.58 417.762C1151.4 419.802 1149.77 422.424 1148.67 425.628C1148.13 422.424 1147.31 419.51 1146.22 416.597C1145.95 418.636 1145.67 420.384 1144.86 422.132C1144.04 423.88 1142.67 425.337 1141.04 426.211C1141.31 424.463 1141.85 422.715 1142.4 420.967C1140.49 422.715 1138.58 424.463 1136.67 426.211C1136.67 424.172 1137.49 422.132 1138.85 420.384C1136.94 421.55 1135.04 423.006 1133.67 424.754C1134.22 423.589 1134.22 422.132 1134.22 420.676C1134.22 420.093 1133.94 419.219 1133.94 418.636C1131.49 421.841 1129.03 425.046 1126.85 428.25C1126.85 426.211 1126.85 424.172 1126.85 422.132C1125.49 423.88 1124.4 426.211 1123.85 428.25C1123.31 428.25 1123.03 427.085 1123.31 426.502C1124.12 424.172 1124.67 421.841 1125.49 419.51C1123.03 421.841 1121.4 424.754 1120.31 427.959C1119.49 426.211 1118.94 424.172 1118.67 421.841C1118.4 423.88 1117.85 425.628 1117.58 427.667C1116.76 425.337 1115.94 423.006 1114.85 420.676C1114.85 423.589 1114.03 426.211 1112.39 428.542C1112.12 429.124 1111.3 429.415 1111.03 429.124C1111.3 427.959 1111.58 426.794 1111.85 425.337C1109.12 427.376 1106.12 429.124 1102.85 429.998C1104.76 428.25 1106.94 426.211 1107.21 423.298C1104.76 425.92 1101.76 427.959 1098.76 429.998C1099.85 427.959 1100.94 425.92 1100.39 423.589C1098.48 426.211 1096.03 428.833 1093.57 430.872C1093.3 429.124 1093.85 427.376 1094.94 425.919C1093.3 427.085 1091.94 428.541 1090.85 430.289C1091.12 427.959 1091.66 425.92 1092.48 423.88C1090.3 425.92 1088.39 427.959 1086.48 430.289C1086.48 427.667 1087.3 425.046 1088.66 423.006C1086.21 425.046 1084.3 427.376 1082.93 429.998C1082.93 427.376 1083.48 424.754 1084.57 422.715C1081.84 424.463 1080.75 428.25 1078.57 430.872C1078.02 428.541 1078.57 425.628 1080.21 423.88C1078.3 425.046 1076.39 427.085 1075.3 429.124C1075.02 427.376 1074.75 425.92 1074.21 424.172C1072.84 426.211 1071.75 428.541 1070.39 430.581C1069.84 431.163 1069.3 432.037 1068.48 431.746C1068.2 431.455 1067.93 430.872 1067.93 430.581C1067.93 429.707 1067.66 429.124 1067.66 428.25C1067.11 429.415 1066.84 430.872 1066.3 432.037C1064.93 430.289 1065.2 427.959 1065.48 425.919C1063.29 427.667 1061.66 429.998 1060.84 432.329C1060.02 430.872 1060.02 429.124 1060.02 427.667C1059.2 429.415 1058.66 430.872 1057.84 432.62C1056.75 431.746 1056.75 429.998 1057.02 428.542C1057.02 427.668 1057.29 426.502 1057.29 425.628C1054.57 427.085 1053.47 430.289 1052.38 433.203C1052.11 431.455 1052.11 429.415 1052.66 427.667C1051.29 429.124 1049.93 431.163 1049.11 433.203C1048.56 431.163 1049.11 428.833 1049.66 426.502C1047.75 428.541 1046.38 431.163 1046.11 434.077C1045.56 431.746 1044.75 429.124 1043.38 427.085C1043.38 429.707 1042.56 432.329 1040.93 434.077C1040.65 434.368 1040.38 434.659 1040.11 434.368C1039.84 434.077 1039.84 433.785 1040.11 433.203C1040.65 432.329 1040.93 431.163 1041.47 430.289C1040.11 431.455 1038.74 432.911 1037.38 434.077C1037.65 432.62 1038.2 431.455 1038.74 430.289C1037.11 431.455 1035.47 432.911 1034.11 434.368C1034.38 432.329 1035.2 430.581 1036.29 429.124C1034.65 429.998 1033.02 431.163 1031.65 432.62C1031.65 431.455 1031.65 429.998 1031.65 428.833C1029.74 430.581 1027.83 432.037 1025.65 433.785C1025.38 434.077 1024.83 434.368 1024.56 433.785C1024.29 433.494 1024.56 433.203 1024.83 432.911C1025.65 431.455 1026.74 429.998 1027.56 428.25C1025.11 429.124 1022.92 431.455 1021.01 433.494C1021.01 432.037 1021.29 430.581 1022.1 429.415C1020.74 430.872 1019.65 432.329 1018.56 433.785C1018.56 431.746 1018.56 429.415 1018.01 427.376C1017.19 429.707 1015.83 431.746 1014.19 433.203C1013.92 433.494 1013.65 433.785 1013.38 433.785C1014.19 432.329 1014.74 430.581 1015.01 428.542C1012.83 429.998 1010.92 431.746 1009.28 434.077C1009.56 432.037 1010.38 430.289 1011.19 428.542C1009.83 429.415 1008.47 430.581 1007.1 431.746C1007.37 430.581 1007.65 429.124 1007.65 427.959C1006.28 430.581 1004.37 433.203 1001.92 434.659C1001.65 434.951 1001.37 434.951 1001.1 434.951C1001.65 433.494 1001.92 432.329 1002.46 430.872C1000.83 431.746 999.191 433.203 998.1 434.659C997.555 435.242 997.282 435.533 996.464 435.533C996.464 433.785 997.555 432.329 998.646 430.872C997.009 431.746 995.645 432.911 994.827 434.368C994.554 434.951 994.008 435.242 993.463 435.533C993.19 433.785 994.008 431.746 994.827 429.998C993.19 431.455 991.553 433.494 990.462 435.533C990.462 433.494 990.19 431.163 990.19 429.124C989.371 431.163 988.826 433.203 987.735 434.951C987.735 432.62 987.462 430.581 987.189 428.25C985.825 430.872 983.916 433.203 981.733 434.951C981.461 435.242 981.188 435.242 981.188 435.242C980.915 435.242 980.915 434.659 980.915 434.077C981.461 432.911 981.733 431.746 982.279 430.581C980.642 431.163 979.551 433.203 978.187 434.659C977.914 434.951 977.642 434.951 977.642 434.951C978.187 433.203 978.733 431.746 979.551 430.289C977.642 431.746 975.732 433.494 974.368 435.533C974.641 433.203 975.459 430.581 977.096 428.833C975.187 430.289 973.55 432.037 972.186 434.077C972.186 432.62 971.913 430.872 971.641 429.415C970.277 431.163 968.913 433.203 967.276 434.951C967.003 435.242 967.003 435.242 966.73 435.242C966.458 435.242 966.458 434.951 966.458 434.659C966.185 433.785 966.185 432.911 965.912 432.037C965.367 433.494 964.548 434.659 963.73 436.116C963.73 434.368 963.457 432.62 963.457 430.872C962.366 433.494 960.729 435.533 958.274 436.699C958.002 434.368 958.547 432.037 959.638 430.289C957.729 431.455 956.092 433.203 955.274 435.533C955.001 436.116 954.728 436.699 954.455 436.699C954.455 434.659 954.728 432.911 955.547 431.163C953.092 432.62 950.909 434.951 949.818 437.573C949.273 436.99 949 436.116 949 435.242C949 434.368 949.273 433.494 949.818 432.911C948.454 433.785 947.363 434.951 946.818 436.699C946.818 436.99 946.545 437.281 946.272 437.281C945.999 437.281 945.999 436.699 945.999 436.407C946.272 435.242 946.545 434.077 946.818 432.62C944.908 433.494 944.635 436.407 943.272 437.864C942.999 435.533 942.453 432.911 941.362 430.872C940.816 433.494 939.998 436.407 938.089 438.155C937.816 436.699 938.089 435.242 938.907 434.077C937.27 434.951 935.906 436.407 935.088 438.155C935.088 435.825 935.634 433.494 936.998 431.746C935.634 432.911 934.27 434.077 933.179 435.533C932.906 435.825 932.633 436.116 932.36 436.407C932.088 434.951 931.815 433.494 931.542 432.037C930.451 434.077 929.087 435.825 927.45 437.573C927.177 437.864 926.905 438.155 926.359 438.155C926.086 438.155 926.086 437.864 926.086 437.864C925.541 436.99 925.814 436.116 925.814 434.951C925.814 434.368 926.086 433.785 926.086 433.203C924.45 434.659 922.813 436.407 921.722 438.447C921.449 436.699 921.995 434.659 922.54 432.911C920.904 434.368 919.54 436.116 918.721 438.155C918.449 438.155 918.176 437.864 918.176 437.281C918.176 435.825 918.449 434.368 918.721 433.203C917.085 434.368 915.994 436.116 915.175 438.155C914.63 437.281 914.357 436.407 914.63 435.242C914.902 434.077 915.175 433.203 915.721 432.329C914.63 432.911 913.811 433.785 913.266 434.659C912.72 435.825 912.175 436.99 911.902 437.864C911.084 436.116 910.265 434.077 909.447 432.329C909.447 434.077 909.174 435.825 908.356 437.281C908.083 437.573 907.81 437.864 907.81 437.573L907.537 437.281C907.537 435.825 907.81 434.077 906.992 432.62C905.901 434.368 904.537 435.825 903.173 437.281C903.446 436.116 903.718 434.951 903.718 433.785C902.355 435.242 900.991 436.699 899.627 438.155C899.627 436.116 900.172 434.077 901.263 432.62C899.9 433.785 898.536 434.951 897.445 436.407C896.899 434.951 896.353 433.785 895.808 432.62C894.444 434.077 893.353 435.533 891.989 436.99C891.716 437.281 891.443 437.573 891.171 437.573C890.898 437.573 890.352 437.573 890.352 437.281C890.352 436.99 890.352 436.699 890.352 436.407C890.625 435.242 890.625 434.077 890.898 432.911C889.261 434.077 887.897 435.533 887.079 437.281C887.079 437.573 886.806 437.573 886.806 437.864C886.261 438.155 885.988 437.281 886.261 436.699C886.533 435.242 886.806 434.077 887.624 432.911C885.715 434.077 884.078 435.533 882.987 437.573C882.714 435.825 882.987 433.785 883.533 432.329C881.351 433.785 879.714 436.116 878.896 438.738C877.532 437.281 877.804 434.951 878.35 433.203C876.986 434.659 875.895 436.699 875.349 438.738C874.804 438.738 874.531 438.155 874.531 437.864C874.258 435.825 874.531 433.785 875.349 432.037C873.44 433.494 872.349 435.825 871.53 438.155C870.985 435.825 869.894 433.494 868.803 431.455C868.803 433.785 868.803 436.116 867.984 437.864C867.984 438.155 867.712 438.155 867.712 438.447C867.166 438.738 866.62 438.155 866.62 437.864C866.348 437.281 866.62 436.699 866.62 436.407C866.62 435.825 866.62 435.242 866.348 434.951C865.529 436.407 864.438 437.864 863.347 439.321C863.347 437.864 863.62 436.116 864.165 434.659C862.256 435.825 860.619 437.573 859.528 439.612C859.255 436.99 860.074 434.368 861.71 432.62C860.074 433.785 858.71 435.242 857.346 436.99C857.073 435.825 857.073 434.368 856.528 433.203C855.982 434.368 855.436 435.242 854.891 436.407C854.618 436.699 854.618 436.99 854.073 437.281C853.254 437.573 852.709 436.699 852.709 435.825C852.709 434.951 852.709 434.077 852.436 433.494C851.618 435.242 850.799 436.99 850.526 438.738C849.435 438.155 849.708 436.699 849.708 435.533C849.981 434.368 850.254 433.203 850.526 431.746C848.071 432.62 847.253 435.533 846.435 438.155C845.889 435.533 845.889 432.62 846.435 429.998C844.253 432.037 843.161 434.951 843.434 437.864C842.343 435.533 840.979 433.203 839.343 431.163C839.615 433.785 839.07 436.407 837.706 438.738C837.16 437.281 836.887 435.825 837.16 434.368C835.524 435.242 834.16 436.699 833.069 438.447C832.523 436.99 832.796 435.242 833.341 434.077C831.159 434.659 829.25 436.116 828.159 438.155C827.34 436.116 827.886 433.785 829.25 432.037C826.522 432.62 824.34 435.533 824.067 438.447C822.703 436.407 821.339 434.368 819.975 432.329C820.248 433.785 820.521 435.533 820.248 437.281C819.43 435.242 818.611 433.494 817.52 431.746C817.52 433.785 816.975 435.533 816.156 437.281C816.156 434.659 815.611 432.329 815.065 429.707C814.247 432.62 812.337 435.242 809.882 436.99C810.701 435.825 811.519 434.659 812.337 433.203C810.428 434.368 808.518 435.533 806.609 436.99C807.7 435.533 808.518 434.368 809.61 432.911C807.973 433.785 806.336 434.951 804.972 436.407C804.972 436.407 804.972 436.407 804.972 436.116C805.245 434.951 805.518 433.785 805.245 432.62C802.79 433.494 800.881 436.407 798.426 437.281C798.153 437.281 797.607 437.573 797.607 436.99C797.607 436.699 797.607 436.699 797.607 436.407C798.153 434.659 798.971 432.911 800.335 431.455C797.607 432.62 795.152 434.077 792.697 436.116C792.97 434.077 794.061 432.329 795.152 430.872C792.152 432.037 789.697 434.368 787.242 436.407C787.787 434.077 788.333 431.746 787.787 429.415C786.423 432.037 784.241 434.368 781.786 435.825C782.059 434.368 782.877 432.62 783.968 431.455C781.513 432.329 779.331 433.785 777.149 435.242C777.967 433.494 778.785 431.746 779.877 429.998C777.422 431.455 774.694 432.911 772.512 434.659C774.148 432.911 774.694 429.998 773.875 427.667C772.512 430.581 770.057 433.203 767.329 434.368C767.874 432.329 768.965 430.289 770.602 428.833C768.147 429.998 765.965 431.455 764.055 433.785C764.328 432.037 765.146 430.289 766.51 429.124C764.055 430.581 761.873 432.037 759.964 434.077C759.964 431.746 760.782 429.707 762.419 428.25C760.509 429.707 758.327 431.163 756.963 432.911C757.236 431.163 757.236 429.415 756.963 427.667C755.599 429.415 753.963 430.872 752.053 432.037C752.326 430.872 752.871 429.707 753.144 428.542C751.235 429.415 749.598 430.872 747.961 432.62C748.234 430.581 748.78 428.541 750.144 426.794C747.416 427.959 744.961 429.998 743.597 432.911C743.597 432.911 743.597 432.911 743.324 432.911C743.324 430.581 743.051 428.25 743.051 425.919C741.687 429.124 738.687 431.455 735.414 431.455C737.05 429.415 738.141 426.794 738.687 423.88C736.232 425.337 734.05 426.794 731.595 428.25C730.776 428.833 729.958 429.124 729.14 428.833C729.685 427.667 730.504 426.502 731.595 425.919C728.321 427.085 725.321 428.542 722.047 429.998C722.866 428.25 724.23 426.502 725.593 424.754C723.411 425.628 721.229 427.376 719.592 429.124C720.411 427.085 720.683 424.754 720.138 422.424C719.047 425.628 716.319 428.25 713.318 429.124C714.409 427.667 715.228 426.211 716.046 424.463C713.864 426.211 711.682 427.667 708.954 427.959C710.863 426.502 712.5 424.463 713.318 422.132C711.136 424.172 708.681 425.919 706.226 427.376C707.044 425.337 707.59 423.589 707.863 421.55C707.317 422.715 706.499 423.298 705.681 424.172C704.317 425.337 702.68 426.502 701.316 427.667C701.043 425.628 702.134 423.88 703.771 423.006C701.862 423.88 700.225 425.046 698.588 426.211C698.861 425.337 698.861 424.172 698.861 423.298C698.043 424.463 696.952 425.628 695.588 426.502C695.315 424.463 696.133 422.424 697.224 420.384C695.315 421.55 693.405 423.298 692.042 425.337C691.769 425.628 691.223 426.211 690.95 425.919C690.678 425.628 690.678 425.337 690.678 425.046C690.95 423.006 691.496 421.258 692.314 419.219C689.587 420.093 688.223 423.589 685.768 424.463C686.04 421.841 686.586 419.219 687.95 417.18C685.222 418.928 683.04 421.55 681.676 424.463C681.676 422.132 681.13 419.802 680.039 417.762C679.494 420.384 678.13 422.715 676.493 424.463C675.948 420.967 676.766 416.888 678.675 413.975C675.129 415.723 672.129 418.928 671.31 423.006C670.492 422.424 670.765 421.55 670.765 420.676C671.038 419.51 671.31 418.054 671.583 416.888C669.674 418.345 668.037 420.384 667.219 422.424C666.946 420.384 666.673 418.345 666.946 416.014C665.582 418.054 663.945 419.802 662.036 420.967C661.763 421.258 661.49 421.258 661.217 420.967V420.676C661.217 420.093 661.49 419.219 661.763 418.636C662.581 417.18 663.4 416.014 664.218 414.558C662.036 416.306 659.581 418.054 657.399 419.802C656.853 420.093 656.035 420.676 655.489 420.093C657.126 418.928 657.944 416.597 657.944 414.558C656.58 416.888 654.398 418.636 651.943 419.802C651.67 420.093 651.125 420.093 650.852 419.51C650.852 419.219 650.852 418.928 650.852 418.928C651.397 417.471 652.216 416.306 653.034 415.14C650.852 416.306 648.942 418.054 647.306 419.802H647.033C646.76 417.471 647.306 414.849 648.67 412.81C647.306 414.266 645.669 416.014 644.851 417.762C642.668 412.227 650.852 395.622 652.216 390.96C653.034 388.338 653.852 385.134 652.216 382.803C650.852 381.055 648.67 380.473 646.76 379.599C642.668 377.268 640.213 372.315 640.213 367.072C640.213 362.119 642.396 357.166 645.396 353.379C646.76 355.127 648.67 357.458 651.67 358.332C653.307 353.962 650.852 348.427 649.215 346.679C648.67 346.387 648.397 345.805 648.124 345.513C647.851 344.931 647.578 344.348 647.578 343.474C646.487 337.939 643.76 333.569 639.395 330.364C632.303 324.829 623.028 323.955 614.572 322.499C608.571 321.625 602.57 321.042 596.842 319.003C585.385 314.924 573.928 314.341 566.563 312.302C565.199 312.011 563.835 311.428 562.744 310.554C561.926 309.68 561.38 308.806 560.562 307.932C559.198 305.893 558.107 303.562 557.289 300.94C556.197 296.57 556.47 289.287 558.925 285.209C560.016 283.461 560.562 283.461 562.744 283.461C565.199 283.169 567.109 281.13 567.927 278.8C569.018 276.469 569.291 273.847 570.109 271.516C565.199 270.351 560.562 276.178 555.652 276.178C557.289 273.556 559.471 271.516 562.471 270.351C570.655 267.146 581.02 265.399 588.931 261.32C593.568 258.989 596.842 255.202 599.297 250.541C600.115 250.25 600.933 250.25 601.752 249.958C605.298 248.793 608.298 246.462 610.753 243.549C613.208 240.636 617.573 235.101 617.3 234.227C617.027 233.353 608.298 245.588 600.933 247.045C605.571 236.557 605.57 225.195 604.479 225.487C603.934 225.778 602.297 231.896 601.752 235.101C600.388 242.966 596.023 250.541 590.022 255.202C589.204 255.785 588.385 256.367 587.567 256.95C590.568 253.163 592.204 248.502 593.023 243.549C593.841 236.849 591.659 223.156 590.84 223.447C590.295 223.739 590.568 230.148 590.568 235.392C587.294 231.313 585.112 222.282 584.294 222.574C583.748 222.865 583.748 225.778 584.021 227.235C584.294 228.109 584.566 228.983 584.839 229.565C586.203 233.061 588.113 236.266 590.295 239.47C590.295 241.51 590.022 243.549 589.749 245.588C589.204 247.919 588.385 250.25 587.294 252.58C586.203 255.202 584.294 257.824 581.839 260.155C577.747 261.903 573.383 262.777 569.018 263.651C571.2 260.155 572.564 256.367 571.2 254.037C570.655 253.163 570.655 258.989 564.654 264.525C563.017 264.816 561.38 265.399 560.016 265.981C556.47 267.729 553.47 270.642 551.287 274.138C550.469 273.264 549.378 272.39 548.56 271.808C546.923 270.642 545.286 270.351 543.377 270.06C543.65 267.438 543.377 264.525 542.831 262.194C542.558 260.737 541.74 259.281 541.194 258.115C540.922 249.667 544.195 245.297 543.377 245.588C541.467 246.462 539.831 250.25 539.285 254.328C537.376 250.832 535.739 247.336 534.375 243.549C534.375 240.053 534.921 236.849 535.739 234.227C536.557 231.896 537.103 229.565 538.194 227.235C539.012 225.487 540.103 223.739 541.194 221.991C543.922 221.117 546.65 219.952 549.378 217.912C549.923 217.621 550.469 217.038 551.015 216.456C552.106 215.582 553.742 213.542 553.47 212.96C553.197 212.377 547.196 217.621 543.377 218.786C546.105 214.708 549.651 210.046 549.651 209.464C549.378 208.881 540.922 217.912 537.648 223.447C535.466 227.526 533.557 232.479 533.284 237.431C533.011 236.557 533.011 235.392 533.011 234.518C532.466 226.943 534.102 218.495 537.648 211.503C539.285 208.59 541.74 203.055 541.467 202.472C541.195 201.598 534.921 210.046 531.374 220.534C528.919 214.125 530.829 200.141 530.011 200.724C529.465 201.307 528.647 208.299 528.374 212.086C528.101 215.873 528.374 219.66 529.738 222.865C530.011 223.448 530.011 223.739 530.283 224.322C528.919 229.565 528.374 235.101 529.465 240.344C531.374 248.502 536.012 256.659 538.467 264.525C539.012 266.273 539.285 268.02 539.285 270.06C539.012 270.06 538.739 270.06 538.467 270.06C537.648 270.06 536.83 270.06 536.284 269.477C535.739 269.186 535.193 268.603 534.921 268.021C532.738 265.107 529.738 263.359 526.464 263.068C526.464 268.312 528.374 273.264 531.647 277.052C532.193 277.634 532.738 278.217 532.738 278.8C533.011 279.674 532.738 280.839 532.466 281.713C530.829 286.957 528.919 292.201 526.464 296.862C525.919 297.736 525.373 298.61 525.373 299.775C525.373 301.232 526.464 302.397 527.556 302.98C528.647 303.562 530.011 303.562 531.374 303.271C531.92 303.271 532.466 302.98 533.011 303.271C534.375 303.562 535.193 305.31 535.466 306.767C537.103 313.176 538.194 319.585 538.467 326.286C538.739 330.364 538.739 334.734 540.103 338.522C542.286 345.513 548.287 350.466 552.651 355.71L552.924 356.001C552.924 357.458 552.651 358.914 552.651 360.371C552.651 360.662 552.651 360.662 552.651 360.954C551.833 367.654 550.196 374.355 548.56 380.764C547.468 384.842 546.377 388.63 545.286 392.708C543.922 397.078 541.74 401.448 538.467 404.653C538.739 402.613 539.285 400.574 539.558 398.243C537.921 400.283 536.012 402.322 534.102 403.779C534.648 401.157 535.739 398.535 537.103 396.204C534.648 398.244 532.738 400.283 530.556 402.613C531.92 400.283 532.466 397.37 532.193 394.748C530.556 397.952 528.101 400.865 525.373 402.905C527.283 400.865 528.647 398.243 529.192 395.33C527.283 398.826 524.009 401.739 520.191 402.905C522.646 400.865 524.282 398.244 525.101 395.039C523.737 397.661 521.282 399.7 518.827 400.865C520.463 398.826 521.282 396.204 521.009 393.582C518.827 397.078 515.826 401.157 511.734 400.283C512.825 397.661 514.189 395.33 515.553 393C512.28 394.456 509.552 396.496 506.824 398.826C508.188 395.913 509.825 393.582 512.007 391.543C509.007 392.708 506.552 394.748 504.642 397.661C504.369 395.039 504.097 392.417 503.824 389.795C503.278 392.417 501.914 394.748 500.005 396.204C500.55 394.456 501.096 392.708 502.187 391.252C499.732 392.417 497.55 393.874 495.64 395.913C497.004 393.874 498.368 391.834 499.732 389.795C497.004 390.96 494.276 392.708 492.367 395.33C493.458 392.708 494.276 390.378 495.095 387.464C492.64 388.921 490.458 391.252 489.094 393.874C488.275 391.252 487.457 388.338 486.366 386.008C486.366 388.921 485.547 391.543 484.184 393.874C483.638 390.086 484.184 386.008 485.547 382.512C482.001 384.551 480.365 388.921 479.001 392.708C478.455 389.795 478.182 386.59 478.728 383.677C477.091 385.716 475.727 388.338 474.909 390.96C473 388.338 472.181 385.134 472.454 382.221C471.363 384.551 470.817 386.882 470.817 389.504C469.726 387.464 469.181 384.842 469.726 382.512C468.908 384.551 468.362 386.882 468.09 388.921C466.453 386.882 465.635 383.677 466.18 380.764C464.816 382.512 463.998 384.551 463.18 386.59C461.27 385.134 459.633 383.095 457.724 381.347C455.542 379.307 455.542 377.851 455.815 374.937C455.815 373.772 456.087 372.315 456.087 370.859C457.451 373.189 459.906 377.559 461.27 377.559C462.361 377.559 462.907 376.394 462.907 375.229C462.907 374.063 462.634 373.189 462.361 372.024C462.088 369.402 463.452 366.78 465.089 364.741C466.726 362.702 468.908 361.245 470.545 358.914C474.636 353.67 474.636 346.387 475.727 339.978C477.364 331.53 480.91 323.664 484.184 316.089C486.911 309.68 487.73 302.397 486.366 295.697C485.82 292.492 484.729 289.579 483.911 286.665C483.365 283.461 483.092 280.548 482.82 277.343C482.274 271.225 482.001 264.525 481.456 258.407C481.729 257.241 482.001 255.785 482.274 254.619C482.82 252.872 483.365 251.124 483.911 249.376C484.456 247.045 484.184 244.423 483.911 242.092C483.638 239.762 483.365 237.14 482.547 234.809C485.002 234.227 487.457 233.353 489.366 231.605C492.094 229.274 494.004 225.778 494.004 221.991C490.458 225.195 485.547 225.195 480.91 226.652C481.456 223.156 482.547 219.952 485.002 217.038C491.549 209.464 500.823 202.181 506.552 194.024C510.098 189.362 511.462 183.536 511.734 178.001C512.553 177.418 513.098 176.835 513.917 175.961C516.644 173.048 518.554 168.969 519.645 165.182C520.736 161.104 522.373 153.529 521.554 152.655C521.009 152.072 518.008 168.387 511.462 173.922C511.189 161.395 505.733 150.033 504.915 150.907C504.369 151.49 505.733 158.19 506.824 161.686C509.279 170.135 508.461 179.749 504.642 187.614C504.096 188.78 503.551 189.654 503.005 190.528C504.096 185.284 503.551 179.457 501.914 174.505C499.732 167.513 491.003 155.277 490.458 155.86C489.912 156.442 493.185 162.56 495.64 167.804C490.458 165.474 484.184 157.899 483.638 158.482C483.092 159.064 484.456 161.686 485.547 163.143C486.093 163.726 486.639 164.599 487.457 165.182C490.458 167.804 494.004 169.843 497.277 171.883C498.095 173.922 499.186 175.961 499.459 178.292C500.005 180.914 500.278 183.827 500.278 186.449C500.278 189.654 499.732 193.15 498.368 196.937C495.095 200.724 491.276 203.929 487.457 207.133C488.003 202.472 487.457 198.102 485.002 196.645C483.911 196.063 486.911 201.598 483.365 210.629C482.001 211.794 480.637 212.96 479.546 214.708C477.091 217.912 475.727 221.7 475.182 225.487C471.909 224.03 468.09 224.321 465.089 225.487H464.816C463.998 221.408 462.634 217.621 460.452 214.416C459.361 212.96 457.997 211.794 456.633 210.338C453.087 201.598 456.087 195.771 454.996 196.354C452.541 197.811 451.996 202.472 452.541 206.842C448.722 203.929 444.903 200.433 441.63 196.645C440.266 193.15 439.721 189.362 439.721 186.158C439.721 183.536 439.993 180.623 440.539 178.001C441.084 175.67 441.903 173.631 442.721 171.591C446.267 169.843 449.541 167.513 452.541 164.891C453.087 164.308 453.905 163.726 454.451 162.852C455.542 161.686 456.906 158.773 456.36 158.19C455.814 157.608 449.541 165.182 444.358 167.513C446.813 162.56 450.086 156.151 449.541 155.568C448.995 154.986 440.266 166.93 438.084 174.213C436.447 179.457 435.902 184.992 436.993 190.236C436.447 189.362 435.902 188.197 435.356 187.323C431.537 179.457 430.719 169.843 433.174 161.395C434.265 157.899 435.629 151.198 435.083 150.616C434.265 149.742 428.809 160.812 428.537 173.631C421.99 168.387 419.262 151.781 418.444 152.364C417.625 153.238 419.262 160.812 420.353 164.891C421.444 168.969 423.354 172.757 426.082 175.67C426.9 176.253 427.445 177.127 428.264 177.709C428.537 183.244 430.173 189.071 433.447 193.732C439.448 201.889 448.722 209.173 454.996 216.747C456.906 219.078 457.997 221.7 458.542 224.322C456.906 223.739 454.996 223.448 453.36 223.156C450.905 222.574 448.177 221.117 447.086 218.786C446.54 223.156 448.177 227.526 450.904 230.731C452.268 232.479 454.178 233.644 456.087 234.518C455.815 235.683 455.815 237.14 455.542 238.305C454.996 247.336 453.087 255.202 450.632 263.651C450.086 265.399 449.541 267.146 448.722 268.894C444.903 276.178 435.629 278.508 428.537 281.13C422.535 283.169 416.807 285.5 410.806 287.539C402.35 290.453 393.348 294.24 388.711 302.106C386.801 305.31 385.437 309.389 382.437 311.72C385.437 313.467 389.256 313.467 391.984 311.428C390.62 312.302 393.348 321.042 393.621 322.207C394.166 325.703 394.985 329.782 394.439 333.278C394.166 335.9 393.075 338.522 391.984 340.852C389.802 344.931 386.801 348.427 383.528 351.34C382.164 352.505 380.527 353.671 379.982 355.419C379.709 356.292 379.709 357.166 379.982 358.04C380.255 361.536 380.527 364.741 381.073 368.237C381.346 369.693 381.618 370.859 381.346 372.315C381.073 373.481 379.163 376.103 379.163 373.481C379.163 372.607 379.436 372.024 379.163 371.15C378.345 372.607 377.8 374.063 376.981 375.52C376.981 373.189 376.981 370.859 376.981 368.237C376.709 371.15 374.799 373.481 372.617 374.937C373.708 373.189 374.253 370.859 373.981 368.528C373.435 370.859 372.071 373.189 369.889 374.355C370.98 372.024 372.071 369.111 370.98 366.78C369.071 369.402 366.888 372.024 364.161 373.772C364.979 371.441 365.525 369.111 366.07 366.78C363.615 368.528 361.433 370.859 359.796 373.481C359.523 370.859 359.796 368.237 360.615 365.615C357.887 367.654 355.977 370.567 354.886 373.772C353.522 371.441 352.158 368.819 350.794 366.489C351.886 366.489 352.977 366.489 353.795 366.198C344.793 356.001 324.608 323.664 320.243 314.341C321.607 315.507 323.244 316.381 325.153 316.672C321.88 311.719 320.243 309.68 318.061 304.145C320.789 306.184 322.698 306.476 324.608 306.767C317.243 295.697 309.605 279.091 304.967 266.273C307.422 268.02 309.059 269.186 312.332 269.186C309.877 264.816 307.422 260.446 304.695 256.076C306.331 258.115 308.786 259.572 311.514 260.446C303.604 250.25 301.149 245.006 297.057 233.644C298.421 234.227 299.512 234.809 300.876 235.392C299.239 232.77 298.148 229.857 297.602 226.943C298.966 227.235 300.057 227.526 301.421 228.109C291.056 215.873 290.51 201.889 286.691 185.284C287.782 186.449 288.055 187.032 289.146 187.614C285.6 182.37 284.236 175.67 283.418 169.843C283.418 174.213 280.69 186.74 278.508 191.11C279.326 190.528 279.326 191.11 280.145 189.945C278.508 197.811 277.144 200.141 274.689 205.968C275.235 205.968 275.507 205.677 276.326 204.803C275.507 211.503 274.689 215.873 270.324 226.943C271.688 226.943 272.234 225.778 273.598 224.613C272.507 227.235 270.87 229.565 268.961 231.313C270.052 231.022 270.87 230.731 271.688 229.857C271.688 232.187 264.323 252.289 257.231 267.729C259.413 267.729 261.596 266.273 262.141 264.525C260.504 271.516 257.777 278.217 253.685 284.335C256.685 283.461 259.686 281.713 261.596 279.382C259.686 287.248 256.686 294.24 253.412 301.232C250.139 294.24 247.411 288.122 246.32 284.626C247.684 286.374 249.593 287.539 251.503 287.539C247.957 280.839 246.32 277.926 244.138 270.351C247.138 273.264 249.048 273.556 251.23 273.847C243.319 258.698 235.136 235.683 230.499 218.495C233.226 220.826 234.863 222.282 238.136 222.574C235.409 216.456 232.681 210.629 230.226 204.511C232.135 207.133 234.59 209.172 237.318 210.629C228.862 196.645 226.407 189.654 221.77 173.631C223.134 174.505 224.498 175.087 225.861 175.961C224.225 172.174 222.861 168.387 222.315 164.308C223.679 164.891 225.043 165.182 226.407 165.765C215.223 149.159 214.677 129.932 210.859 107.208C211.95 108.956 212.495 109.83 213.586 110.413C210.04 103.13 208.404 94.3898 207.585 85.9414C207.585 91.7679 204.585 108.956 202.402 115.074C203.221 114.2 203.221 115.074 204.039 113.617C202.13 124.396 200.766 127.601 198.311 135.758C198.856 135.758 199.129 135.176 200.22 134.302C199.402 143.333 198.583 149.451 193.673 164.6C195.31 164.6 195.856 163.143 197.22 161.686C196.128 165.182 194.492 168.387 192.037 171.009C193.128 170.717 193.946 170.135 194.765 169.261C194.765 172.174 186.854 199.85 179.489 221.117C181.944 221.117 184.126 219.078 184.672 216.456C183.035 225.778 180.034 235.101 175.67 243.258C178.943 242.092 181.944 239.47 183.853 236.557C181.944 246.171 179.216 254.911 176.216 263.651C173.761 258.115 171.851 253.746 170.76 250.541C172.397 252.58 174.852 254.037 177.307 254.328C172.942 245.88 170.76 242.384 168.032 232.77C171.851 236.266 174.033 236.849 177.034 237.14C166.941 217.912 156.848 189.362 150.847 167.513C154.393 170.717 156.303 172.465 160.667 172.465C157.394 164.891 153.848 157.316 150.574 149.742C153.029 152.946 156.03 155.86 159.576 157.316C148.938 139.837 145.664 130.806 139.936 110.995C141.573 111.869 143.482 113.035 145.119 113.909C142.936 109.248 141.573 104.295 140.754 99.0511C142.391 99.6337 144.3 100.216 145.937 100.799C132.025 79.8235 131.207 55.9347 126.297 27.0933C127.661 29.424 128.206 30.2979 129.57 31.1719C124.933 22.1408 123.024 10.779 122.205 0.5826C122.205 7.86577 118.659 29.7153 115.659 37.2898C116.75 36.1245 116.75 37.2898 117.841 35.2505C115.658 48.9429 113.749 53.0215 110.476 62.9266C111.294 62.9266 111.567 62.3439 112.931 60.8873C111.84 72.249 110.748 79.8235 104.747 99.0511C106.657 99.0511 107.475 97.303 109.112 95.2638C107.748 99.6337 105.566 103.712 102.838 106.917C104.202 106.625 105.293 105.752 106.384 104.586C106.111 108.373 96.5639 143.041 87.2894 169.843C90.29 169.843 93.0178 167.221 93.5634 164.017C91.3811 175.961 87.5622 187.323 82.3794 197.811C86.4711 196.354 90.29 193.15 92.745 189.071C87.5622 215.29 78.0149 236.849 67.1038 261.903C72.0138 260.155 76.651 256.95 80.4699 253.163C78.5605 254.911 77.4694 260.737 76.651 263.359C75.2871 266.855 73.6505 270.351 72.0138 273.847C69.0132 280.839 65.7398 287.539 62.1937 294.24C55.647 307.35 50.1914 320.459 43.0991 333.278C45.2814 331.53 47.4636 329.782 49.9186 328.616C48.5547 333.569 45.5542 340.561 43.3719 345.222C29.4602 345.805 15.0029 346.387 0 347.261C4.91003 414.849 8.18339 456.509 13.3662 524.388L97.9278 537.789C530.011 568.961 1637.22 556.143 1755.88 550.899C1822.44 547.985 1899.09 533.419 1917.37 490.011C1922.28 473.697 1919.55 455.926 1915.46 439.029ZM454.723 335.026C455.542 332.404 456.633 329.782 457.997 327.451C458.27 327.451 458.542 327.451 459.088 327.451C460.452 327.742 460.725 328.616 460.997 330.073C461.816 333.278 462.088 336.774 462.088 339.978C462.088 343.183 462.361 346.679 462.361 349.883C462.361 350.757 462.361 351.923 462.361 352.797C462.088 353.962 461.543 354.836 460.997 356.001C459.361 358.623 457.724 360.954 455.542 362.993C454.723 363.867 453.632 364.741 452.814 365.906C452.814 360.371 452.541 342.309 454.723 335.026ZM85.9255 339.687C85.9255 339.978 85.9255 339.978 85.9255 340.269C85.6528 339.687 85.38 339.104 85.1072 338.522C85.38 338.23 85.9255 338.23 86.1983 337.939C86.1983 338.23 85.9255 339.104 85.9255 339.687ZM93.8361 341.144C93.5634 340.852 93.2906 340.852 93.0178 340.561C93.2906 340.561 93.2906 340.269 93.5634 340.269L93.8361 340.561C93.8361 340.561 93.8361 340.852 93.8361 341.144ZM333.882 363.576C333.882 363.576 333.609 363.284 333.882 363.576C333.882 363.284 333.882 363.284 333.882 363.576C333.882 363.576 333.882 363.284 333.882 363.576ZM343.975 367.946C343.429 368.528 342.338 368.82 341.793 368.528C340.702 367.363 340.702 365.906 341.247 364.45C342.338 364.741 343.429 364.741 344.52 365.032C344.52 365.324 344.52 365.615 344.52 366.198C344.52 366.78 344.52 367.363 343.975 367.946ZM410.26 379.307C410.26 379.599 410.26 379.89 409.988 380.181C409.169 378.142 408.624 375.811 407.805 373.772C406.987 374.937 406.169 376.394 405.623 377.851C405.896 374.937 406.169 371.733 406.441 368.82C406.441 371.733 404.805 374.355 402.35 375.811C403.714 373.772 404.805 371.733 405.35 369.402C402.895 372.024 400.168 374.646 397.167 376.394C398.804 374.355 399.895 371.733 399.622 369.111C398.531 371.733 396.894 373.772 394.712 375.52C395.53 373.481 395.803 371.441 395.53 369.111C394.712 370.567 393.894 372.024 393.075 373.481C393.075 372.315 393.075 371.15 393.075 369.693C392.257 370.859 391.439 371.733 390.62 372.898C390.347 371.733 390.347 370.567 390.075 369.402C389.802 370.567 389.529 371.733 388.984 372.898C388.984 373.189 388.711 373.481 388.438 373.481C388.165 373.481 388.165 373.481 387.892 373.189C383.801 369.985 384.346 364.741 384.346 359.788C384.346 357.166 386.256 355.71 388.165 354.544C390.347 353.088 392.257 351.34 394.166 349.301C396.076 347.261 397.713 344.931 399.895 343.183C401.531 341.726 403.441 340.561 405.35 339.396C405.35 339.396 405.623 339.396 405.623 339.104C404.532 342.309 403.168 345.222 401.259 347.844C400.713 348.718 399.895 349.592 399.895 350.757C399.895 351.923 400.44 352.797 401.259 353.671C403.441 356.875 405.078 360.371 406.441 364.158C408.896 368.82 411.351 373.772 410.26 379.307ZM432.628 381.929C432.628 381.929 432.356 381.929 432.628 381.929C432.356 379.599 432.628 377.268 433.174 374.937C431.537 376.977 430.446 379.307 429.628 381.638C428.809 380.473 429.082 379.016 429.628 377.559C430.173 376.103 430.719 374.937 430.719 373.481C428.537 375.52 426.9 378.142 426.082 381.055C425.809 379.016 424.718 376.685 423.081 375.229C423.627 376.977 423.627 379.307 422.808 381.055C422.263 379.016 420.899 377.559 418.989 376.394C415.443 374.355 415.443 370.567 414.898 366.78C414.352 364.158 413.534 361.536 412.988 358.914C412.443 356.875 411.897 354.253 412.715 352.505C413.261 351.34 414.352 350.757 415.443 349.883C421.99 345.222 428.537 340.269 432.628 332.986C433.174 331.821 433.719 330.364 434.265 329.199C435.902 329.782 437.266 330.656 438.357 332.112C439.175 333.278 439.721 334.734 439.993 335.9C442.176 344.057 443.812 352.214 444.903 360.662C445.722 367.946 447.358 374.355 445.449 381.638C445.449 382.221 445.176 382.803 444.631 382.803C444.085 382.803 444.085 382.221 443.812 381.638C443.539 379.307 443.539 376.977 443.539 374.646C441.63 376.685 440.266 379.307 439.721 381.929C439.993 379.307 440.266 376.685 440.539 374.355C438.902 376.685 437.811 379.016 437.265 381.638C436.72 378.142 435.902 374.937 434.538 371.733C434.81 375.229 433.992 379.016 432.628 381.929ZM572.564 373.772C573.11 368.819 575.292 363.576 579.656 362.119C581.839 361.245 584.294 361.828 586.749 362.41C596.569 364.45 601.479 366.489 609.389 368.528C610.48 373.189 613.208 376.977 616.209 380.473C618.118 382.803 620.028 385.134 622.21 387.173C622.756 387.756 623.574 388.63 623.574 389.504C623.574 390.086 623.574 390.669 623.574 391.252C622.756 395.913 619.209 399.409 617.027 403.487C614.845 407.857 610.208 410.479 608.025 414.849C609.117 412.81 609.662 410.771 610.208 408.44C608.298 410.479 606.662 412.81 605.298 415.14C605.57 412.81 606.116 410.479 606.389 408.149C604.479 410.188 602.843 412.519 601.479 415.14C601.752 411.936 602.297 408.731 603.115 405.818C600.933 407.275 599.297 409.314 598.205 411.936C598.751 409.897 599.024 407.857 599.569 405.818C597.387 407.857 595.478 410.479 594.114 413.392C595.205 411.062 596.023 408.44 595.75 406.109C594.659 409.314 592.204 412.227 589.476 413.684C591.659 411.353 593.295 408.44 593.841 405.235C591.659 408.731 588.658 411.645 585.112 413.392C586.749 410.479 588.385 407.275 589.749 404.361C587.294 406.401 585.112 408.44 582.93 410.771C583.748 408.731 584.839 406.692 585.385 404.653C583.748 406.983 581.839 409.314 580.202 411.645C580.202 409.314 580.475 406.692 581.293 404.653C580.202 406.983 578.565 409.023 576.656 410.479C576.11 408.149 576.383 405.527 577.747 403.487C575.838 404.944 574.746 406.692 573.928 409.023C572.564 403.487 572.837 397.37 572.291 391.834C572.291 385.425 571.746 379.599 572.564 373.772ZM551.56 384.843C552.651 382.221 554.015 379.307 555.379 376.685C555.925 375.811 559.744 369.402 559.471 368.82C560.016 369.985 560.562 371.441 561.107 372.898C564.108 382.512 566.563 393.291 566.29 403.487C566.29 404.361 566.29 405.527 565.745 406.401C565.199 407.275 564.381 408.149 563.29 408.149C564.108 406.109 564.381 403.779 563.835 401.448C563.017 403.779 561.653 405.818 560.289 407.857C560.562 404.944 560.289 401.739 560.016 398.826C559.471 401.739 558.38 404.653 556.47 406.692C556.47 403.779 557.016 401.157 557.834 398.243C555.925 400.283 554.288 402.905 553.47 405.818C553.742 403.487 554.015 401.157 554.288 399.117C552.378 400.865 551.287 403.487 551.287 405.818C550.196 404.07 549.651 402.322 549.378 400.283C548.832 402.031 548.56 404.07 548.56 405.818C543.922 399.7 548.832 390.96 551.56 384.843ZM641.85 397.37C641.305 401.739 640.486 406.109 639.122 410.479C638.577 412.519 638.577 413.684 636.667 414.849C636.667 414.558 636.94 414.266 636.94 414.266C636.122 414.849 635.303 415.432 634.485 416.014C633.667 416.306 632.848 416.597 632.03 416.888C632.303 415.723 633.121 414.266 633.667 413.392C631.485 414.849 629.575 416.888 628.211 419.219C628.757 416.597 628.484 413.975 627.938 411.353C627.393 414.849 624.392 418.054 621.119 418.636C621.937 416.888 624.119 416.014 624.392 414.266C621.937 415.723 619.482 416.888 616.754 417.18C617.846 415.432 619.209 413.975 620.573 412.81C618.391 413.684 616.482 414.558 614.845 416.014C617.846 412.518 620.301 409.023 622.756 405.235C624.938 402.031 627.938 399.118 630.666 396.496C631.757 395.33 632.848 394.165 632.848 392.708C632.848 391.834 632.576 391.252 632.303 390.378C631.485 388.338 630.666 386.59 629.848 384.551C632.03 386.299 634.485 388.047 637.213 389.795C638.85 390.96 641.032 391.834 641.577 393.874C642.123 394.748 641.85 395.913 641.85 397.37ZM1493.47 307.641C1493.47 307.35 1493.19 306.767 1493.19 306.476C1493.47 306.184 1493.74 306.184 1494.01 305.893L1494.29 306.184C1494.01 306.767 1493.74 307.058 1493.47 307.641ZM1569.57 261.32C1569.3 260.446 1569.3 259.572 1569.03 258.698C1569.03 258.698 1569.3 258.698 1569.3 258.407C1569.57 258.698 1569.85 259.281 1570.12 259.572C1570.12 260.155 1569.85 260.737 1569.57 261.32ZM1672.68 251.998C1672.41 251.415 1672.14 250.541 1671.87 249.958C1672.96 249.376 1673.77 248.793 1674.59 247.919C1674.05 248.793 1673.5 250.25 1672.68 251.998Z" fill="url(#paint0_linear_3_5992)"/>
<defs>
<linearGradient id="paint0_linear_3_5992" x1="958.778" y1="557.759" x2="958.778" y2="-0.469615" gradientUnits="userSpaceOnUse">
<stop offset="0.0481684" stop-color="#2A3950"/>
<stop offset="0.3854" stop-color="#2A3950"/>
<stop offset="0.9946" stop-color="#006270"/>
</linearGradient>
</defs>
</svg>
