<svg width="273" height="157" viewBox="0 0 273 157" fill="none" xmlns="http://www.w3.org/2000/svg">
<path opacity="0.28" fill-rule="evenodd" clip-rule="evenodd" d="M38.6425 0.881592L60.2278 10.942L59.4731 12.5613L39.5047 3.25446L3.25251 80.7417L73.5876 113.761L110.007 36.2773L87.4603 25.7658L88.2152 24.1466L112.386 35.4153L74.4448 116.137L0.878296 81.6007L38.6425 0.881592Z" fill="white"/>
<path opacity="0.28" fill-rule="evenodd" clip-rule="evenodd" d="M42.089 17.2036L97.2994 43.1717L82.7808 74.1138L27.5704 48.1458L42.089 17.2036ZM42.9467 19.5813L29.9458 47.2888L81.923 71.7361L94.9239 44.0286L42.9467 19.5813Z" fill="white"/>
<path opacity="0.28" fill-rule="evenodd" clip-rule="evenodd" d="M19.4078 72.2251C18.3846 74.7423 19.438 77.6605 21.7345 78.8167C24.2197 79.9814 27.1196 78.9549 28.2816 76.4828C29.4531 73.9903 28.4265 71.08 25.9552 69.9156C23.4744 68.7468 20.5774 69.7642 19.4078 72.2251ZM17.7816 71.485C19.3722 68.1008 23.3516 66.7141 26.7166 68.2995C30.0977 69.8925 31.481 73.8757 29.8984 77.2427C28.3077 80.627 24.3284 82.0137 20.9634 80.4282L20.9537 80.4237L20.9442 80.4189C17.7452 78.8175 16.3926 74.8594 17.7639 71.5252L17.7722 71.5049L17.7816 71.485Z" fill="white"/>
<path opacity="0.28" fill-rule="evenodd" clip-rule="evenodd" d="M68.8159 90.0791C66.3285 88.9071 63.4225 89.9331 62.2591 92.4084C61.0876 94.9009 62.1141 97.8112 64.5855 98.9756C67.0729 100.148 69.9789 99.1215 71.1423 96.6463C72.3138 94.1538 71.2873 91.2435 68.8159 90.0791ZM60.6423 91.6485C62.233 88.2642 66.2123 86.8775 69.5773 88.463C72.9584 90.056 74.3417 94.0392 72.7591 97.4062C71.1684 100.79 67.1891 102.177 63.8241 100.592C60.443 98.9987 59.0597 95.0155 60.6423 91.6485Z" fill="white"/>
<path opacity="0.28" fill-rule="evenodd" clip-rule="evenodd" d="M8.35237 82.9108L22.7047 89.7072L16.4734 102.919C15.2402 105.588 11.9525 106.852 9.24077 105.409L4.78919 103.352C2.1089 102.113 0.873511 98.8284 2.11497 96.1354L2.11825 96.1282L8.35237 82.9108ZM9.2049 85.2912L3.73585 96.8866C2.9143 98.6738 3.74457 100.901 5.53858 101.73L10.039 103.81L10.0632 103.823C11.8208 104.77 14.0228 103.967 14.8527 102.167L14.856 102.16L20.328 90.5584L9.2049 85.2912Z" fill="white"/>
<path opacity="0.28" fill-rule="evenodd" clip-rule="evenodd" d="M52.5899 103.764L66.9422 110.56L60.7109 123.772C59.448 126.506 56.3178 127.482 53.5246 126.283L53.5133 126.278L49.0267 124.205C46.3464 122.966 45.1111 119.681 46.3525 116.988L46.3558 116.981L52.5899 103.764ZM53.4424 106.144L47.9734 117.739C47.1518 119.527 47.9821 121.754 49.7761 122.583L54.2399 124.646C56.2615 125.508 58.2879 124.761 59.0902 123.02L59.0935 123.013L64.5655 111.411L53.4424 106.144Z" fill="white"/>
<path opacity="0.28" fill-rule="evenodd" clip-rule="evenodd" d="M62.9648 3.57068L93.0921 17.7409L86.9172 30.901L56.7899 16.7307L62.9648 3.57068ZM63.8226 5.94836L59.1654 15.8738L86.0594 28.5233L90.7166 18.5979L63.8226 5.94836Z" fill="white"/>
<path opacity="0.26" fill-rule="evenodd" clip-rule="evenodd" d="M131.21 53.7646C131.594 53.6 132.038 53.7774 132.203 54.1608L131.508 54.4589C132.203 54.1608 132.203 54.1607 132.203 54.1608L132.204 54.1652L132.209 54.1764L132.227 54.2192C132.243 54.2568 132.267 54.3122 132.297 54.385C132.357 54.5307 132.446 54.7459 132.559 55.0271C132.785 55.5893 133.108 56.415 133.5 57.4737C133.645 57.865 133.446 58.2997 133.054 58.4447C132.663 58.5897 132.228 58.3901 132.083 57.9988C131.696 56.9537 131.378 56.1407 131.157 55.5902C131.046 55.3149 130.96 55.1054 130.902 54.9652C130.872 54.8951 130.85 54.8424 130.835 54.8076L130.819 54.7687L130.814 54.7573M134.853 63.7347C135.251 63.6101 135.675 63.832 135.799 64.2303C136.437 66.2686 137.107 68.5641 137.762 71.0666C137.868 71.4703 137.626 71.8832 137.223 71.9889C136.819 72.0947 136.406 71.8531 136.3 71.4495C135.651 68.9718 134.988 66.6992 134.357 64.6813C134.233 64.283 134.455 63.8592 134.853 63.7347ZM138.506 77.4164C138.915 77.3303 139.315 77.5916 139.402 77.9999C139.874 80.2416 140.312 82.5871 140.691 85.0112C140.756 85.4235 140.474 85.81 140.062 85.8745C139.649 85.9391 139.263 85.6572 139.198 85.2449C138.823 82.849 138.39 80.5296 137.923 78.3115C137.837 77.9032 138.098 77.5024 138.506 77.4164ZM140.766 91.3994C141.182 91.359 141.551 91.663 141.591 92.0783C141.818 94.4117 141.978 96.7917 142.052 99.1991C142.065 99.6162 141.737 99.9646 141.32 99.9775C140.903 99.9903 140.554 99.6625 140.542 99.2455C140.469 96.8741 140.311 94.5275 140.087 92.2246C140.047 91.8093 140.351 91.4398 140.766 91.3994ZM126.519 101.695C125.462 101.6 124.344 101.612 123.156 101.741C121.804 101.889 120.624 102.161 119.598 102.535C119.206 102.678 118.772 102.476 118.629 102.084C118.486 101.692 118.688 101.258 119.08 101.115C120.235 100.695 121.536 100.398 122.992 100.239C124.273 100.099 125.492 100.086 126.654 100.19C127.07 100.227 127.377 100.595 127.339 101.01C127.302 101.426 126.935 101.732 126.519 101.695ZM132.516 102.722C132.732 102.364 133.196 102.249 133.554 102.465C135.547 103.667 137.336 105.277 139.009 107.166C139.285 107.479 139.256 107.956 138.944 108.233C138.631 108.509 138.154 108.48 137.877 108.168C136.274 106.357 134.6 104.86 132.773 103.759C132.416 103.543 132.301 103.079 132.516 102.722ZM141.285 105.551C141.702 105.57 142.024 105.923 142.005 106.34C141.897 108.711 141.691 111.09 141.371 113.461C141.315 113.874 140.935 114.164 140.521 114.108C140.108 114.053 139.818 113.672 139.874 113.259C140.187 110.936 140.389 108.601 140.496 106.271C140.515 105.854 140.868 105.532 141.285 105.551ZM114.097 106.02C114.474 106.199 114.635 106.65 114.456 107.027C113.511 109.021 113.271 111.453 113.609 114.065C113.662 114.479 113.37 114.858 112.956 114.911C112.543 114.965 112.164 114.673 112.11 114.259C111.747 111.455 111.986 108.71 113.091 106.379C113.269 106.002 113.72 105.842 114.097 106.02ZM142.236 112.617C142.582 112.385 143.052 112.478 143.284 112.825C144.538 114.697 145.777 116.702 147.042 118.773C147.26 119.129 147.147 119.594 146.791 119.812C146.435 120.029 145.97 119.917 145.753 119.561C144.488 117.49 143.263 115.51 142.028 113.665C141.796 113.319 141.889 112.849 142.236 112.617ZM266.542 118.635C266.886 118.871 266.974 119.341 266.738 119.685C266.126 120.579 265.471 121.503 264.773 122.451C264.526 122.787 264.053 122.859 263.717 122.612C263.381 122.364 263.309 121.891 263.556 121.555C264.243 120.622 264.888 119.711 265.492 118.831C265.727 118.487 266.198 118.399 266.542 118.635ZM139.501 119.587C139.907 119.685 140.156 120.093 140.058 120.499C139.777 121.659 139.464 122.813 139.116 123.958C138.697 125.339 138.232 126.57 137.724 127.66C137.548 128.038 137.098 128.202 136.72 128.026C136.342 127.849 136.178 127.4 136.354 127.022C136.828 126.005 137.269 124.842 137.671 123.519C138.009 122.403 138.315 121.277 138.589 120.143C138.687 119.738 139.095 119.489 139.501 119.587ZM114.729 120.747C115.108 120.571 115.557 120.735 115.733 121.114C116.787 123.383 118.147 125.537 119.685 127.376C119.953 127.696 119.91 128.172 119.59 128.44C119.27 128.708 118.794 128.665 118.526 128.345C116.9 126.401 115.47 124.135 114.362 121.75C114.187 121.372 114.351 120.922 114.729 120.747ZM149.66 124.49C150.013 124.267 150.48 124.374 150.702 124.727C151.917 126.658 153.188 128.605 154.548 130.532C154.788 130.873 154.707 131.344 154.366 131.585C154.025 131.826 153.554 131.744 153.313 131.403C151.933 129.448 150.647 127.476 149.423 125.531C149.201 125.178 149.307 124.712 149.66 124.49ZM260.478 126.712C260.796 126.982 260.836 127.458 260.566 127.777C259.161 129.434 257.638 131.12 255.993 132.802C255.701 133.1 255.223 133.105 254.925 132.813C254.627 132.522 254.621 132.043 254.913 131.745C256.531 130.091 258.03 128.432 259.413 126.8C259.683 126.482 260.16 126.442 260.478 126.712ZM124.238 132.376C124.426 132.003 124.881 131.854 125.253 132.042C127.567 133.212 129.84 133.414 131.87 132.361C132.241 132.169 132.697 132.313 132.889 132.684C133.081 133.054 132.936 133.51 132.566 133.702C129.984 135.042 127.18 134.71 124.571 133.391C124.199 133.203 124.05 132.748 124.238 132.376ZM157.708 135.942C158.027 135.673 158.503 135.713 158.772 136.032C160.238 137.771 161.808 139.457 163.509 141.06C163.813 141.346 163.827 141.824 163.541 142.128C163.255 142.431 162.777 142.446 162.473 142.159C160.725 140.512 159.115 138.783 157.617 137.007C157.348 136.688 157.389 136.211 157.708 135.942ZM251.131 136.413C251.406 136.726 251.375 137.204 251.061 137.479C249.398 138.94 247.636 140.374 245.775 141.759C245.441 142.008 244.967 141.939 244.718 141.604C244.469 141.269 244.538 140.796 244.873 140.547C246.7 139.188 248.429 137.779 250.064 136.344C250.378 136.068 250.855 136.099 251.131 136.413ZM240.392 144.546C240.611 144.901 240.501 145.367 240.147 145.586C238.253 146.757 236.272 147.867 234.205 148.9C233.831 149.086 233.378 148.934 233.191 148.561C233.005 148.188 233.156 147.734 233.53 147.548C235.555 146.537 237.495 145.449 239.352 144.301C239.707 144.082 240.173 144.191 240.392 144.546ZM167.772 145.618C168.014 145.278 168.486 145.2 168.826 145.442C170.644 146.742 172.596 147.946 174.7 149.03C175.071 149.221 175.217 149.677 175.026 150.048C174.835 150.419 174.379 150.565 174.008 150.374C171.836 149.255 169.823 148.012 167.947 146.672C167.608 146.429 167.529 145.957 167.772 145.618ZM228.404 150.677C228.555 151.066 228.361 151.503 227.972 151.654C225.896 152.456 223.744 153.176 221.514 153.8C221.112 153.912 220.695 153.677 220.583 153.276C220.47 152.874 220.705 152.457 221.107 152.344C223.289 151.734 225.395 151.029 227.427 150.244C227.816 150.094 228.254 150.287 228.404 150.677ZM180.079 152.209C180.216 151.815 180.647 151.606 181.041 151.743C183.117 152.465 185.324 153.081 187.673 153.575C188.082 153.661 188.343 154.061 188.257 154.47C188.171 154.878 187.771 155.139 187.362 155.054C184.951 154.547 182.683 153.914 180.545 153.171C180.151 153.034 179.942 152.603 180.079 152.209ZM215.485 154.441C215.559 154.852 215.285 155.244 214.875 155.318C212.689 155.709 210.438 156.007 208.12 156.202C207.704 156.237 207.339 155.928 207.304 155.512C207.269 155.096 207.578 154.731 207.994 154.696C210.264 154.505 212.469 154.213 214.608 153.83C215.019 153.757 215.412 154.03 215.485 154.441ZM193.678 155.291C193.719 154.876 194.088 154.572 194.504 154.613C195.635 154.723 196.796 154.808 197.987 154.867M193.678 155.291C193.638 155.706 193.941 156.076 194.357 156.117ZM194.357 156.117C195.513 156.23 196.699 156.317 197.914 156.376ZM197.914 156.376C199.062 156.431 200.197 156.461 201.316 156.466ZM197.987 154.867C199.113 154.92 200.226 154.95 201.324 154.955C201.741 154.957 202.078 155.297 202.076 155.715C202.074 156.132 201.734 156.469 201.316 156.466" fill="white"/>
<path opacity="0.26" d="M273 107.367C271.795 114.088 271.107 123.049 272.312 129.598L265.082 120.637L253.894 118.396C260.09 116.5 267.664 111.675 273 107.367Z" fill="white"/>
</svg>
