<svg width="88" height="80" viewBox="0 0 88 80" fill="none" xmlns="http://www.w3.org/2000/svg">
<g opacity="0.5">
<path opacity="0.27" fill-rule="evenodd" clip-rule="evenodd" d="M25.0749 0.550171L42.1344 3.9577L40.2172 13.668L82.0138 22.1513L82.0213 22.153C85.3592 22.9107 87.6764 26.1114 86.9102 29.6445C86.9098 29.6461 86.9094 29.6477 86.9091 29.6494L77.8734 74.3604L77.8716 74.3684C77.1126 77.7036 73.9074 80.0162 70.3719 79.2513C70.3703 79.251 70.3687 79.2506 70.3671 79.2503L5.33595 66.124L5.3281 66.1222C1.99012 65.3645 -0.327112 62.1637 0.439343 58.6305L9.47325 14.2021C10.0923 10.8228 13.3205 8.6878 16.6768 9.2923L23.1525 10.2873L25.0749 0.550171ZM26.1299 2.12798L24.2188 11.8075L16.4555 10.6146L16.4465 10.613C13.7844 10.1296 11.2697 11.8191 10.7909 14.4491L10.7884 14.4626L1.75033 58.911C1.15126 61.6632 2.93678 64.2007 5.61723 64.8131L70.6516 77.9401C73.4094 78.5389 75.9497 76.754 76.5626 74.0786L85.5991 29.3642C86.1982 26.6119 84.4125 24.0744 81.7319 23.462L38.6437 14.7166L40.5601 5.01033L26.1299 2.12798Z" fill="white"/>
<path opacity="0.27" d="M28.279 18.7156L16.3389 16.2889L15.4107 20.8445L27.3508 23.2711L28.279 18.7156Z" fill="white"/>
<path opacity="0.27" d="M78.6509 28.9927L66.7107 26.566L65.7825 31.1216L77.7227 33.5483L78.6509 28.9927Z" fill="white"/>
<path opacity="0.27" fill-rule="evenodd" clip-rule="evenodd" d="M24.5348 39.492C26.6628 29.0072 37.0138 22.2138 47.5043 24.3375C58.0003 26.4624 64.8038 36.7987 62.678 47.2774C60.5518 57.8953 50.2024 64.6974 39.7039 62.4327C29.2097 60.3058 22.4082 49.9698 24.5348 39.492ZM47.2383 25.6515C37.4659 23.6731 27.8279 30.0064 25.8486 39.7586C23.8681 49.5164 30.2078 59.1425 39.9742 61.1197L39.9827 61.1214L39.9826 61.1214C49.7456 63.2296 59.3828 56.9054 61.3635 47.0142L61.3639 47.0125C63.3443 37.2548 57.0046 27.6286 47.2383 25.6515Z" fill="white"/>
<path opacity="0.27" fill-rule="evenodd" clip-rule="evenodd" d="M28.9176 40.4418C30.6363 32.4311 38.3754 27.2738 46.4052 28.849L46.4164 28.8512C54.4358 30.5675 59.6013 38.2964 58.0236 46.318C56.4443 54.3482 48.554 59.4955 40.5337 57.9221L40.5225 57.9199C32.5031 56.2036 27.3376 48.4747 28.9152 40.4531L28.9176 40.4418ZM30.2295 40.7174C28.7991 48.0064 33.4878 55.0402 40.7974 56.6076C48.1093 58.0389 55.2759 53.3417 56.7082 46.0593C58.1422 38.7683 53.4529 31.7313 46.1414 30.1634C38.841 28.7344 31.7986 33.4188 30.2295 40.7174Z" fill="white"/>
</g>
</svg>
