<svg width="102" height="233" viewBox="0 0 102 233" fill="none" xmlns="http://www.w3.org/2000/svg">
<g opacity="0.27">
<path opacity="0.27" d="M55.955 208.334L54.398 207.705C53.2521 207.315 -55.5614 173.012 -71.9608 97.5589C-80.5651 57.6744 -50.8181 28.783 -19.6649 19.3895C9.86898 10.4298 48.2954 16.5214 62.0943 51.1786C85.4328 109.779 56.6402 205.71 56.5779 206.773L55.955 208.334ZM-47.8792 38.4558C-63.6619 52.0991 -73.8773 72.2702 -68.635 97.0165C-53.8295 165.226 40.0119 199.356 53.763 204.04C57.6004 191.157 80.2389 105.941 59.03 52.6971C45.667 19.6664 9.44522 14.0302 -18.7932 22.6427C-29.0697 25.7449 -39.3836 31.298 -47.8792 38.4558Z" fill="white"/>
<path opacity="0.27" d="M33.627 128.891C30.1765 131.559 26.7259 134.227 22.6901 136.006C-3.3564 148.912 -34.7947 137.81 -47.2987 111.871C-60.2138 85.6944 -49.6364 53.9199 -23.5028 41.3386C-10.9218 35.1781 3.37785 34.1359 16.4813 38.9931C29.8214 43.4383 40.4083 53.1539 46.5732 65.7979C57.2963 87.6808 51.4152 113.664 33.627 128.891ZM-44.6455 110.115C-32.9011 134.513 -3.43085 144.748 20.7596 132.687C32.4562 127.112 41.226 117.092 45.4743 104.447C49.8099 92.1275 49.0012 78.7458 43.0107 66.7525C37.4312 54.9977 27.4296 46.1712 14.8244 41.8779C2.54305 37.4977 -10.785 38.2795 -22.7183 44.2664C-34.4149 49.8413 -43.1846 59.8621 -47.433 72.5068C-51.0337 84.978 -50.2249 98.3598 -44.6455 110.115Z" fill="white"/>
<path opacity="0.27" d="M23.1901 109.372L3.50889 118.83L-5.10944 100.916L-22.9346 109.527L-32.3127 90.0733L-14.4875 81.4616L-23.1058 63.5475L-3.42461 54.0898L5.19372 72.0039L23.0189 63.3922L32.4841 83.1714L14.6589 91.7831L23.1901 109.372ZM5.05376 114.232L18.5192 107.485L9.90088 89.5713L27.7261 80.9596L21.063 67.7518L3.23781 76.3635L-5.38051 58.4494L-18.846 65.1955L-9.90377 83.0228L-27.729 91.6346L-20.9787 105.168L-3.15354 96.556L5.05376 114.232Z" fill="white"/>
</g>
</svg>
